<svg width="135" height="31" viewBox="0 0 135 31" fill="none" xmlns="http://www.w3.org/2000/svg">
<g clip-path="url(#clip0_101_2589)">
<path d="M89.2 15.9898H94.3V13.4798H89.2V10.6098H94.78V8.06982H86.54V21.5498H94.88V19.0098H89.2V15.9898Z" fill="#2059CE"/>
<path d="M100.36 8.06982H97.71V21.5498H105.51V19.0098H100.36V8.06982Z" fill="#2059CE"/>
<path d="M113.54 10.38C115.08 10.38 116.39 11.11 117.04 12.3L119.33 10.97C118.17 9.04004 116 7.79004 113.53 7.79004C109.45 7.79004 106.52 10.85 106.52 14.8C106.52 18.75 109.45 21.81 113.53 21.81C116.01 21.81 118.19 20.56 119.33 18.63L117.04 17.3C116.4 18.47 115.08 19.21 113.54 19.21C110.9 19.21 109.17 17.38 109.17 14.8C109.17 12.22 110.9 10.37 113.54 10.37V10.38Z" fill="#2059CE"/>
<path d="M127.26 7.7998C123.37 7.7998 120.27 10.8598 120.27 14.8098C120.27 18.7598 123.37 21.8198 127.26 21.8198C131.15 21.8198 134.27 18.7398 134.27 14.8098C134.27 10.8798 131.15 7.7998 127.26 7.7998ZM127.26 19.2198C124.81 19.2198 122.91 17.3898 122.91 14.8098C122.91 12.2298 124.82 10.3798 127.26 10.3798C129.7 10.3798 131.61 12.2098 131.61 14.8098C131.61 17.4098 129.7 19.2198 127.26 19.2198Z" fill="#2059CE"/>
<path d="M46.68 0C43.58 0 40.93 0.87 38.31 2.51C35.7 0.87 33.05 0 29.95 0C25.72 0 21.99 1.67 19.03 4.65H0V8.05H16.54C15.78 9.72 15.25 11.27 14.94 13.09H0V16.48H14.86C15.08 18.31 15.54 19.88 16.21 21.58H0V24.98H18.43C21.42 28.35 25.4 30.29 29.95 30.29C33.05 30.29 35.7 29.42 38.31 27.78C40.92 29.42 43.57 30.29 46.68 30.29C51.23 30.29 55.21 28.35 58.2 24.98H76.24V21.58H60.42C61.1 19.88 61.55 18.3 61.77 16.48H76.23V13.09H61.68C61.37 11.27 60.83 9.72 60.08 8.05H76.22V4.65H57.58C54.62 1.67 50.9 0 46.66 0L46.68 0ZM29.96 26.89C23.47 26.89 18.21 21.63 18.21 15.15C18.21 8.67 23.47 3.4 29.96 3.4C32.11 3.4 33.68 3.93 35.6 4.81C33.01 7.9 31.55 11.04 31.55 15.15C31.55 19.26 33.01 22.4 35.6 25.49C33.69 26.37 32.11 26.9 29.96 26.9V26.89ZM34.94 15.14C34.94 11.81 36.17 9.31 38.32 6.86C40.47 9.31 41.7 11.8 41.7 15.14C41.7 18.48 40.47 20.97 38.32 23.41C36.17 20.96 34.94 18.47 34.94 15.14ZM46.68 26.89C44.53 26.89 42.96 26.36 41.04 25.48C43.63 22.39 45.09 19.25 45.09 15.14C45.09 11.03 43.63 7.89 41.04 4.8L41.77 4.46C43.26 3.77 44.93 3.39 46.67 3.39C53.16 3.39 58.42 8.65 58.42 15.13C58.42 21.61 53.16 26.87 46.67 26.87L46.68 26.89Z" fill="#2059CE"/>
</g>
<defs>
<clipPath id="clip0_101_2589">
<rect width="134.27" height="30.28" fill="white"/>
</clipPath>
</defs>
</svg>
