<svg width="65" height="52" viewBox="0 0 65 52" fill="none" xmlns="http://www.w3.org/2000/svg">
<g clip-path="url(#clip0_104_898)">
<path d="M13.7932 47.5046C12.9635 47.5046 12.3635 47.9194 12.3635 48.7172C12.3635 49.464 12.8869 49.9874 13.6783 49.9874C14.2016 49.9874 14.7314 49.6938 15.0569 49.2789V48.213C15.0569 47.862 14.5974 47.5046 13.7932 47.5046ZM31.6768 47.3578C31.7151 48.7619 32.6086 49.7704 34.1468 49.7704C35.0786 49.7704 35.7871 49.2661 36.0424 48.947C36.1573 49.0364 36.2785 49.1704 36.2785 49.4768C36.2785 50.1724 35.4361 51.1362 33.4766 51.1362C31.5045 51.1362 29.9025 49.5661 29.9025 47.511C29.9025 45.2516 31.3896 43.6304 33.5851 43.6304C35.5828 43.6304 36.5019 45.0984 36.5019 46.3494C36.5019 46.7195 36.4253 47.0578 36.2658 47.345L31.6768 47.3578ZM34.4659 46.4515C34.7787 46.4515 34.7914 46.2664 34.7914 46.0175C34.7787 45.2771 34.1979 44.5942 33.3171 44.5942C32.1746 44.5942 31.7279 45.5516 31.6896 46.4451L34.4659 46.4515ZM53.0069 47.2238C53.0069 48.9343 53.2431 49.8086 54.3473 49.8086C55.5535 49.8086 55.8854 48.73 55.8854 47.7535V45.8898C55.8854 45.2452 55.5791 44.9963 54.8834 45.0729C54.5962 44.3517 55.5535 43.8921 56.096 43.7836C56.262 43.7581 56.4216 43.7326 56.5683 43.7326C57.3279 43.7326 57.6214 44.2049 57.6214 44.9197C57.6214 45.1814 57.5959 45.6537 57.5959 47.6195C57.5959 48.4492 57.5831 48.8896 57.5831 49.03C57.5831 49.6746 57.8831 50.0065 58.5788 49.9299C58.866 50.6511 57.9087 50.9958 57.3662 51.0979C57.2002 51.1234 57.047 51.149 56.9258 51.149C56.2045 51.149 56.0577 50.683 55.9109 50.0065C55.8088 50.1342 55.7131 50.2363 55.5216 50.4277C55.0493 50.8681 54.4302 51.1362 53.7345 51.1362C52.975 51.1362 52.3304 50.8426 51.9219 50.3639C51.2901 49.6172 51.2901 48.6534 51.2901 47.2429V45.8898C51.2901 45.2452 50.9901 44.9963 50.2944 45.0729C50.0072 44.3517 50.9646 43.8921 51.5007 43.7836C51.673 43.7581 51.8262 43.7326 51.973 43.7326C52.7325 43.7326 53.0261 44.2049 53.0261 44.9197L53.0069 47.2238ZM49.6817 47.3706C49.6817 45.1495 48.1435 43.6368 46.0182 43.6368C44.046 43.6368 42.2972 45.1495 42.2972 47.3706C42.2972 49.6236 43.9375 51.1298 45.9479 51.1298C48.0733 51.1298 49.6817 49.598 49.6817 47.3706ZM16.6972 49.33C16.6972 49.898 17.0674 50.0767 17.7056 50.1661C17.6673 50.8235 17.2078 51.0788 16.6653 51.1298C16.0589 51.1809 15.4718 50.9 15.2356 50.2682C14.9612 50.5171 14.1442 51.1553 13.0783 51.1553C11.6231 51.1553 10.5317 50.1788 10.5317 48.8449C10.5317 47.4408 11.7508 46.6047 13.474 46.6047C14.0676 46.6047 14.6803 46.7259 15.0505 46.9174V45.9728C15.0505 45.1303 14.6803 44.5942 13.723 44.5942C13.5251 44.5942 13.0911 44.6452 12.7528 44.7793C12.7911 44.9133 12.8167 45.0537 12.8167 45.1878C12.8167 45.7047 12.4912 46.1196 11.9359 46.1196C11.4508 46.1196 11.0806 45.7303 11.0806 45.226C11.0806 44.307 12.2359 43.6368 13.8378 43.6368C15.1143 43.6368 15.8866 43.9368 16.2951 44.4665C16.6653 44.9261 16.6908 45.6409 16.6908 46.6621L16.6972 49.33ZM47.7989 47.4791C47.7989 49.1896 47.0649 50.115 46.0245 50.115C45.1055 50.115 44.2119 49.1896 44.2119 47.1599C44.2119 45.5835 44.8693 44.5942 45.9479 44.5942C47.0138 44.6006 47.7989 45.692 47.7989 47.4791ZM21.8989 44.8878C21.9372 45.3345 22.3201 45.6473 22.7669 45.6473C23.3349 45.6473 23.6732 45.1431 23.6732 44.658C23.6732 43.9751 23.1243 43.6177 22.569 43.6177C21.9372 43.6177 21.267 44.09 20.8905 44.7984L20.8649 44.8112C20.75 44.1793 20.4437 43.707 19.8118 43.707C19.665 43.707 19.5118 43.7326 19.3395 43.7836C18.8162 43.9432 18.0375 44.3453 18.3311 45.0729C19.0651 44.9325 19.3268 45.1814 19.3268 45.8196V48.8896C19.3268 49.4959 19.2502 49.7512 19.0395 49.9299C18.8417 50.0831 18.6311 50.1405 18.5034 50.1724C18.2034 50.8298 18.7906 51.0341 20.2522 51.0341C21.7138 51.0341 22.2116 50.8298 21.9053 50.1724C21.7712 50.1469 21.4074 50.0831 21.2096 49.9299C20.999 49.7512 20.9096 49.4959 20.9096 48.8896V47.045C20.9032 45.3984 21.5096 44.9707 21.8989 44.8878ZM39.9804 43.8219H41.8568C42.0802 44.358 41.7802 44.792 41.359 44.8303C41.2249 44.8431 41.0845 44.8431 40.9505 44.8431C40.6058 44.8431 40.2676 44.8176 40.0314 44.8176V48.8896C40.0314 49.4959 40.1335 49.7512 40.3442 49.9299C40.542 50.0831 41.0016 50.1405 41.1356 50.1724C41.4356 50.8298 40.7271 51.0341 39.2719 51.0341C37.8167 51.0341 37.2104 50.8298 37.5103 50.1724C37.6444 50.1469 37.855 50.0831 38.0465 49.9299C38.2571 49.7512 38.3337 49.4959 38.3337 48.8896V44.7984L37.2295 44.7601C37.0061 44.224 37.3061 43.8411 37.7529 43.8411H38.3082V43.3177C38.3082 42.2518 38.506 41.6583 38.7677 41.2689C39.1762 40.6371 39.8719 40.2031 40.9633 40.2031C42.3419 40.2031 43.4588 40.8477 43.4588 41.8178C43.4588 42.2391 43.1716 42.7497 42.5653 42.7497C42.1185 42.7497 41.6972 42.3667 41.6972 41.8944C41.6972 41.6966 41.7738 41.4859 41.8823 41.3583C41.7228 41.1732 41.3973 41.0838 41.0781 41.0838C40.1718 41.0838 39.974 41.754 39.974 42.5965L39.9804 43.8219ZM27.8792 44.8878C27.9175 45.3345 28.3005 45.6473 28.7472 45.6473C29.3153 45.6473 29.6536 45.1431 29.6536 44.658C29.6536 43.9751 29.1047 43.6177 28.5494 43.6177C27.9175 43.6177 27.2474 44.09 26.8708 44.7984L26.8453 44.8112C26.7304 44.1793 26.424 43.707 25.7922 43.707C25.6454 43.707 25.4922 43.7326 25.3199 43.7836C24.7965 43.9432 24.0179 44.3453 24.3051 45.0729C25.039 44.9325 25.3007 45.1814 25.3007 45.8196V48.8896C25.3007 49.4959 25.2241 49.7512 25.0135 49.9299C24.8157 50.0831 24.605 50.1405 24.4774 50.1724C24.1774 50.8298 24.7646 51.0341 26.2262 51.0341C27.6814 51.0341 28.1856 50.8298 27.8792 50.1724C27.7452 50.1469 27.3814 50.0831 27.1835 49.9299C26.9729 49.7512 26.8836 49.4959 26.8836 48.8896V47.045C26.8836 45.3984 27.4835 44.9707 27.8792 44.8878ZM62.8551 44.8878C62.8997 45.3345 63.2827 45.6473 63.7295 45.6473C64.2847 45.6473 64.6294 45.1431 64.6294 44.658C64.6294 43.9751 64.0869 43.6177 63.5252 43.6177C62.8997 43.6177 62.236 44.09 61.853 44.7984L61.8147 44.8112C61.6998 44.1793 61.3935 43.707 60.7744 43.707C60.6212 43.707 60.468 43.7326 60.2893 43.7836C59.7723 43.9432 59.0001 44.3453 59.2809 45.0729C60.0213 44.9325 60.2765 45.1814 60.2765 45.8196V48.8896C60.2765 49.4959 60.2 49.7512 59.983 49.9299C59.7915 50.0831 59.5809 50.1405 59.4532 50.1724C59.1469 50.8298 59.7468 51.0341 61.202 51.0341C62.6572 51.0341 63.155 50.8298 62.8487 50.1724C62.721 50.1469 62.3572 50.0831 62.153 49.9299C61.9551 49.7512 61.8658 49.4959 61.8658 48.8896V47.045C61.8658 45.3984 62.4593 44.9707 62.8551 44.8878Z" fill="#0E1931"/>
<path d="M0.804688 45.9217C0.804688 49.2406 3.0896 51.2 5.57238 51.2C7.80623 51.2 9.36993 49.6299 9.36993 48.3215C9.36993 47.6258 8.93593 47.1216 8.37427 47.1216C7.79347 47.1216 7.3084 47.5109 7.3084 48.1875C7.3084 48.6151 7.54455 48.8576 7.71688 49.0491C7.4169 49.6363 6.77228 50.115 5.77023 50.115C4.11718 50.115 2.91728 48.3917 2.91728 45.9089C2.91728 43.4262 4.05974 41.6901 5.71917 41.6901C6.72122 41.6901 7.35946 42.1752 7.66582 42.756C7.49349 42.9539 7.25734 43.19 7.25734 43.624C7.25734 44.2942 7.74241 44.6899 8.32321 44.6899C8.89125 44.6899 9.31887 44.1793 9.31887 43.4836C9.31887 42.1816 7.75517 40.6051 5.52132 40.6051C3.03854 40.5987 0.804688 42.756 0.804688 45.9217Z" fill="#0E1931"/>
<path d="M22.3264 1.14245L8.38709 14.6286C7.6914 15.2221 7.24463 15.9114 7.24463 16.9071C7.24463 17.8964 7.6914 18.5921 8.38709 19.1856L22.3264 32.6717C22.4157 32.7611 22.5051 32.7994 22.5753 32.7994C22.7093 32.7994 22.7987 32.6781 22.7923 32.5377C22.7859 32.4547 22.754 32.359 22.671 32.276C19.3968 28.2104 17.0162 23.5448 17.0162 16.9518C17.0162 10.3523 19.3968 5.5974 22.671 1.53178C22.754 1.44881 22.7923 1.35308 22.7923 1.2701C22.7987 1.12331 22.7029 1.00842 22.5753 1.00842C22.5051 1.01481 22.4157 1.0531 22.3264 1.14245Z" fill="#0E1931"/>
<path d="M33.0424 0C27.5854 0 25.4473 7.73553 25.4473 16.9582C25.4473 26.1808 27.579 33.8142 33.0424 33.8142C36.3166 33.8142 39.1121 31.8931 39.1185 30.3166C39.1185 29.972 38.9844 29.6401 38.6972 29.3529C37.1463 27.853 36.54 26.3531 36.5336 25.032C36.5208 22.5045 38.7164 20.6217 40.7332 20.6217C43.5096 20.6217 45.1499 22.8045 45.1499 25.6319C45.1499 28.3125 44.0074 30.54 42.7692 32.3271C42.7182 32.3973 42.699 32.4803 42.699 32.5505C42.699 32.6909 42.782 32.8058 42.9033 32.8058C42.9799 32.8058 43.0692 32.7675 43.1649 32.6718L57.1106 19.1856C57.8063 18.5921 58.2531 17.89 58.2531 16.9071C58.2531 15.9114 57.8063 15.2221 57.1106 14.6286L43.1649 1.14246C43.0692 1.04672 42.9799 1.00843 42.9033 1.00843C42.7756 1.00843 42.699 1.12331 42.699 1.26372C42.699 1.33393 42.7182 1.4169 42.7692 1.49349C44.0074 3.2742 45.1499 5.50805 45.1499 8.18868C45.1499 11.0161 43.5096 13.1989 40.7332 13.1989C38.7164 13.1989 36.5208 11.3161 36.5336 8.79501C36.54 7.47385 37.1463 5.97397 38.6972 4.4741C38.9844 4.18689 39.1185 3.855 39.1185 3.51035C39.1121 1.92112 36.323 0 33.0424 0Z" fill="#0E1931"/>
</g>
<defs>
<clipPath id="clip0_104_898">
<rect width="63.8245" height="51.2" fill="white" transform="translate(0.804688)"/>
</clipPath>
</defs>
</svg>
