<svg width="65" height="27" viewBox="0 0 65 27" fill="none" xmlns="http://www.w3.org/2000/svg">
<g clip-path="url(#clip0_104_903)">
<path d="M32.6477 24.9818C22.1033 24.9818 12.5125 22.8179 7.01717 19.7799C3.72853 17.9767 1.81526 15.6844 1.98641 13.4349C2.15757 11.1855 3.91803 9.02158 7.05996 7.11441C12.4514 3.80133 22.1461 2.02253 32.7761 2.06532C49.6838 2.12645 63.5597 7.41394 63.5413 13.7345C63.523 20.055 49.5983 25.0002 32.6477 24.9818ZM54.7574 4.41871C49.1154 2.2976 41.2422 0.940585 32.7761 0.799993C15.251 0.494357 0.629395 6.33199 0.629395 13.5022C0.629395 20.6724 14.8475 26.3389 32.5194 26.4C50.1912 26.4611 64.77 20.8986 64.77 13.8384C64.77 10.2319 61.2063 6.83934 54.7574 4.41871Z" fill="#0E1931"/>
<path d="M23.2463 11.1916C21.8893 11.5522 21.058 13.1048 20.5506 14.3579C20.4223 14.9081 20.0433 15.6294 20.5934 16.0756C21.2047 16.369 21.761 15.7577 22.1399 15.4643C22.702 14.6481 23.185 13.7803 23.5825 12.8725C23.6926 12.408 24.1571 11.8578 23.7782 11.3444C23.6926 11.1732 23.4358 11.2405 23.2463 11.1732" fill="#0E1931"/>
<path d="M46.5481 11.2527C45.4845 11.8272 45.0627 13.0865 44.7815 14.1134L45.081 14.1562C45.785 14.0997 46.4597 13.8501 47.031 13.4349C47.2709 13.2015 47.4461 12.9098 47.5393 12.5883C47.6325 12.2668 47.6406 11.9266 47.5628 11.6011C47.4687 11.4256 47.3127 11.2914 47.1251 11.2247C46.9375 11.158 46.7318 11.1636 46.5481 11.2404" fill="#0E1931"/>
<path d="M55.2218 12.7564C55.0834 12.8363 54.9263 12.8784 54.7664 12.8784C54.6066 12.8784 54.4495 12.8363 54.311 12.7564C54.036 12.5853 54.311 11.9495 53.8893 12.1451C52.7829 13.2515 52.2327 14.7797 51.5542 16.0939L51.1508 17.2798C50.8512 17.4938 50.3622 17.347 50.0016 17.347L49.8365 17.1942C50.3439 15.501 50.8512 13.82 51.3831 12.1696C51.3667 12.0904 51.3208 12.0205 51.2547 11.974C50.9368 11.974 50.7901 12.3163 50.5334 12.5058L50.1116 13.1171C50.0016 13.1171 49.8793 13.1782 49.8121 13.0498C50.0034 12.5399 50.316 12.0843 50.7228 11.7222C51.1297 11.3601 51.6185 11.1024 52.1471 10.9715C52.2778 10.9871 52.4013 11.0396 52.5031 11.123C52.6049 11.2064 52.6807 11.3171 52.7217 11.4422C52.687 12.1132 52.5574 12.7759 52.3366 13.4105C52.3366 13.4533 52.3794 13.4105 52.4222 13.4105C52.9968 12.4569 53.5897 11.3077 54.7756 10.9654C54.9128 10.9839 55.0443 11.0317 55.1614 11.1056C55.2785 11.1794 55.3783 11.2775 55.4541 11.3933C55.5469 11.6215 55.5744 11.871 55.5333 12.114C55.4923 12.3569 55.3844 12.5836 55.2218 12.7686M48.559 13.4471C48.0405 13.8678 47.4317 14.1628 46.7802 14.309L46.6946 14.3702L44.5918 14.7553C44.4877 14.9961 44.4487 15.2602 44.4788 15.5208C44.5088 15.7815 44.6068 16.0298 44.763 16.2406C45.0156 16.4479 45.3207 16.5811 45.6445 16.6253C45.9682 16.6696 46.2979 16.6232 46.5968 16.4913C47.1193 16.249 47.605 15.9342 48.0394 15.556H48.2106C48.2961 15.7883 48.0394 15.9778 47.911 16.2162C47.4948 16.6847 46.9682 17.0418 46.379 17.2553C45.7897 17.4688 45.1566 17.5318 44.5368 17.4387C44.2315 17.3932 43.9423 17.2728 43.6948 17.0882C43.4474 16.9037 43.2495 16.6608 43.1187 16.3812C42.9967 16.0596 42.9106 15.7254 42.8619 15.3849C42.8647 14.5 43.1042 13.632 43.5557 12.871C44.0071 12.11 44.6541 11.4837 45.4293 11.0571C46.5724 10.5864 48.4001 10.4458 49.0174 11.6683C49.1064 11.973 49.1095 12.2963 49.0265 12.6026C48.9434 12.9089 48.7774 13.1864 48.5468 13.4044M42.4952 9.35775C42.4213 9.55364 42.3114 9.73401 42.1712 9.88955C41.9891 10.0476 41.7582 10.1382 41.5172 10.1463C41.3976 10.1445 41.2807 10.1099 41.1794 10.0463C41.0781 9.98269 40.9962 9.89254 40.9426 9.78564C40.8922 9.56223 40.9056 9.32919 40.9813 9.11304C41.0569 8.8969 41.1918 8.70635 41.3704 8.5631C41.5136 8.4459 41.6928 8.38186 41.8778 8.38186C42.0628 8.38186 42.242 8.4459 42.3852 8.5631C42.4629 8.67836 42.5133 8.80991 42.5324 8.94765C42.5514 9.0854 42.5387 9.22568 42.4952 9.35775ZM41.8839 15.8128C41.2726 16.6991 40.2335 17.5732 39.0415 17.506C38.7909 17.4204 38.7236 17.1698 38.6197 16.9803L38.6809 16.1734L40.5513 11.1427C40.802 10.8431 41.2726 11.0815 41.6516 11.0387L41.78 11.2466L41.7189 11.5889L40.3374 15.77C40.2946 16.0023 40.1051 16.4485 40.3985 16.5524C40.8875 16.3201 41.2726 15.8128 41.7372 15.5377C41.9084 15.4704 41.8656 15.6172 41.9084 15.6416L41.8839 15.8128ZM37.9168 12.6953C37.6234 12.5486 37.6845 12.2491 37.6661 12.0168C37.6234 11.8884 37.4522 11.9495 37.385 12.0168C36.2663 13.0804 35.8201 14.4985 35.1416 15.8189C34.8604 16.2834 34.9277 16.9619 34.3959 17.3043C34.049 17.3179 33.7027 17.2661 33.375 17.1514L33.3322 16.9436C33.8213 15.2871 34.4998 13.7589 34.8604 12.0534C34.8746 12.0169 34.8764 11.9767 34.8653 11.9391C34.8542 11.9015 34.831 11.8686 34.7993 11.8456C34.2247 12.0107 33.9741 12.6464 33.5767 12.9887C33.4484 12.9887 33.3811 12.9887 33.3384 12.9031C33.6423 12.23 34.1295 11.6559 34.7443 11.2466C34.9129 11.109 35.1104 11.0111 35.3221 10.9603C35.5337 10.9095 35.7541 10.9071 35.9668 10.9532C36.4558 11.3994 36.0768 12.1757 36.034 12.6892C35.8446 12.9031 35.924 13.2026 35.8446 13.3921C36.3947 12.4997 36.9265 11.5216 37.8984 10.996C38.008 10.941 38.1285 10.9111 38.2511 10.9085C38.3738 10.906 38.4954 10.9308 38.6072 10.9811C38.719 11.0315 38.8182 11.1061 38.8976 11.1996C38.9769 11.2931 39.0345 11.4031 39.066 11.5216C39.066 11.9495 39.066 12.5425 38.6014 12.6892C38.4917 12.7418 38.3716 12.7691 38.2499 12.7691C38.1282 12.7691 38.0081 12.7418 37.8984 12.6892M32.6171 12.3469C32.4611 12.5308 32.2441 12.6523 32.0058 12.6892C31.8811 12.7016 31.7556 12.6755 31.6462 12.6143C31.5369 12.553 31.449 12.4597 31.3945 12.3469C31.3089 12.1818 31.4373 11.9434 31.2478 11.8395C30.5815 12.2246 30.337 12.9276 29.9703 13.5022C29.3325 14.5818 28.814 15.7275 28.4237 16.9192C28.1242 17.3837 27.6169 17.1087 27.2012 17.127C27.1349 17.0864 27.087 17.0216 27.0676 16.9463C27.0482 16.871 27.0589 16.7911 27.0973 16.7236L28.4726 12.5058C28.4726 12.2491 28.7049 11.9923 28.4726 11.76C28.1548 11.76 28.0509 12.1023 27.7941 12.2918C27.5374 12.4813 27.4946 12.9031 27.1829 12.9031C27.0117 12.8359 27.1217 12.6892 27.1829 12.5791C27.6513 11.7226 28.437 11.0839 29.3712 10.8003C29.5179 10.8003 29.7502 10.8003 29.8602 10.947C30.1964 11.7356 29.7319 12.6036 29.5851 13.3432C29.7319 13.2821 29.793 12.9826 29.9213 12.7931C30.4959 12.0534 30.9605 10.9593 31.9997 10.8003C32.2381 10.8615 32.6109 10.8859 32.7026 11.1365C32.7983 11.3261 32.8481 11.5355 32.8481 11.7478C32.8481 11.9601 32.7983 12.1695 32.7026 12.3591M24.1448 16.2651C24.7561 16.204 24.9945 15.3971 25.5691 15.1832C25.7158 15.5621 25.294 15.8617 25.0801 16.1367C24.4688 16.7113 23.6986 17.561 22.7878 17.2431C22.3416 16.9436 22.4455 16.3262 22.5128 15.8617C22.5555 15.8617 22.5555 15.8617 22.5739 15.8189H22.5128C21.6631 16.5402 20.9601 17.5365 19.7926 17.2615C19.5431 17.1468 19.3256 16.9725 19.1594 16.754C18.9931 16.5355 18.8831 16.2794 18.839 16.0084C18.8153 15.0051 19.073 14.0153 19.5829 13.1511C20.0929 12.2868 20.8346 11.5826 21.7242 11.1182C22.3844 10.9287 23.124 10.6109 23.7842 10.8431C23.959 10.9696 24.1154 11.1198 24.2488 11.2894C24.4199 11.0999 24.4444 10.7148 24.805 10.8003C25.1657 10.8859 25.5019 10.7392 25.7158 10.9043C25.184 12.5853 24.5911 14.2785 24.0165 15.935C24.0165 16.0389 23.9554 16.2957 24.1448 16.2957M18.5212 9.57169C18.2889 9.21104 18.9063 8.83205 18.5212 8.59366C16.504 8.25746 14.8963 9.35775 13.631 10.8676C12.763 12.2491 11.8705 14.1318 12.8058 15.7577C13.0425 16.0759 13.3601 16.3247 13.7256 16.4784C14.0912 16.6322 14.4912 16.6852 14.8841 16.6319C15.8538 16.4577 16.7738 16.0738 17.5798 15.5071C17.6837 15.5499 17.7937 15.611 17.7937 15.715C17.7265 15.9717 17.537 16.0756 17.3659 16.2468C16.413 16.8459 15.328 17.2027 14.2056 17.2859C13.5629 17.3309 12.9209 17.19 12.3562 16.88C11.7915 16.57 11.3279 16.104 11.0209 15.5377C10.7323 14.8731 10.6201 14.1453 10.695 13.4246C10.77 12.704 11.0296 12.0148 11.4488 11.4238C12.8547 9.25994 15.4587 8.13521 18.026 7.87847C18.7901 7.87847 19.7682 7.92126 20.2327 8.6609C20.2926 8.79678 20.3183 8.94523 20.3076 9.09332C20.297 9.24141 20.2503 9.38465 20.1716 9.51056C19.9532 9.77282 19.6425 9.94129 19.3036 9.98124C19.1371 9.97654 18.9744 9.93119 18.8295 9.84915C18.6846 9.76711 18.5619 9.65087 18.4723 9.51056M63.1561 13.71C62.9238 10.996 60.8027 8.6609 54.7145 6.33196C49.213 4.20474 42.1345 3.10445 32.776 3.01887C19.5359 2.87217 12.4879 4.33311 7.10263 7.57895C4.65755 9.046 2.54255 11.2466 2.35306 13.3921C1.7968 19.5293 15.911 24.0282 32.6048 24.0282C41.1626 24.0282 49.1764 23.1847 54.7145 21.2286C59.9103 19.3948 63.3945 16.369 63.1561 13.7161" fill="#0E1931"/>
<path d="M62.7589 20.4401C62.9865 20.4368 63.2123 20.4801 63.4226 20.5674C63.6328 20.6546 63.823 20.784 63.9814 20.9475C64.1391 21.1045 64.2638 21.2916 64.3482 21.4976C64.4335 21.7094 64.477 21.9356 64.4765 22.1639C64.4777 22.3902 64.434 22.6146 64.3482 22.8241C64.2667 23.0298 64.1416 23.2154 63.9814 23.3681C63.8197 23.5319 63.6263 23.6608 63.4129 23.7471C63.2067 23.8372 62.9839 23.883 62.7589 23.8816C62.5325 23.8827 62.3081 23.8391 62.0987 23.7532C61.8909 23.6666 61.7035 23.5375 61.5485 23.3742C61.3851 23.2158 61.2557 23.0256 61.1685 22.8154C61.0812 22.6051 61.0379 22.3793 61.0412 22.1517C61.0403 21.9247 61.0861 21.7 61.1757 21.4915C61.2653 21.2799 61.3938 21.0871 61.5547 20.923C61.7141 20.7617 61.9047 20.6347 62.1149 20.5495C62.3251 20.4644 62.5505 20.423 62.7772 20.4279M64.3054 22.1578C64.3091 21.9488 64.2717 21.7411 64.1953 21.5465C64.1204 21.3621 64.0103 21.1939 63.8714 21.0514C63.6544 20.8397 63.3808 20.6954 63.0836 20.6357C62.7864 20.5761 62.4783 20.6037 62.1965 20.7152C62.0125 20.7903 61.846 20.9027 61.7075 21.0453C61.5627 21.1916 61.4466 21.3636 61.3652 21.5526C61.2885 21.7366 61.249 21.934 61.249 22.1333C61.249 22.3327 61.2885 22.53 61.3652 22.714C61.4425 22.9002 61.5569 23.0686 61.7014 23.2092C61.8424 23.353 62.0107 23.4673 62.1965 23.5454C62.3904 23.6246 62.5983 23.6641 62.8078 23.6615C63.0171 23.6626 63.2247 23.6232 63.419 23.5454C63.608 23.4639 63.7801 23.3478 63.9264 23.203C64.0661 23.0682 64.1765 22.9059 64.2504 22.7263C64.3275 22.5319 64.3649 22.324 64.3604 22.115M62.8811 21.088C63.0936 21.0728 63.3059 21.1195 63.4924 21.2225C63.5593 21.2682 63.6132 21.3306 63.6486 21.4035C63.684 21.4764 63.6997 21.5573 63.6941 21.6382C63.6963 21.7663 63.6505 21.8906 63.5657 21.9866C63.4777 22.0819 63.3584 22.1426 63.2295 22.1578L63.6696 23.0686H63.3273L62.9117 22.2006H62.3676V23.0686H62.0742V21.1431L62.8811 21.088ZM62.8261 21.2898H62.3676V22.005H62.7405C62.8915 22.0144 63.0425 21.9872 63.1806 21.9255C63.2236 21.8958 63.2581 21.8553 63.2806 21.8081C63.3032 21.7609 63.3129 21.7087 63.309 21.6565C63.3126 21.6021 63.3021 21.5476 63.2786 21.4983C63.255 21.4491 63.2192 21.4067 63.1745 21.3753C63.0399 21.3093 62.8902 21.2798 62.7405 21.2898" fill="#0E1931"/>
</g>
<defs>
<clipPath id="clip0_104_903">
<rect width="64.1406" height="25.6" fill="white" transform="translate(0.629395 0.799988)"/>
</clipPath>
</defs>
</svg>
