<svg width="143" height="27" viewBox="0 0 143 27" fill="none" xmlns="http://www.w3.org/2000/svg">
<g clip-path="url(#clip0_104_911)">
<mask id="mask0_104_911" style="mask-type:luminance" maskUnits="userSpaceOnUse" x="0" y="0" width="143" height="27">
<path d="M142.992 0.799988H0.77002V26.4H142.992V0.799988Z" fill="white"/>
</mask>
<g mask="url(#mask0_104_911)">
<path d="M137.673 16.7735V21.6138C136.598 22.3668 135.524 22.4206 134.772 21.829C133.966 21.1298 133.751 19.8391 134.342 18.6559L137.673 16.7735ZM141.864 21.9365L141.595 21.8828C141.38 21.829 141.004 21.3449 141.004 20.5382V14.2458C141.004 12.4172 140.413 11.0189 139.392 10.2122C138.425 9.513 137.082 9.40544 135.524 9.88947C133.697 10.4811 130.903 12.9012 130.473 13.4391L130.366 13.5466L130.42 13.708C130.473 13.8693 130.688 14.192 130.796 14.2996L130.903 14.3533H133.966C133.966 14.3533 133.966 13.6004 133.966 13.4928C133.966 12.2559 134.772 11.6643 135.47 11.5029C136.169 11.3954 136.652 11.4491 136.975 11.718C137.458 12.0945 137.673 13.0088 137.673 14.2996V15.1063L131.225 17.9567L131.118 18.0105L131.064 18.118C130.473 19.9466 130.581 21.2912 131.44 22.2592C132.784 23.7113 136.007 23.9264 140.736 22.8508C141.112 22.7433 141.864 22.6895 141.864 22.6895C141.864 22.8508 141.864 21.9365 141.864 21.9365ZM118.492 20.3231C117.739 21.6676 116.127 22.4206 114.892 22.0441C113.656 21.6676 112.957 20.3769 112.957 18.2794V12.5785L113.119 12.5248C113.871 12.1483 115.268 11.3954 117.148 12.3634C118.169 12.9012 118.921 13.8693 119.297 15.0525C119.781 16.7197 119.459 18.6559 118.492 20.3231ZM122.253 12.9012C121.285 11.1802 120.05 10.1584 118.545 9.78191C116.45 9.2441 114.301 10.2122 113.011 10.9651V2.73653L112.581 2.46762L108.068 3.38191V4.13485C108.068 4.13485 108.82 4.72645 108.928 4.83401C109.465 5.42561 109.465 6.28611 109.465 6.82393V22.2592V22.4743L109.626 22.5819C112.205 23.9264 115.59 24.0878 118.062 23.0659C120.802 21.8828 121.984 19.9466 122.521 18.5483C123.273 16.3433 122.897 14.1382 122.253 12.9012ZM124.778 23.4424V13.8693C124.778 13.3315 124.778 12.471 124.241 11.8794C124.133 11.7718 123.381 11.1802 123.381 11.1802V10.4811L127.894 9.56678L128.27 9.83569V20.4844C128.324 21.6676 128.7 22.313 129.452 22.4743L129.667 22.5281V23.4424H124.778ZM124.563 5.31804C124.563 2.89788 128.217 2.89788 128.217 5.31804C128.217 7.73821 124.563 7.73821 124.563 5.31804ZM56.7562 22.2054C54.016 22.2054 53.2638 20.0542 53.2638 16.5584C53.2638 13.9769 54.016 10.9113 56.7562 10.9113C59.4965 10.9113 60.2487 13.9769 60.2487 16.5584C60.2487 20.0542 59.4965 22.2054 56.7562 22.2054ZM64.1709 16.6122C64.1709 14.5147 63.5262 12.7399 62.2367 11.5029C60.8934 10.1584 59.0129 9.45922 56.7562 9.45922C52.5116 9.45922 49.3416 12.5248 49.3416 16.6122C49.3416 20.9685 52.243 23.7651 56.7562 23.7651C58.9054 23.7651 60.786 23.0659 62.1292 21.6676C63.4187 20.3769 64.1709 18.5483 64.1709 16.6122ZM107.961 22.4206C107.208 22.2592 106.778 21.5601 106.778 20.4306V13.9769C106.778 12.471 106.026 9.67435 103.071 9.67435C100.868 9.67435 99.4175 10.9651 98.7191 11.6643C98.2355 10.6424 97.3221 9.67435 95.549 9.67435C94.152 9.67435 92.8625 10.2122 91.6805 11.234V9.88947L91.3044 9.62057L86.7911 10.5349V11.2878C86.7911 11.2878 87.5433 11.8794 87.6508 11.987C88.2418 12.5785 88.2418 13.4928 88.2418 14.0307V23.4962H93.1312V22.5819L92.8625 22.5281C92.1103 22.3668 91.6805 21.6676 91.6805 20.5382V12.9012C92.5402 12.1483 93.3998 12.0407 94.3132 12.0945C95.0654 12.1483 95.8177 12.6861 95.8177 15.3752V23.4424H100.707V22.5281L100.492 22.4743C99.6862 22.313 99.3101 21.6138 99.3101 20.4844V14.0307C99.3101 13.8693 99.2563 13.3315 99.2026 12.955C100.062 12.2021 100.922 12.0407 101.889 12.1483C102.641 12.2021 103.394 12.7399 103.394 15.429V23.4962H108.283V22.5819L107.961 22.4206ZM85.6628 22.4206C84.8568 22.2054 84.427 21.5601 84.427 20.4306V9.83569L84.0509 9.56678L79.5376 10.4811V11.234C79.5376 11.234 80.2898 11.8256 80.3973 11.9332C80.9883 12.5248 80.9883 13.4391 80.9883 13.9769V20.2693C79.5376 21.3987 78.1406 21.7752 77.2272 21.3449C76.475 20.9685 76.0452 20.108 76.0452 18.871V9.88947L75.6153 9.62057L71.102 10.5349V11.2878C71.102 11.2878 71.8543 11.8794 71.9617 11.987C72.5527 12.5785 72.5527 13.4928 72.5527 14.0307V19.4088C72.6065 20.4306 72.6602 20.8071 72.7677 21.2374C73.0363 22.3668 73.7348 23.2273 74.7019 23.55C76.3138 24.1416 78.5705 23.55 80.9883 21.9903V23.4424H85.9314V22.5281L85.6628 22.4206ZM65.7828 23.55V6.87771C65.7828 6.33989 65.7828 5.42561 65.1918 4.83401C64.9231 4.61889 64.6545 4.34998 64.3321 4.13485V3.43569L68.8454 2.52141L69.2752 2.79031C69.2752 2.79031 69.2752 20.4306 69.2752 20.6996C69.329 22.4206 70.511 22.5281 70.511 22.5281V23.6038L65.7828 23.55ZM47.9446 18.4407C48.0521 18.6021 48.5893 19.4088 48.5893 19.4088C48.267 20.6458 47.5148 22.313 47.5148 22.313H47.4073C44.4522 23.4962 39.9389 24.4643 35.0495 22.4743C32.1481 21.2912 30.0526 18.9785 29.193 16.0206C28.3333 12.9012 28.9243 9.56678 30.8049 6.98527C32.9003 4.13485 36.2853 2.57519 40.906 2.30628C42.6254 2.19872 46.2252 2.68275 48.1595 3.81216L48.3207 3.91973C48.3207 3.91973 48.3744 8.76006 48.3207 8.97519L48.267 9.19031L46.8163 9.2441L46.7625 8.81384C46.4939 7.41552 45.9029 3.65082 40.6374 3.91973C38.3807 4.02729 36.6076 5.1567 35.2107 6.93149C33.5988 9.08275 33.0615 12.0945 33.8137 15.3752C34.5122 18.5483 36.93 20.592 38.8106 21.3449C39.6165 21.6676 42.0881 22.2054 43.9686 21.3449C45.6342 20.592 47.1924 19.355 47.9446 18.4407ZM19.0381 21.9365C19.7366 21.2374 19.7366 20.108 19.0381 19.4626L18.5008 18.871C17.8023 18.1718 16.674 18.1718 16.0292 18.871L12.0532 22.8508C11.3547 23.55 11.3547 24.6794 12.0532 25.3248L12.6443 25.9164C13.3427 26.6155 14.4711 26.6155 15.1158 25.9164L19.0381 21.9365ZM15.4919 18.3332C16.1904 17.634 16.1904 16.5046 15.4919 15.8592L14.9009 15.2676C14.2024 14.5685 13.1278 14.5685 12.4293 15.2676L8.45335 19.2475C7.75486 19.9466 7.75486 21.0222 8.45335 21.7214L9.04437 22.313C9.74286 23.0122 10.8174 23.0122 11.5159 22.313L15.4919 18.3332ZM19.0381 7.95334C19.7366 7.25418 19.7366 6.17855 19.0381 5.47939L18.5008 4.88779C17.8023 4.18863 16.7277 4.18863 16.0292 4.88779L11.9995 8.86763C11.301 9.56678 11.301 10.6962 11.9995 11.3416L12.5905 11.9332C13.289 12.6323 14.4173 12.6323 15.0621 11.9332L19.0381 7.95334ZM15.4919 4.40376C16.1904 3.7046 16.1904 2.57519 15.4919 1.92981L14.9009 1.33821C14.2024 0.639053 13.1278 0.639053 12.4293 1.33821L8.45335 5.31804C7.75486 6.0172 7.75486 7.14662 8.45335 7.79199L9.04437 8.38359C9.74286 9.08275 10.8174 9.08275 11.5159 8.38359L15.4919 4.40376ZM22.1007 8.32981C21.4022 7.63065 20.3276 7.63065 19.6291 8.32981L19.0381 8.92141C18.3396 9.62057 18.3396 10.6962 19.0381 11.3954L23.0141 15.3752C23.7125 16.0743 24.8409 16.0743 25.4856 15.3752L26.0766 14.7836C26.7751 14.0844 26.7751 13.0088 26.0766 12.3096L22.1007 8.32981ZM18.5008 11.8794C17.8023 11.1802 16.7277 11.1802 16.0292 11.8794L15.4382 12.471C14.7397 13.1701 14.7397 14.2996 15.4382 14.9449L19.4142 18.9248C20.1127 19.6239 21.241 19.6239 21.8857 18.9248L22.4768 18.3332C23.1753 17.634 23.1753 16.5046 22.4768 15.8592L18.5008 11.8794ZM7.91605 8.38359C7.21757 7.68443 6.14297 7.68443 5.44449 8.38359L4.85346 8.97519C4.15498 9.67435 4.15498 10.8038 4.85346 11.4491L8.82945 15.429C9.52794 16.1281 10.6563 16.1281 11.301 15.429L11.892 14.8374C12.5905 14.1382 12.5905 13.0088 11.892 12.3634L7.91605 8.38359ZM8.29216 15.9668C8.99064 16.6659 8.99064 17.7416 8.29216 18.4407L7.75486 19.0323C7.05638 19.7315 5.98178 19.7315 5.2833 19.0323L1.30731 15.0525C0.608826 14.3533 0.608826 13.2239 1.30731 12.5785L1.84461 11.987C2.54309 11.2878 3.61768 11.2878 4.31617 11.987L8.29216 15.9668Z" fill="#0E1931"/>
</g>
</g>
<defs>
<clipPath id="clip0_104_911">
<rect width="142.222" height="25.6" fill="white" transform="translate(0.77002 0.799988)"/>
</clipPath>
</defs>
</svg>
