<svg width="1920" height="667" viewBox="0 0 1920 667" fill="none" xmlns="http://www.w3.org/2000/svg">
<path d="M1487.93 378.914L1952.5 378.914L1952.5 304.172L1489.69 304.172C1484.79 263.957 1474.78 229.431 1460.07 191.963L1952.5 191.963L1952.5 117.222L1411.03 117.222C1345.32 43.069 1257.83 0.499939 1157.59 0.499931C1089.32 0.499925 1031.06 19.7247 973.586 55.8201C916.111 19.7246 857.85 0.499904 789.585 0.499898C689.346 0.49989 602.053 43.0689 536.142 117.221L-20.5 117.221L-20.5 191.963L487.298 191.963C472.389 229.431 462.581 263.957 457.481 304.172L-20.5 304.172L-20.5 378.913L459.442 378.913C466.308 418.736 478.078 452.87 494.556 489.554L-20.5 489.554L-20.5 564.295L549.481 564.295C614.608 629.62 696.408 666.5 789.585 666.5C857.85 666.5 916.11 647.275 973.586 611.18C1031.06 647.275 1089.32 666.5 1157.59 666.5C1250.57 666.5 1332.57 629.816 1397.69 564.295L1952.5 564.295L1952.5 489.554L1452.81 489.554C1469.49 452.87 1481.06 418.736 1487.93 378.914ZM897.671 568.218C864.912 583.323 828.229 591.759 789.781 591.759C647.171 591.759 531.434 476.214 531.434 333.402C531.434 190.589 647.171 75.0448 789.781 75.0448C837.057 75.0448 871.582 86.6189 913.757 106.04C856.869 173.915 824.698 242.967 824.698 333.402C824.698 423.837 856.869 492.889 913.757 560.764L897.671 568.218ZM1048.13 333.598C1048.13 406.966 1021.06 461.698 973.783 515.645C926.507 461.894 899.437 406.966 899.437 333.598C899.437 260.23 926.507 205.498 973.783 151.748C1021.06 205.498 1048.13 260.426 1048.13 333.598ZM1122.87 333.598C1122.87 243.163 1090.7 174.111 1033.81 106.236C1075.98 86.8151 1110.51 75.241 1157.78 75.241C1300.39 75.241 1416.13 190.786 1416.13 333.598C1416.13 476.41 1300.39 591.955 1157.78 591.955C1110.51 591.955 1075.98 580.381 1033.81 560.96C1090.7 493.085 1122.87 424.033 1122.87 333.598Z" fill="#EBEBEB"/>
</svg>
