<svg width="119" height="27" viewBox="0 0 119 27" fill="none" xmlns="http://www.w3.org/2000/svg">
<g clip-path="url(#clip0_104_918)">
<path d="M27.2852 1.19632H0.355469V26.0435L27.2852 1.19632Z" fill="#0E1931"/>
<path d="M13.8345 1.1963H0.405518V13.6199L13.8345 1.1963Z" fill="#0E1931"/>
<path d="M64.8423 6.58218L61.3235 20.5856H67.4994L71.0182 6.58218H64.8423Z" fill="#0E1931"/>
<path d="M50.6752 14.7179H49.239L51.537 10.6964L52.2551 14.7179H50.6752ZM49.8135 6.60308L41.8423 20.6065H45.9356L47.2282 18.3085H52.9014L53.3323 20.6783H59.3646L56.8511 6.60308H49.8135Z" fill="#0E1931"/>
<path d="M93.1709 6.58218L89.6521 20.5856H95.828L99.3468 6.58218H93.1709Z" fill="#0E1931"/>
<path d="M90.3992 6.58218H84.0079L78.6938 11.1782L79.8428 6.58218H73.8823L70.3635 20.5856H76.324L77.5448 15.7742L80.7045 20.5856H87.8858L82.5717 13.2608L90.3992 6.58218Z" fill="#0E1931"/>
<path d="M36.9476 12.9614C36.9476 12.9614 36.5167 17.4855 32.6389 17.4855H30.4845L32.4234 9.94523H34.4342C35.0805 9.94523 37.163 10.1607 36.9476 12.9614ZM36.6604 6.57004H35.0805H27.3247L23.8059 20.5735H31.4899H34.506C38.8147 20.5735 43.0517 17.4137 43.0517 12.4587C43.0517 6.78547 36.6604 6.57004 36.6604 6.57004Z" fill="#0E1931"/>
<path d="M114.188 6.58005L112.105 14.8385L109.376 6.58005H102.482L98.9634 20.5835H103.272L105.355 12.2532L108.155 20.5835H115.049L118.496 6.58005H114.188Z" fill="#0E1931"/>
</g>
<defs>
<clipPath id="clip0_104_918">
<rect width="118.885" height="25.6" fill="white" transform="translate(-0.0078125 0.799988)"/>
</clipPath>
</defs>
</svg>
