<svg width="52" height="38" viewBox="0 0 52 38" fill="none" xmlns="http://www.w3.org/2000/svg">
<g clip-path="url(#clip0_76_860)">
<path d="M2.35188 31.1745H2.51988C2.71413 31.1745 2.97663 31.1587 3.20238 30.996C3.38088 30.8595 3.55413 30.6127 3.55413 30.2662C3.55413 29.9197 3.39138 29.6625 3.20763 29.526C2.98188 29.3632 2.70888 29.3475 2.51988 29.3475H2.35188V31.1745ZM2.49888 28.9747C2.85588 28.9747 3.17088 29.0115 3.45438 29.2267C3.76413 29.463 3.94788 29.8357 3.94788 30.261C3.94788 30.6862 3.76938 31.059 3.43338 31.2952C3.13413 31.5052 2.85063 31.542 2.49363 31.542H1.96338V28.9747H2.50413H2.49888Z" fill="white"/>
<path d="M5.37568 28.9747H4.98193V31.542H5.37568V28.9747Z" fill="white"/>
<path d="M7.6383 29.5417C7.6173 29.484 7.58055 29.4315 7.5228 29.379C7.44405 29.316 7.3548 29.2845 7.24455 29.2845C7.0083 29.2845 6.8823 29.4262 6.8823 29.5942C6.8823 29.673 6.90855 29.8042 7.16055 29.904L7.4178 30.009C7.8903 30.2032 8.02155 30.471 8.02155 30.765C8.02155 31.2532 7.67505 31.5892 7.19205 31.5892C6.89805 31.5892 6.71955 31.479 6.5883 31.332C6.4518 31.1797 6.3888 31.0065 6.37305 30.8332L6.76155 30.7492C6.76155 30.8752 6.8088 30.996 6.8718 31.0747C6.9453 31.1692 7.0503 31.227 7.2078 31.227C7.4493 31.227 7.63305 31.0537 7.63305 30.7965C7.63305 30.5392 7.43355 30.429 7.26555 30.3555L7.0188 30.2505C6.8088 30.1612 6.4938 29.9827 6.4938 29.5995C6.4938 29.253 6.76155 28.9222 7.24455 28.9222C7.5228 28.9222 7.6803 29.0272 7.75905 29.0955C7.8273 29.1585 7.9008 29.2477 7.9533 29.3527L7.6383 29.5365V29.5417Z" fill="white"/>
<path d="M10.9562 29.5732C10.6727 29.316 10.4049 29.2897 10.2579 29.2897C9.70144 29.2897 9.32344 29.7045 9.32344 30.2662C9.32344 30.828 9.71719 31.227 10.2632 31.227C10.5729 31.227 10.8092 31.0695 10.9562 30.9277V31.395C10.6989 31.5472 10.4259 31.5892 10.2527 31.5892C9.78544 31.5892 9.49669 31.3792 9.34444 31.2375C9.04519 30.954 8.92969 30.6285 8.92969 30.2662C8.92969 29.7937 9.12394 29.463 9.34444 29.2635C9.61219 29.0115 9.91669 28.9275 10.2737 28.9275C10.5099 28.9275 10.7357 28.9695 10.9614 29.1112V29.5732H10.9562Z" fill="white"/>
<path d="M14.0538 30.261C14.0538 29.6887 13.66 29.2897 13.1088 29.2897C12.5575 29.2897 12.1638 29.6887 12.1638 30.261C12.1638 30.8332 12.5575 31.2322 13.1088 31.2322C13.66 31.2322 14.0538 30.8332 14.0538 30.261ZM14.4475 30.261C14.4475 31.017 13.8805 31.5945 13.1088 31.5945C12.337 31.5945 11.77 31.017 11.77 30.261C11.77 29.505 12.337 28.9275 13.1088 28.9275C13.8805 28.9275 14.4475 29.505 14.4475 30.261Z" fill="white"/>
<path d="M15.8756 28.9747V30.5235C15.8756 30.66 15.8756 30.8332 15.9543 30.9645C16.0331 31.0957 16.2063 31.2322 16.4321 31.2322C16.6578 31.2322 16.8311 31.0957 16.9098 30.9645C16.9886 30.828 16.9886 30.66 16.9886 30.5235V28.9747H17.3823V30.6285C17.3823 30.8332 17.3403 31.08 17.1461 31.2952C17.0096 31.4422 16.7838 31.5945 16.4321 31.5945C16.0803 31.5945 15.8546 31.4422 15.7181 31.2952C15.5238 31.08 15.4766 30.8332 15.4766 30.6285V28.9747H15.8703H15.8756Z" fill="white"/>
<path d="M18.5376 31.542V28.8015L20.4013 30.7545V28.9748H20.7951V31.6995L18.9313 29.7465V31.542H18.5376Z" fill="white"/>
<path d="M22.6639 29.3422V31.542H22.2701V29.3422H21.6821V28.9747H23.2519V29.3422H22.6639Z" fill="white"/>
<path d="M25.966 28.9747H25.5723V31.542H25.966V28.9747Z" fill="white"/>
<path d="M27.1211 31.542V28.8015L28.9848 30.7545V28.9748H29.3786V31.6995L27.5148 29.7465V31.542H27.1211Z" fill="white"/>
<path d="M30.665 28.9747L31.379 30.765L32.0982 28.9747H32.5235L31.379 31.71L30.2397 28.9747H30.665Z" fill="white"/>
<path d="M34.8018 29.3422H33.778V29.9932H34.7703V30.366H33.778V31.1745H34.8018V31.542H33.3843V28.9747H34.8018V29.3422Z" fill="white"/>
<path d="M36.9596 29.5417C36.9386 29.484 36.9018 29.4315 36.8441 29.379C36.7653 29.316 36.6761 29.2845 36.5658 29.2845C36.3296 29.2845 36.2036 29.4262 36.2036 29.5942C36.2036 29.673 36.2298 29.8042 36.4818 29.904L36.7391 30.009C37.2116 30.2032 37.3428 30.471 37.3428 30.765C37.3428 31.2532 36.9963 31.5892 36.5133 31.5892C36.2193 31.5892 36.0408 31.479 35.9096 31.332C35.7731 31.1797 35.7101 31.0065 35.6943 30.8332L36.0828 30.7492C36.0828 30.8752 36.1301 30.996 36.1931 31.0747C36.2666 31.1692 36.3716 31.227 36.5291 31.227C36.7706 31.227 36.9543 31.0537 36.9543 30.7965C36.9543 30.5392 36.7548 30.429 36.5868 30.3555L36.3401 30.2505C36.1301 30.1612 35.8151 29.9827 35.8151 29.5995C35.8151 29.253 36.0828 28.9222 36.5658 28.9222C36.8441 28.9222 37.0016 29.0272 37.0803 29.0955C37.1486 29.1585 37.2221 29.2477 37.2746 29.3527L36.9596 29.5365V29.5417Z" fill="white"/>
<path d="M39.0125 29.3422V31.542H38.6188V29.3422H38.0308V28.9747H39.6005V29.3422H39.0125Z" fill="white"/>
<path d="M40.4087 31.542L40.9494 28.7805L41.8419 30.7755L42.7397 28.7805L43.2279 31.542H42.8289L42.5664 29.9933L41.8157 31.6628L41.0807 29.9933L40.8077 31.542H40.4087Z" fill="white"/>
<path d="M45.7217 29.3422H44.6979V29.9932H45.6902V30.366H44.6979V31.1745H45.7217V31.542H44.3042V28.9747H45.7217V29.3422Z" fill="white"/>
<path d="M46.772 31.542V28.8015L48.6357 30.7545V28.9748H49.0295V31.6995L47.1657 29.7465V31.542H46.772Z" fill="white"/>
<path d="M50.8934 29.3422V31.542H50.5049V29.3422H49.9116V28.9747H51.4866V29.3422H50.8934Z" fill="white"/>
<path d="M13.8019 33.7155C13.5184 33.4583 13.2506 33.432 13.1036 33.432C12.5471 33.432 12.1691 33.8468 12.1691 34.4085C12.1691 34.9703 12.5629 35.3693 13.1089 35.3693C13.4186 35.3693 13.6549 35.2118 13.8019 35.07V35.5373C13.5446 35.6895 13.2716 35.7315 13.0984 35.7315C12.6311 35.7315 12.3424 35.5215 12.1901 35.3798C11.8909 35.0963 11.7754 34.7708 11.7754 34.4085C11.7754 33.936 11.9696 33.6053 12.1901 33.4058C12.4579 33.1538 12.7624 33.0698 13.1194 33.0698C13.3556 33.0698 13.5814 33.1118 13.8071 33.2535V33.7155H13.8019Z" fill="white"/>
<path d="M16.8205 34.398C16.8205 33.8258 16.4267 33.4268 15.8755 33.4268C15.3242 33.4268 14.9305 33.8258 14.9305 34.398C14.9305 34.9703 15.3242 35.3693 15.8755 35.3693C16.4267 35.3693 16.8205 34.9703 16.8205 34.398ZM17.2142 34.398C17.2142 35.154 16.6472 35.7315 15.8755 35.7315C15.1037 35.7315 14.542 35.154 14.542 34.398C14.542 33.642 15.109 33.0645 15.8755 33.0645C16.642 33.0645 17.2142 33.642 17.2142 34.398Z" fill="white"/>
<path d="M18.5638 34.293H18.6845C18.7895 34.293 19.2305 34.2825 19.2305 33.873C19.2305 33.5108 18.8893 33.474 18.695 33.474H18.5585V34.2878L18.5638 34.293ZM18.6268 33.1118C18.9365 33.1118 19.1413 33.1485 19.304 33.264C19.5875 33.453 19.6085 33.7575 19.6085 33.8678C19.6085 34.2353 19.3828 34.5083 19.0415 34.5818L19.8448 35.679H19.3723L18.6373 34.629H18.569V35.679H18.1753V33.1118H18.632H18.6268Z" fill="white"/>
<path d="M21.0836 34.2773H21.2621C21.6033 34.2773 21.7608 34.1093 21.7608 33.873C21.7608 33.7313 21.7031 33.474 21.2568 33.474H21.0836V34.2773ZM21.2568 33.1118C21.4143 33.1118 21.6348 33.1275 21.8186 33.2483C22.0338 33.39 22.1388 33.6368 22.1388 33.873C22.1388 34.0253 22.1021 34.2563 21.8868 34.4348C21.6821 34.608 21.4458 34.6343 21.2568 34.6343H21.0783V35.679H20.6846V33.1118H21.2516H21.2568Z" fill="white"/>
<path d="M25.1578 34.398C25.1578 33.8258 24.764 33.4268 24.2128 33.4268C23.6615 33.4268 23.2678 33.8258 23.2678 34.398C23.2678 34.9703 23.6615 35.3693 24.2128 35.3693C24.764 35.3693 25.1578 34.9703 25.1578 34.398ZM25.5515 34.398C25.5515 35.154 24.9845 35.7315 24.2128 35.7315C23.441 35.7315 22.874 35.154 22.874 34.398C22.874 33.642 23.441 33.0645 24.2128 33.0645C24.9845 33.0645 25.5515 33.642 25.5515 34.398Z" fill="white"/>
<path d="M26.8955 34.293H27.0162C27.1212 34.293 27.5622 34.2825 27.5622 33.873C27.5622 33.5108 27.221 33.474 27.0267 33.474H26.8902V34.2878L26.8955 34.293ZM26.9637 33.1118C27.2735 33.1118 27.4782 33.1485 27.641 33.264C27.9245 33.453 27.9455 33.7575 27.9455 33.8678C27.9455 34.2353 27.7197 34.5083 27.3785 34.5818L28.1817 35.679H27.7092L26.9742 34.629H26.906V35.679H26.5122V33.1118H26.969H26.9637Z" fill="white"/>
<path d="M30.376 34.692L29.9928 33.8205L29.5938 34.692H30.3708H30.376ZM30.5335 35.0595H29.4363L29.1528 35.679H28.7275L30.0033 32.9595L31.2213 35.679H30.796L30.5283 35.0595H30.5335Z" fill="white"/>
<path d="M32.5706 33.4845V35.679H32.1769V33.4845H31.5889V33.1118H33.1586V33.4845H32.5706Z" fill="white"/>
<path d="M34.361 33.1118H33.9673V35.679H34.361V33.1118Z" fill="white"/>
<path d="M37.5948 34.398C37.5948 33.8258 37.201 33.4268 36.6498 33.4268C36.0985 33.4268 35.7048 33.8258 35.7048 34.398C35.7048 34.9703 36.0985 35.3693 36.6498 35.3693C37.201 35.3693 37.5948 34.9703 37.5948 34.398ZM37.9885 34.398C37.9885 35.154 37.4215 35.7315 36.6498 35.7315C35.878 35.7315 35.311 35.154 35.311 34.398C35.311 33.642 35.878 33.0645 36.6498 33.0645C37.4215 33.0645 37.9885 33.642 37.9885 34.398Z" fill="white"/>
<path d="M38.9443 35.679V32.9385L40.8081 34.8915V33.1117H41.2018V35.8365L39.3381 33.8887V35.679H38.9443Z" fill="white"/>
<path d="M6.15791 0.566627C6.04766 1.55363 6.09491 24.7271 6.21041 25.0894C6.28391 25.0999 6.36266 25.1156 6.44141 25.1156C7.89041 25.1156 9.33941 25.1419 10.7884 25.1051C11.7072 25.0841 12.5839 24.8321 13.3924 24.3701C14.4844 23.7349 15.2509 22.7951 15.8127 21.6874C16.7472 19.8446 17.1042 17.8444 17.2984 15.8179C17.4297 14.4266 17.4874 13.0301 17.4087 11.6284C17.3509 10.5259 17.3194 9.41813 17.1934 8.32088C17.0254 6.86138 16.6474 5.44913 15.9439 4.14188C15.4714 3.25988 14.9149 2.43038 14.1432 1.78988C13.1037 0.918377 11.8437 0.587627 10.5207 0.545627C9.20292 0.503627 7.87991 0.535127 6.56216 0.535127C6.43616 0.535127 6.31016 0.556127 6.15791 0.566627ZM0.514164 25.5829V25.1366H2.34641C2.41466 25.0736 2.42516 25.0631 2.43566 25.0526C2.44616 25.0421 2.46191 25.0264 2.46191 25.0106C2.47766 24.9476 2.49866 24.8846 2.49866 24.8216C2.49866 16.8574 2.49866 8.88788 2.49866 0.923626C2.49866 0.844877 2.48816 0.760876 2.47241 0.682127C2.47241 0.650626 2.44616 0.624376 2.40416 0.545627H0.524664C0.514164 0.361877 0.503664 0.220127 0.493164 0.0783765C0.556164 0.0468765 0.598164 0.0153765 0.640164 0.0153765C0.771414 0.00487654 0.897414 0.00487654 1.02866 0.00487654C3.96341 0.00487654 6.89291 -0.0108735 9.82767 0.0101265C11.1139 0.0206265 12.3844 0.209627 13.6129 0.634877C16.6159 1.67438 18.7002 3.70613 19.9969 6.57788C20.7319 8.19488 21.0942 9.90113 21.2044 11.6756C21.3409 13.9856 21.1414 16.2589 20.4747 18.4744C19.9024 20.3801 18.9522 22.0654 17.3982 23.3621C16.1067 24.4436 14.5999 25.0631 12.9567 25.3676C12.0589 25.5356 11.1507 25.5829 10.2372 25.5829C7.19216 25.5776 4.14716 25.5829 1.09691 25.5829H0.514164Z" fill="white"/>
<path d="M51.3657 17.913V25.5307H50.615C50.2894 24.8377 49.9482 24.1132 49.586 23.3415C49.397 23.4622 49.2499 23.562 49.1029 23.6512C48.2892 24.129 47.4912 24.6277 46.6617 25.074C46.0527 25.3995 45.3649 25.5202 44.6824 25.557C42.9027 25.6462 41.144 25.4992 39.4377 24.9112C36.9125 24.0397 35.1222 22.3702 33.9987 19.9657C33.29 18.4485 32.9015 16.842 32.744 15.1777C32.6547 14.2537 32.5602 13.3297 32.576 12.4057C32.6232 9.41322 33.4632 6.66222 35.3112 4.27347C36.8757 2.25747 38.8602 0.845222 41.375 0.251972C43.2492 -0.189028 45.0919 -0.0262781 46.8927 0.619472C47.6434 0.887222 48.3679 1.22322 49.1029 1.52247C49.2499 1.58547 49.4022 1.64322 49.6017 1.72197C49.8064 1.35972 50.0059 1.00797 50.1949 0.661472C50.4259 0.241472 50.8074 0.0612219 51.3394 0.120722V6.86172C51.2292 6.87222 51.1242 6.88797 51.014 6.89322C50.9037 6.89322 50.7882 6.88272 50.6465 6.87222C50.4837 6.44697 50.3209 6.02172 50.1529 5.60172C49.9744 5.15022 49.7959 4.69347 49.6017 4.24722C48.809 2.42547 47.4072 1.33347 45.5067 0.866222C44.2414 0.556472 42.9657 0.566972 41.6847 0.813722C40.4982 1.03947 39.6109 1.69047 38.9074 2.65122C37.6264 4.39947 36.9124 6.34197 36.6919 8.50497C36.4977 10.458 36.4767 12.4057 36.5449 14.3587C36.6184 16.3432 36.8389 18.3172 37.5004 20.2072C37.9099 21.3727 38.4612 22.449 39.3589 23.3205C40.3984 24.3337 41.6637 24.8167 43.0864 24.9217C45.6117 25.116 47.4124 23.9242 48.7932 21.9292C49.5124 20.8897 50.0112 19.7452 50.4417 18.564C50.4679 18.4852 50.4995 18.4117 50.5257 18.333C50.7252 17.808 50.7304 17.8027 51.3604 17.9077" fill="white"/>
<path d="M25.0841 0.456747H23.1993C23.1836 0.293997 23.1731 0.178497 23.1626 0.0157471H30.7173V0.456747H28.7853C28.7643 0.687747 28.7381 0.860997 28.7381 1.03425C28.7381 8.86725 28.7381 16.7002 28.7381 24.5332C28.7381 24.5962 28.7381 24.6645 28.7381 24.7275C28.7276 24.9742 28.8431 25.0845 29.0898 25.0793C29.5151 25.0793 29.9351 25.0793 30.3603 25.0793C30.4706 25.0793 30.5808 25.1003 30.7173 25.1108V25.5203H23.1993C23.1941 25.3995 23.1888 25.2682 23.1783 25.074H25.0946V0.456747H25.0841Z" fill="white"/>
<path d="M51.5547 37.4692H0.729492V37.947H51.5547V37.4692Z" fill="white"/>
</g>
<defs>
<clipPath id="clip0_76_860">
<rect width="51.0615" height="37.947" fill="white" transform="translate(0.493164)"/>
</clipPath>
</defs>
</svg>
