<svg width="52" height="38" viewBox="0 0 52 38" fill="none" xmlns="http://www.w3.org/2000/svg">
<g clip-path="url(#clip0_2169_8755)">
<path d="M2.35139 31.1745H2.51939C2.71364 31.1745 2.97614 31.1587 3.20189 30.996C3.38039 30.8595 3.55364 30.6127 3.55364 30.2662C3.55364 29.9197 3.39089 29.6625 3.20714 29.526C2.98139 29.3632 2.70839 29.3475 2.51939 29.3475H2.35139V31.1745ZM2.49839 28.9747C2.85539 28.9747 3.17039 29.0115 3.45389 29.2267C3.76364 29.463 3.94739 29.8357 3.94739 30.261C3.94739 30.6862 3.76889 31.059 3.43289 31.2952C3.13364 31.5052 2.85014 31.542 2.49314 31.542H1.96289V28.9747H2.50364H2.49839Z" fill="#0E1931"/>
<path d="M5.37422 28.9747H4.98047V31.542H5.37422V28.9747Z" fill="#0E1931"/>
<path d="M7.6383 29.5417C7.6173 29.484 7.58055 29.4315 7.5228 29.379C7.44405 29.316 7.3548 29.2845 7.24455 29.2845C7.0083 29.2845 6.8823 29.4262 6.8823 29.5942C6.8823 29.673 6.90855 29.8042 7.16055 29.904L7.4178 30.009C7.8903 30.2032 8.02155 30.471 8.02155 30.765C8.02155 31.2532 7.67505 31.5892 7.19205 31.5892C6.89805 31.5892 6.71955 31.479 6.5883 31.332C6.4518 31.1797 6.3888 31.0065 6.37305 30.8332L6.76155 30.7492C6.76155 30.8752 6.8088 30.996 6.8718 31.0747C6.9453 31.1692 7.0503 31.227 7.2078 31.227C7.4493 31.227 7.63305 31.0537 7.63305 30.7965C7.63305 30.5392 7.43355 30.429 7.26555 30.3555L7.0188 30.2505C6.8088 30.1612 6.4938 29.9827 6.4938 29.5995C6.4938 29.253 6.76155 28.9222 7.24455 28.9222C7.5228 28.9222 7.6803 29.0272 7.75905 29.0955C7.8273 29.1585 7.9008 29.2477 7.9533 29.3527L7.6383 29.5365V29.5417Z" fill="#0E1931"/>
<path d="M10.9562 29.5732C10.6727 29.316 10.4049 29.2897 10.2579 29.2897C9.70144 29.2897 9.32344 29.7045 9.32344 30.2662C9.32344 30.828 9.71719 31.227 10.2632 31.227C10.5729 31.227 10.8092 31.0695 10.9562 30.9277V31.395C10.6989 31.5472 10.4259 31.5892 10.2527 31.5892C9.78544 31.5892 9.49669 31.3792 9.34444 31.2375C9.04519 30.954 8.92969 30.6285 8.92969 30.2662C8.92969 29.7937 9.12394 29.463 9.34444 29.2635C9.61219 29.0115 9.91669 28.9275 10.2737 28.9275C10.5099 28.9275 10.7357 28.9695 10.9614 29.1112V29.5732H10.9562Z" fill="#0E1931"/>
<path d="M14.0533 30.261C14.0533 29.6887 13.6595 29.2897 13.1083 29.2897C12.557 29.2897 12.1633 29.6887 12.1633 30.261C12.1633 30.8332 12.557 31.2322 13.1083 31.2322C13.6595 31.2322 14.0533 30.8332 14.0533 30.261ZM14.447 30.261C14.447 31.017 13.88 31.5945 13.1083 31.5945C12.3365 31.5945 11.7695 31.017 11.7695 30.261C11.7695 29.505 12.3365 28.9275 13.1083 28.9275C13.88 28.9275 14.447 29.505 14.447 30.261Z" fill="#0E1931"/>
<path d="M15.8756 28.9747V30.5235C15.8756 30.66 15.8756 30.8332 15.9543 30.9645C16.0331 31.0957 16.2063 31.2322 16.4321 31.2322C16.6578 31.2322 16.8311 31.0957 16.9098 30.9645C16.9886 30.828 16.9886 30.66 16.9886 30.5235V28.9747H17.3823V30.6285C17.3823 30.8332 17.3403 31.08 17.1461 31.2952C17.0096 31.4422 16.7838 31.5945 16.4321 31.5945C16.0803 31.5945 15.8546 31.4422 15.7181 31.2952C15.5238 31.08 15.4766 30.8332 15.4766 30.6285V28.9747H15.8703H15.8756Z" fill="#0E1931"/>
<path d="M18.5371 31.542V28.8015L20.4009 30.7545V28.9748H20.7946V31.6995L18.9309 29.7465V31.542H18.5371Z" fill="#0E1931"/>
<path d="M22.6634 29.3422V31.542H22.2696V29.3422H21.6816V28.9747H23.2514V29.3422H22.6634Z" fill="#0E1931"/>
<path d="M25.966 28.9747H25.5723V31.542H25.966V28.9747Z" fill="#0E1931"/>
<path d="M27.1211 31.542V28.8015L28.9848 30.7545V28.9748H29.3786V31.6995L27.5148 29.7465V31.542H27.1211Z" fill="#0E1931"/>
<path d="M30.6635 28.9747L31.3775 30.765L32.0968 28.9747H32.522L31.3775 31.71L30.2383 28.9747H30.6635Z" fill="#0E1931"/>
<path d="M34.8003 29.3422H33.7766V29.9932H34.7688V30.366H33.7766V31.1745H34.8003V31.542H33.3828V28.9747H34.8003V29.3422Z" fill="#0E1931"/>
<path d="M36.9586 29.5417C36.9376 29.484 36.9009 29.4315 36.8431 29.379C36.7644 29.316 36.6751 29.2845 36.5649 29.2845C36.3286 29.2845 36.2026 29.4262 36.2026 29.5942C36.2026 29.673 36.2289 29.8042 36.4809 29.904L36.7381 30.009C37.2106 30.2032 37.3419 30.471 37.3419 30.765C37.3419 31.2532 36.9954 31.5892 36.5124 31.5892C36.2184 31.5892 36.0399 31.479 35.9086 31.332C35.7721 31.1797 35.7091 31.0065 35.6934 30.8332L36.0819 30.7492C36.0819 30.8752 36.1291 30.996 36.1921 31.0747C36.2656 31.1692 36.3706 31.227 36.5281 31.227C36.7696 31.227 36.9534 31.0537 36.9534 30.7965C36.9534 30.5392 36.7539 30.429 36.5859 30.3555L36.3391 30.2505C36.1291 30.1612 35.8141 29.9827 35.8141 29.5995C35.8141 29.253 36.0819 28.9222 36.5649 28.9222C36.8431 28.9222 37.0006 29.0272 37.0794 29.0955C37.1476 29.1585 37.2211 29.2477 37.2736 29.3527L36.9586 29.5365V29.5417Z" fill="#0E1931"/>
<path d="M39.011 29.3422V31.542H38.6173V29.3422H38.0293V28.9747H39.599V29.3422H39.011Z" fill="#0E1931"/>
<path d="M40.4082 31.542L40.949 28.7805L41.8415 30.7755L42.7392 28.7805L43.2275 31.542H42.8285L42.566 29.9933L41.8152 31.6628L41.0802 29.9933L40.8072 31.542H40.4082Z" fill="#0E1931"/>
<path d="M45.7202 29.3422H44.6965V29.9932H45.6887V30.366H44.6965V31.1745H45.7202V31.542H44.3027V28.9747H45.7202V29.3422Z" fill="#0E1931"/>
<path d="M46.7715 31.542V28.8015L48.6352 30.7545V28.9748H49.029V31.6995L47.1652 29.7465V31.542H46.7715Z" fill="#0E1931"/>
<path d="M50.8919 29.3422V31.542H50.5034V29.3422H49.9102V28.9747H51.4852V29.3422H50.8919Z" fill="#0E1931"/>
<path d="M13.8019 33.7155C13.5184 33.4583 13.2506 33.432 13.1036 33.432C12.5471 33.432 12.1691 33.8468 12.1691 34.4085C12.1691 34.9703 12.5629 35.3693 13.1089 35.3693C13.4186 35.3693 13.6549 35.2118 13.8019 35.07V35.5373C13.5446 35.6895 13.2716 35.7315 13.0984 35.7315C12.6311 35.7315 12.3424 35.5215 12.1901 35.3798C11.8909 35.0963 11.7754 34.7708 11.7754 34.4085C11.7754 33.936 11.9696 33.6053 12.1901 33.4058C12.4579 33.1538 12.7624 33.0698 13.1194 33.0698C13.3556 33.0698 13.5814 33.1118 13.8071 33.2535V33.7155H13.8019Z" fill="#0E1931"/>
<path d="M16.8195 34.398C16.8195 33.8258 16.4258 33.4268 15.8745 33.4268C15.3233 33.4268 14.9295 33.8258 14.9295 34.398C14.9295 34.9703 15.3233 35.3693 15.8745 35.3693C16.4258 35.3693 16.8195 34.9703 16.8195 34.398ZM17.2133 34.398C17.2133 35.154 16.6463 35.7315 15.8745 35.7315C15.1028 35.7315 14.541 35.154 14.541 34.398C14.541 33.642 15.108 33.0645 15.8745 33.0645C16.641 33.0645 17.2133 33.642 17.2133 34.398Z" fill="#0E1931"/>
<path d="M18.5623 34.293H18.6831C18.7881 34.293 19.2291 34.2825 19.2291 33.873C19.2291 33.5108 18.8878 33.474 18.6936 33.474H18.5571V34.2878L18.5623 34.293ZM18.6253 33.1118C18.9351 33.1118 19.1398 33.1485 19.3026 33.264C19.5861 33.453 19.6071 33.7575 19.6071 33.8678C19.6071 34.2353 19.3813 34.5083 19.0401 34.5818L19.8433 35.679H19.3708L18.6358 34.629H18.5676V35.679H18.1738V33.1118H18.6306H18.6253Z" fill="#0E1931"/>
<path d="M21.0826 34.2773H21.2611C21.6023 34.2773 21.7598 34.1093 21.7598 33.873C21.7598 33.7313 21.7021 33.474 21.2558 33.474H21.0826V34.2773ZM21.2558 33.1118C21.4133 33.1118 21.6338 33.1275 21.8176 33.2483C22.0328 33.39 22.1378 33.6368 22.1378 33.873C22.1378 34.0253 22.1011 34.2563 21.8858 34.4348C21.6811 34.608 21.4448 34.6343 21.2558 34.6343H21.0773V35.679H20.6836V33.1118H21.2506H21.2558Z" fill="#0E1931"/>
<path d="M25.1568 34.398C25.1568 33.8258 24.763 33.4268 24.2118 33.4268C23.6605 33.4268 23.2668 33.8258 23.2668 34.398C23.2668 34.9703 23.6605 35.3693 24.2118 35.3693C24.763 35.3693 25.1568 34.9703 25.1568 34.398ZM25.5505 34.398C25.5505 35.154 24.9835 35.7315 24.2118 35.7315C23.44 35.7315 22.873 35.154 22.873 34.398C22.873 33.642 23.44 33.0645 24.2118 33.0645C24.9835 33.0645 25.5505 33.642 25.5505 34.398Z" fill="#0E1931"/>
<path d="M26.895 34.293H27.0157C27.1207 34.293 27.5617 34.2825 27.5617 33.873C27.5617 33.5108 27.2205 33.474 27.0262 33.474H26.8897V34.2878L26.895 34.293ZM26.9632 33.1118C27.273 33.1118 27.4777 33.1485 27.6405 33.264C27.924 33.453 27.945 33.7575 27.945 33.8678C27.945 34.2353 27.7192 34.5083 27.378 34.5818L28.1812 35.679H27.7087L26.9737 34.629H26.9055V35.679H26.5117V33.1118H26.9685H26.9632Z" fill="#0E1931"/>
<path d="M30.3751 34.692L29.9918 33.8205L29.5928 34.692H30.3698H30.3751ZM30.5326 35.0595H29.4353L29.1518 35.679H28.7266L30.0023 32.9595L31.2203 35.679H30.7951L30.5273 35.0595H30.5326Z" fill="#0E1931"/>
<path d="M32.5696 33.4845V35.679H32.1759V33.4845H31.5879V33.1118H33.1576V33.4845H32.5696Z" fill="#0E1931"/>
<path d="M34.3605 33.1118H33.9668V35.679H34.3605V33.1118Z" fill="#0E1931"/>
<path d="M37.5943 34.398C37.5943 33.8258 37.2005 33.4268 36.6493 33.4268C36.098 33.4268 35.7043 33.8258 35.7043 34.398C35.7043 34.9703 36.098 35.3693 36.6493 35.3693C37.2005 35.3693 37.5943 34.9703 37.5943 34.398ZM37.988 34.398C37.988 35.154 37.421 35.7315 36.6493 35.7315C35.8775 35.7315 35.3105 35.154 35.3105 34.398C35.3105 33.642 35.8775 33.0645 36.6493 33.0645C37.421 33.0645 37.988 33.642 37.988 34.398Z" fill="#0E1931"/>
<path d="M38.9434 35.679V32.9385L40.8071 34.8915V33.1117H41.2009V35.8365L39.3371 33.8887V35.679H38.9434Z" fill="#0E1931"/>
<path d="M6.15694 0.566627C6.04669 1.55363 6.09394 24.7271 6.20944 25.0894C6.28294 25.0999 6.36169 25.1156 6.44044 25.1156C7.88944 25.1156 9.33844 25.1419 10.7874 25.1051C11.7062 25.0841 12.5829 24.8321 13.3914 24.3701C14.4834 23.7349 15.2499 22.7951 15.8117 21.6874C16.7462 19.8446 17.1032 17.8444 17.2974 15.8179C17.4287 14.4266 17.4864 13.0301 17.4077 11.6284C17.3499 10.5259 17.3184 9.41813 17.1924 8.32088C17.0244 6.86138 16.6464 5.44913 15.9429 4.14188C15.4704 3.25988 14.9139 2.43038 14.1422 1.78988C13.1027 0.918377 11.8427 0.587627 10.5197 0.545627C9.20194 0.503627 7.87894 0.535127 6.56119 0.535127C6.43519 0.535127 6.30919 0.556127 6.15694 0.566627ZM0.513188 25.5829V25.1366H2.34544C2.41369 25.0736 2.42419 25.0631 2.43469 25.0526C2.44519 25.0421 2.46094 25.0264 2.46094 25.0106C2.47669 24.9476 2.49769 24.8846 2.49769 24.8216C2.49769 16.8574 2.49769 8.88788 2.49769 0.923626C2.49769 0.844877 2.48719 0.760876 2.47144 0.682127C2.47144 0.650626 2.44519 0.624376 2.40319 0.545627H0.523688C0.513188 0.361877 0.502688 0.220127 0.492188 0.0783765C0.555188 0.0468765 0.597188 0.0153765 0.639188 0.0153765C0.770438 0.00487654 0.896438 0.00487654 1.02769 0.00487654C3.96244 0.00487654 6.89194 -0.0108735 9.82669 0.0101265C11.1129 0.0206265 12.3834 0.209627 13.6119 0.634877C16.6149 1.67438 18.6992 3.70613 19.9959 6.57788C20.7309 8.19488 21.0932 9.90113 21.2034 11.6756C21.3399 13.9856 21.1404 16.2589 20.4737 18.4744C19.9014 20.3801 18.9512 22.0654 17.3972 23.3621C16.1057 24.4436 14.5989 25.0631 12.9557 25.3676C12.0579 25.5356 11.1497 25.5829 10.2362 25.5829C7.19119 25.5776 4.14619 25.5829 1.09594 25.5829H0.513188Z" fill="#0E1931"/>
<path d="M51.3637 17.913V25.5307H50.613C50.2875 24.8377 49.9462 24.1132 49.584 23.3415C49.395 23.4622 49.248 23.562 49.101 23.6512C48.2872 24.129 47.4892 24.6277 46.6597 25.074C46.0507 25.3995 45.363 25.5202 44.6805 25.557C42.9007 25.6462 41.142 25.4992 39.4357 24.9112C36.9105 24.0397 35.1202 22.3702 33.9967 19.9657C33.288 18.4485 32.8995 16.842 32.742 15.1777C32.6527 14.2537 32.5582 13.3297 32.574 12.4057C32.6212 9.41322 33.4612 6.66222 35.3092 4.27347C36.8737 2.25747 38.8582 0.845222 41.373 0.251972C43.2472 -0.189028 45.09 -0.0262781 46.8907 0.619472C47.6415 0.887222 48.366 1.22322 49.101 1.52247C49.248 1.58547 49.4002 1.64322 49.5997 1.72197C49.8045 1.35972 50.004 1.00797 50.193 0.661472C50.424 0.241472 50.8055 0.0612219 51.3375 0.120722V6.86172C51.2272 6.87222 51.1222 6.88797 51.012 6.89322C50.9017 6.89322 50.7862 6.88272 50.6445 6.87222C50.4817 6.44697 50.319 6.02172 50.151 5.60172C49.9725 5.15022 49.794 4.69347 49.5997 4.24722C48.807 2.42547 47.4052 1.33347 45.5047 0.866222C44.2395 0.556472 42.9637 0.566972 41.6827 0.813722C40.4962 1.03947 39.609 1.69047 38.9055 2.65122C37.6245 4.39947 36.9105 6.34197 36.69 8.50497C36.4957 10.458 36.4747 12.4057 36.543 14.3587C36.6165 16.3432 36.837 18.3172 37.4985 20.2072C37.908 21.3727 38.4592 22.449 39.357 23.3205C40.3965 24.3337 41.6617 24.8167 43.0845 24.9217C45.6097 25.116 47.4105 23.9242 48.7912 21.9292C49.5105 20.8897 50.0092 19.7452 50.4397 18.564C50.466 18.4852 50.4975 18.4117 50.5237 18.333C50.7232 17.808 50.7285 17.8027 51.3585 17.9077" fill="#0E1931"/>
<path d="M25.0836 0.456747H23.1989C23.1831 0.293997 23.1726 0.178497 23.1621 0.0157471H30.7169V0.456747H28.7849C28.7639 0.687747 28.7376 0.860997 28.7376 1.03425C28.7376 8.86725 28.7376 16.7002 28.7376 24.5332C28.7376 24.5962 28.7376 24.6645 28.7376 24.7275C28.7271 24.9742 28.8426 25.0845 29.0894 25.0793C29.5146 25.0793 29.9346 25.0793 30.3599 25.0793C30.4701 25.0793 30.5804 25.1003 30.7169 25.1108V25.5203H23.1989C23.1936 25.3995 23.1884 25.2682 23.1779 25.074H25.0941V0.456747H25.0836Z" fill="#0E1931"/>
<path d="M51.5538 37.4692H0.728516V37.947H51.5538V37.4692Z" fill="#0E1931"/>
</g>
<defs>
<clipPath id="clip0_2169_8755">
<rect width="51.0615" height="37.947" fill="white" transform="translate(0.492188)"/>
</clipPath>
</defs>
</svg>
