<svg width="105" height="78" viewBox="0 0 105 78" fill="none" xmlns="http://www.w3.org/2000/svg">
<g clip-path="url(#clip0_118_3650)">
<path d="M3.82172 64.0791H4.16718C4.56663 64.0791 5.10642 64.0467 5.57064 63.7122C5.93769 63.4316 6.29396 62.9244 6.29396 62.2122C6.29396 61.4999 5.95929 60.9712 5.58143 60.6906C5.11721 60.3561 4.55583 60.3237 4.16718 60.3237H3.82172V64.0791ZM4.124 59.5575C4.85811 59.5575 5.50586 59.633 6.08884 60.0755C6.72579 60.5611 7.10364 61.3273 7.10364 62.2014C7.10364 63.0755 6.73658 63.8417 6.04565 64.3273C5.43029 64.7589 4.84732 64.8345 4.1132 64.8345H3.02283V59.5575H4.1348H4.124Z" fill="white"/>
<path d="M10.0402 59.5575H9.23047V64.8345H10.0402V59.5575Z" fill="white"/>
<path d="M14.6931 60.723C14.6499 60.6043 14.5743 60.4963 14.4556 60.3884C14.2937 60.2589 14.1101 60.1942 13.8834 60.1942C13.3976 60.1942 13.1385 60.4856 13.1385 60.8309C13.1385 60.9927 13.1925 61.2625 13.7107 61.4676L14.2397 61.6834C15.2113 62.0827 15.4812 62.633 15.4812 63.2374C15.4812 64.241 14.7687 64.9316 13.7755 64.9316C13.1709 64.9316 12.8038 64.705 12.5339 64.4028C12.2532 64.0899 12.1237 63.7338 12.0913 63.3776L12.8902 63.205C12.8902 63.464 12.9874 63.7122 13.1169 63.874C13.2681 64.0683 13.484 64.187 13.8078 64.187C14.3044 64.187 14.6823 63.8309 14.6823 63.3021C14.6823 62.7733 14.2721 62.5467 13.9266 62.3956L13.4192 62.1798C12.9874 61.9963 12.3396 61.6294 12.3396 60.8417C12.3396 60.1294 12.8902 59.4496 13.8834 59.4496C14.4556 59.4496 14.7795 59.6654 14.9414 59.8057C15.0817 59.9352 15.2329 60.1186 15.3408 60.3345L14.6931 60.7122V60.723Z" fill="white"/>
<path d="M21.5161 60.7878C20.9331 60.259 20.3825 60.2051 20.0802 60.2051C18.9359 60.2051 18.1586 61.0576 18.1586 62.2123C18.1586 63.3669 18.9682 64.1871 20.091 64.1871C20.728 64.1871 21.2138 63.8633 21.5161 63.572V64.5324C20.9871 64.8453 20.4257 64.9317 20.0694 64.9317C19.1086 64.9317 18.5148 64.5 18.2017 64.2087C17.5864 63.6259 17.3489 62.9569 17.3489 62.2123C17.3489 61.241 17.7483 60.5612 18.2017 60.1511C18.7523 59.6331 19.3785 59.4604 20.1126 59.4604C20.5984 59.4604 21.0626 59.5468 21.5269 59.8381V60.7878H21.5161Z" fill="white"/>
<path d="M27.8855 62.2015C27.8855 61.0252 27.0758 60.2051 25.9423 60.2051C24.8087 60.2051 23.999 61.0252 23.999 62.2015C23.999 63.3777 24.8087 64.1979 25.9423 64.1979C27.0758 64.1979 27.8855 63.3777 27.8855 62.2015ZM28.6952 62.2015C28.6952 63.7554 27.5292 64.9425 25.9423 64.9425C24.3553 64.9425 23.1893 63.7554 23.1893 62.2015C23.1893 60.6475 24.3553 59.4604 25.9423 59.4604C27.5292 59.4604 28.6952 60.6475 28.6952 62.2015Z" fill="white"/>
<path d="M31.6318 59.5575V62.7409C31.6318 63.0215 31.6318 63.3776 31.7937 63.6474C31.9556 63.9172 32.3119 64.1978 32.7761 64.1978C33.2403 64.1978 33.5966 63.9172 33.7585 63.6474C33.9205 63.3668 33.9205 63.0215 33.9205 62.7409V59.5575H34.7302V62.9568C34.7302 63.3776 34.6438 63.8848 34.2443 64.3273C33.9637 64.6294 33.4994 64.9424 32.7761 64.9424C32.0528 64.9424 31.5886 64.6294 31.3079 64.3273C30.9084 63.8848 30.8113 63.3776 30.8113 62.9568V59.5575H31.621H31.6318Z" fill="white"/>
<path d="M37.1052 64.8345V59.2014L40.9377 63.2158V59.5575H41.7474V65.1583L37.9149 61.1439V64.8345H37.1052Z" fill="white"/>
<path d="M45.5907 60.3129V64.8345H44.781V60.3129H43.5719V59.5575H46.7998V60.3129H45.5907Z" fill="white"/>
<path d="M52.3812 59.5575H51.5715V64.8345H52.3812V59.5575Z" fill="white"/>
<path d="M54.7563 64.8345V59.2014L58.5889 63.2158V59.5575H59.3985V65.1583L55.566 61.1439V64.8345H54.7563Z" fill="white"/>
<path d="M62.0435 59.5575L63.5118 63.2374L64.9908 59.5575H65.8652L63.5118 65.1798L61.1691 59.5575H62.0435Z" fill="white"/>
<path d="M70.5506 60.3129H68.4454V61.651H70.4858V62.4172H68.4454V64.0791H70.5506V64.8345H67.6357V59.5575H70.5506V60.3129Z" fill="white"/>
<path d="M74.9876 60.723C74.9445 60.6043 74.8689 60.4963 74.7501 60.3884C74.5882 60.2589 74.4047 60.1942 74.178 60.1942C73.6922 60.1942 73.4331 60.4856 73.4331 60.8309C73.4331 60.9927 73.487 61.2625 74.0052 61.4676L74.5342 61.6834C75.5058 62.0827 75.7757 62.633 75.7757 63.2374C75.7757 64.241 75.0632 64.9316 74.07 64.9316C73.4654 64.9316 73.0984 64.705 72.8285 64.4028C72.5478 64.0899 72.4183 63.7338 72.3859 63.3776L73.1848 63.205C73.1848 63.464 73.2819 63.7122 73.4115 63.874C73.5626 64.0683 73.7785 64.187 74.1024 64.187C74.599 64.187 74.9769 63.8309 74.9769 63.3021C74.9769 62.7733 74.5666 62.5467 74.2211 62.3956L73.7137 62.1798C73.2819 61.9963 72.6342 61.6294 72.6342 60.8417C72.6342 60.1294 73.1847 59.4496 74.178 59.4496C74.7501 59.4496 75.074 59.6654 75.236 59.8057C75.3763 59.9352 75.5274 60.1186 75.6354 60.3345L74.9876 60.7122V60.723Z" fill="white"/>
<path d="M79.2089 60.3129V64.8345H78.3992V60.3129H77.1901V59.5575H80.418V60.3129H79.2089Z" fill="white"/>
<path d="M82.0806 64.8346L83.1925 59.1583L85.0278 63.259L86.8739 59.1583L87.8779 64.8346H87.0574L86.5176 61.6511L84.9738 65.0828L83.4624 61.6511L82.901 64.8346H82.0806Z" fill="white"/>
<path d="M93.0058 60.3129H90.9006V61.651H92.941V62.4172H90.9006V64.0791H93.0058V64.8345H90.0909V59.5575H93.0058V60.3129Z" fill="white"/>
<path d="M95.165 64.8345V59.2014L98.9975 63.2158V59.5575H99.8072V65.1583L95.9747 61.1439V64.8345H95.165Z" fill="white"/>
<path d="M103.64 60.3129V64.8345H102.841V60.3129H101.621V59.5575H104.86V60.3129H103.64Z" fill="white"/>
<path d="M27.3674 69.3022C26.7844 68.7734 26.2338 68.7195 25.9315 68.7195C24.7872 68.7195 24.0099 69.572 24.0099 70.7267C24.0099 71.8813 24.8196 72.7015 25.9423 72.7015C26.5793 72.7015 27.0651 72.3777 27.3674 72.0864V73.0468C26.8384 73.3597 26.277 73.4461 25.9207 73.4461C24.9599 73.4461 24.3661 73.0144 24.0531 72.7231C23.4377 72.1403 23.2002 71.4713 23.2002 70.7267C23.2002 69.7554 23.5996 69.0756 24.0531 68.6655C24.6037 68.1475 25.2298 67.9749 25.9639 67.9749C26.4497 67.9749 26.914 68.0612 27.3782 68.3525V69.3022H27.3674Z" fill="white"/>
<path d="M33.5749 70.705C33.5749 69.5287 32.7652 68.7086 31.6317 68.7086C30.4981 68.7086 29.6884 69.5287 29.6884 70.705C29.6884 71.8813 30.4981 72.7014 31.6317 72.7014C32.7652 72.7014 33.5749 71.8813 33.5749 70.705ZM34.3846 70.705C34.3846 72.259 33.2186 73.446 31.6317 73.446C30.0447 73.446 28.8895 72.259 28.8895 70.705C28.8895 69.151 30.0555 67.964 31.6317 67.964C33.2078 67.964 34.3846 69.151 34.3846 70.705Z" fill="white"/>
<path d="M37.1591 70.4892H37.4074C37.6233 70.4892 38.5302 70.4676 38.5302 69.6259C38.5302 68.8813 37.8285 68.8058 37.429 68.8058H37.1483V70.4784L37.1591 70.4892ZM37.2887 68.0612C37.9256 68.0612 38.3467 68.1367 38.6813 68.3741C39.2643 68.7626 39.3075 69.3885 39.3075 69.6151C39.3075 70.3705 38.8433 70.9317 38.1415 71.0827L39.7933 73.3381H38.8217L37.3103 71.1799H37.1699V73.3381H36.3602V68.0612H37.2995H37.2887Z" fill="white"/>
<path d="M42.3411 70.4568H42.7082C43.4099 70.4568 43.7338 70.1115 43.7338 69.6259C43.7338 69.3345 43.615 68.8058 42.6974 68.8058H42.3411V70.4568ZM42.6974 68.0612C43.0212 68.0612 43.4747 68.0935 43.8525 68.3417C44.2952 68.6331 44.5111 69.1403 44.5111 69.6259C44.5111 69.9389 44.4355 70.4137 43.9929 70.7806C43.5718 71.1367 43.086 71.1907 42.6974 71.1907H42.3303V73.3381H41.5206V68.0612H42.6866H42.6974Z" fill="white"/>
<path d="M50.7186 70.705C50.7186 69.5287 49.909 68.7086 48.7754 68.7086C47.6418 68.7086 46.8321 69.5287 46.8321 70.705C46.8321 71.8813 47.6418 72.7014 48.7754 72.7014C49.909 72.7014 50.7186 71.8813 50.7186 70.705ZM51.5283 70.705C51.5283 72.259 50.3624 73.446 48.7754 73.446C47.1884 73.446 46.0225 72.259 46.0225 70.705C46.0225 69.151 47.1884 67.964 48.7754 67.964C50.3624 67.964 51.5283 69.151 51.5283 70.705Z" fill="white"/>
<path d="M54.2921 70.4892H54.5404C54.7563 70.4892 55.6632 70.4676 55.6632 69.6259C55.6632 68.8813 54.9615 68.8058 54.562 68.8058H54.2813V70.4784L54.2921 70.4892ZM54.4325 68.0612C55.0694 68.0612 55.4905 68.1367 55.8251 68.3741C56.4081 68.7626 56.4513 69.3885 56.4513 69.6151C56.4513 70.3705 55.9871 70.9317 55.2853 71.0827L56.9371 73.3381H55.9655L54.4541 71.1799H54.3137V73.3381H53.504V68.0612H54.4433H54.4325Z" fill="white"/>
<path d="M61.4497 71.3093L60.6616 69.518L59.8411 71.3093H61.4389H61.4497ZM61.7736 72.0647H59.5173L58.9343 73.3381H58.0598L60.6832 67.7482L63.1878 73.3381H62.3134L61.7628 72.0647H61.7736Z" fill="white"/>
<path d="M65.9624 68.8273V73.3381H65.1527V68.8273H63.9436V68.0612H67.1716V68.8273H65.9624Z" fill="white"/>
<path d="M69.6438 68.0612H68.8341V73.3381H69.6438V68.0612Z" fill="white"/>
<path d="M76.294 70.705C76.294 69.5287 75.4843 68.7086 74.3507 68.7086C73.2172 68.7086 72.4075 69.5287 72.4075 70.705C72.4075 71.8813 73.2172 72.7014 74.3507 72.7014C75.4843 72.7014 76.294 71.8813 76.294 70.705ZM77.1036 70.705C77.1036 72.259 75.9377 73.446 74.3507 73.446C72.7637 73.446 71.5978 72.259 71.5978 70.705C71.5978 69.151 72.7637 67.964 74.3507 67.964C75.9377 67.964 77.1036 69.151 77.1036 70.705Z" fill="white"/>
<path d="M79.0685 73.3382V67.7051L82.901 71.7195V68.0612H83.7107V73.6619L79.8782 69.6583V73.3382H79.0685Z" fill="white"/>
<path d="M11.6487 1.16523C11.422 3.19401 11.5191 50.8271 11.7566 51.5717C11.9078 51.5933 12.0697 51.6257 12.2316 51.6257C15.2113 51.6257 18.1909 51.6796 21.1706 51.6041C23.0598 51.5609 24.8627 51.0429 26.5253 50.0933C28.7708 48.7875 30.347 46.8559 31.5022 44.5789C33.4238 40.7911 34.1579 36.6796 34.5574 32.5141C34.8273 29.6544 34.946 26.7839 34.7841 23.9026C34.6653 21.6365 34.6006 19.3595 34.3415 17.1041C33.996 14.1041 33.2187 11.2012 31.7721 8.51415C30.8004 6.7012 29.6561 4.99617 28.0691 3.67962C25.9315 1.88825 23.3405 1.2084 20.62 1.12207C17.9102 1.03574 15.1897 1.10048 12.48 1.10048C12.2209 1.10048 11.9618 1.14365 11.6487 1.16523ZM0.0431832 52.5861V51.6688H3.81092C3.95126 51.5393 3.97286 51.5177 3.99445 51.4962C4.01604 51.4746 4.04843 51.4422 4.04843 51.4098C4.08081 51.2803 4.124 51.1508 4.124 51.0213C4.124 34.6508 4.124 18.2695 4.124 1.89905C4.124 1.73717 4.10241 1.56451 4.07002 1.40264C4.07002 1.33789 4.01604 1.28394 3.92967 1.12207H0.0647748C0.0431832 0.744369 0.0215916 0.453002 0 0.161635C0.12955 0.096887 0.215916 0.0321388 0.302283 0.0321388C0.572178 0.010556 0.831277 0.010556 1.10117 0.010556C7.13603 0.010556 13.1601 -0.0218181 19.1949 0.0213474C21.8399 0.0429301 24.4525 0.431419 26.9787 1.30552C33.1539 3.44221 37.4399 7.61847 40.1064 13.5213C41.6178 16.8451 42.3627 20.3523 42.5895 23.9998C42.8701 28.748 42.4599 33.4206 41.0888 37.9746C39.9121 41.8918 37.9581 45.3559 34.7625 48.0213C32.1067 50.2444 29.0083 51.5177 25.6292 52.1436C23.7832 52.489 21.9155 52.5861 20.037 52.5861C13.7754 52.5753 7.51388 52.5861 1.24152 52.5861H0.0431832Z" fill="white"/>
<path d="M104.611 36.8201V52.4784H103.068C102.398 51.0539 101.696 49.5647 100.952 47.9784C100.563 48.2266 100.261 48.4316 99.9584 48.6151C98.285 49.5971 96.644 50.6223 94.9383 51.5395C93.686 52.2086 92.2717 52.4568 90.8683 52.5323C87.2085 52.7158 83.5919 52.4136 80.0833 51.205C74.8905 49.4136 71.2091 45.982 68.8988 41.0395C67.4414 37.9208 66.6425 34.6187 66.3186 31.1978C66.1351 29.2985 65.9408 27.3992 65.9732 25.5C66.0703 19.3489 67.7977 13.6942 71.5978 8.78413C74.8149 4.64024 78.8957 1.73737 84.0669 0.517942C87.921 -0.388533 91.7104 -0.0540008 95.4133 1.27334C96.9571 1.8237 98.4469 2.51434 99.9584 3.12945C100.261 3.25895 100.574 3.37765 100.984 3.53952C101.405 2.79492 101.815 2.0719 102.204 1.35967C102.679 0.496359 103.463 0.125855 104.557 0.248158V14.1043C104.331 14.1259 104.115 14.1582 103.888 14.169C103.661 14.169 103.424 14.1474 103.132 14.1259C102.798 13.2518 102.463 12.3777 102.118 11.5143C101.75 10.5863 101.383 9.64744 100.984 8.73017C99.3538 4.98557 96.4713 2.74096 92.5632 1.78053C89.9614 1.14384 87.3381 1.16542 84.7039 1.67262C82.264 2.13665 80.4395 3.47478 78.9929 5.4496C76.3587 9.04312 74.8905 13.0359 74.4371 17.482C74.0376 21.4964 73.9944 25.5 74.1348 29.5143C74.2859 33.5935 74.7394 37.651 76.0996 41.5359C76.9417 43.9316 78.0753 46.1438 79.9213 47.9352C82.0589 50.0179 84.6607 51.0108 87.5864 51.2266C92.7791 51.6259 96.4821 49.1762 99.3214 45.0755C100.8 42.9388 101.826 40.5863 102.711 38.1582C102.765 37.9964 102.83 37.8453 102.884 37.6834C103.294 36.6043 103.305 36.5935 104.601 36.8093" fill="white"/>
<path d="M50.5676 0.938824H46.6919C46.6595 0.604291 46.6379 0.366881 46.6163 0.0323486H62.1515V0.938824H58.1786C58.1355 1.41364 58.0815 1.76976 58.0815 2.12587C58.0815 18.2266 58.0815 34.3273 58.0815 50.428C58.0815 50.5575 58.0815 50.6978 58.0815 50.8273C58.0599 51.3345 58.2974 51.5611 58.8048 51.5503C59.6793 51.5503 60.5429 51.5503 61.4174 51.5503C61.6441 51.5503 61.8708 51.5935 62.1515 51.6151V52.4568H46.6919C46.6811 52.2086 46.6703 51.9388 46.6487 51.5395H50.5892V0.938824H50.5676Z" fill="white"/>
<path d="M105 77.0179H0.48584V78H105V77.0179Z" fill="white"/>
</g>
<defs>
<clipPath id="clip0_118_3650">
<rect width="105" height="78" fill="white"/>
</clipPath>
</defs>
</svg>
