<svg width="98" height="27" viewBox="0 0 98 27" fill="none" xmlns="http://www.w3.org/2000/svg">
<g clip-path="url(#clip0_104_936)">
<path d="M64.6181 19.6255C65.6335 19.6275 66.6266 19.328 67.4717 18.7651C68.3168 18.2022 68.9758 17.4011 69.3653 16.4634C69.7547 15.5256 69.8572 14.4934 69.6595 13.4974C69.4619 12.5014 68.9732 11.5865 68.2551 10.8684C67.5371 10.1504 66.6222 9.66168 65.6262 9.46406C64.6302 9.26644 63.598 9.36885 62.6602 9.75832C61.7225 10.1478 60.9214 10.8068 60.3585 11.6519C59.7956 12.497 59.4961 13.4901 59.4981 14.5055C59.4981 15.8643 60.0372 17.1676 60.9971 18.1294C61.957 19.0911 63.2592 19.6327 64.6181 19.6353" fill="#0E1931"/>
<path d="M58.9108 0.799988C56.5074 1.82703 54.417 3.46897 52.8498 5.56059C51.2826 7.65221 50.2939 10.1197 49.9833 12.7148C49.6727 15.3099 50.0511 17.941 51.0803 20.3434C52.1096 22.7458 53.7535 24.8347 55.8466 26.4H44.4221V7.59402H36.5903V0.799988H58.9108Z" fill="#0E1931"/>
<path d="M0.877441 26.4V0.799988H23.3839L21.3477 7.59402H9.58046V10.1981H20.6722L18.4107 17.0019H9.58046V19.606H17.7255L15.6892 26.4H0.877441Z" fill="#0E1931"/>
<path d="M29.4341 13.6146H33.9569L31.6955 6.13531L29.4341 13.6146Z" fill="#0E1931"/>
<path d="M27.6229 19.557H35.6505L37.8042 26.3608H25.5867L27.6229 19.557Z" fill="#0E1931"/>
<path d="M72.3618 26.4V0.799988H84.2367L89.5525 16.5418V0.799988H97.2374V26.4H85.1373L80.0467 10.7659V26.4H72.3618Z" fill="#0E1931"/>
</g>
<defs>
<clipPath id="clip0_104_936">
<rect width="96.3598" height="25.6" fill="white" transform="translate(0.877441 0.799988)"/>
</clipPath>
</defs>
</svg>
