<svg width="229" height="82" viewBox="0 0 229 82" fill="none" xmlns="http://www.w3.org/2000/svg">
<path d="M0 68.6289H3.2059L6.78063 78.7857H6.809L10.2986 68.6289H13.4478V81.5944H11.2916V71.6078H11.2632L7.66013 81.5944H5.78765L2.21292 71.6078H2.15618V81.5944H0V68.6289Z" fill="white"/>
<path d="M16.1996 68.6289H25.5336V70.5865H18.4693V73.991H24.9945V75.8351H18.4693V79.6368H25.6471V81.5944H16.1996V68.6289Z" fill="white"/>
<path d="M29.9028 79.7503H32.1441C33.0236 79.7503 33.7613 79.6368 34.3003 79.4098C34.8677 79.1829 35.2933 78.8424 35.6338 78.4168C35.9458 77.9913 36.1728 77.509 36.2863 76.9416C36.3998 76.3741 36.4565 75.7784 36.4565 75.1258C36.4565 74.4733 36.3998 73.8775 36.2863 73.3101C36.1728 72.7427 35.9458 72.2604 35.6338 71.8348C35.3217 71.4092 34.8677 71.0972 34.3003 70.8418C33.7329 70.6149 33.0236 70.5014 32.1441 70.5014H29.9028V79.7786V79.7503ZM27.6332 68.6289H32.9953C33.9882 68.6289 34.8394 68.7991 35.577 69.1396C36.2863 69.48 36.8821 69.934 37.3644 70.5298C37.8467 71.1255 38.1588 71.8064 38.3857 72.6008C38.6127 73.3952 38.7262 74.218 38.7262 75.1258C38.7262 76.0337 38.6127 76.8564 38.3857 77.6508C38.1588 78.4452 37.8183 79.1261 37.3644 79.7219C36.9104 80.3177 36.3147 80.7716 35.577 81.1121C34.8394 81.4525 33.9882 81.6227 32.9953 81.6227H27.6332V68.6573V68.6289Z" fill="white"/>
<path d="M43.0105 68.6289H40.7408V81.5944H43.0105V68.6289Z" fill="white"/>
<path d="M48.4577 76.4309H52.4296L50.5004 70.8702H50.4436L48.486 76.4309H48.4577ZM49.2521 68.6289H51.6636L56.6568 81.5944H54.217L52.997 78.1615H47.8335L46.6136 81.5944H44.2588L49.2237 68.6289H49.2521Z" fill="white"/>
<path d="M67.0684 69.8777C66.6712 69.8777 66.3591 70.0196 66.0754 70.2749C65.82 70.5303 65.6782 70.8707 65.6782 71.3246C65.6782 71.5516 65.7066 71.7502 65.7917 71.9204C65.8768 72.119 65.9619 72.2892 66.0754 72.4595C66.1889 72.6297 66.3023 72.7999 66.4442 72.9701C66.5861 73.1404 66.7279 73.3106 66.8414 73.4525C67.04 73.3106 67.2386 73.1971 67.4088 73.0553C67.579 72.9134 67.7493 72.7716 67.8911 72.6013C68.033 72.4311 68.1465 72.2609 68.2316 72.0339C68.3167 71.8353 68.345 71.6083 68.345 71.353C68.345 70.9274 68.2316 70.587 67.9762 70.2749C67.7493 69.9912 67.4088 69.8494 67.0116 69.8494M66.2172 75.6086C66.0186 75.7221 65.82 75.864 65.5931 75.9775C65.3661 76.0909 65.1391 76.2612 64.9405 76.4314C64.742 76.6016 64.5717 76.8286 64.4299 77.0839C64.288 77.3393 64.2313 77.6513 64.2313 78.0485C64.2313 78.7578 64.4299 79.2968 64.8271 79.6657C65.2243 80.0345 65.7066 80.2331 66.3307 80.2331C66.6995 80.2331 67.04 80.1763 67.2953 80.0629C67.5507 79.9494 67.7776 79.8359 67.9762 79.694C68.1748 79.5522 68.3167 79.382 68.4585 79.2117C68.6004 79.0415 68.6855 78.8997 68.799 78.7578L66.2456 75.6086H66.2172ZM69.8771 80.148C69.3948 80.7438 68.8557 81.1693 68.2599 81.453C67.6641 81.7367 67.0116 81.8502 66.2456 81.8502C65.6498 81.8502 65.1108 81.7651 64.6001 81.5949C64.0894 81.4247 63.6639 81.1693 63.295 80.8289C62.9262 80.4884 62.6425 80.0912 62.4439 79.6373C62.2453 79.155 62.1318 78.6159 62.1318 78.0202C62.1318 77.5662 62.2169 77.1407 62.3872 76.7718C62.5574 76.403 62.7844 76.0626 63.0681 75.7505C63.3518 75.4384 63.6639 75.1547 64.0327 74.9277C64.4015 74.6724 64.7703 74.4738 65.1391 74.2752C64.9689 74.0482 64.7987 73.8496 64.6568 73.6227C64.4866 73.3957 64.3731 73.1971 64.2313 72.9701C64.1178 72.7432 64.0043 72.4878 63.9476 72.2325C63.8625 71.9772 63.8341 71.7218 63.8341 71.4381C63.8341 70.9558 63.9192 70.5303 64.0894 70.1614C64.2596 69.7926 64.4866 69.4522 64.7703 69.1968C65.054 68.9131 65.3945 68.7145 65.7917 68.5727C66.1889 68.4308 66.5861 68.3457 67.0116 68.3457C67.4372 68.3457 67.8344 68.4024 68.2316 68.5443C68.6288 68.6862 68.9692 68.8564 69.2529 69.1401C69.565 69.3954 69.792 69.7359 69.9622 70.1047C70.1324 70.5019 70.2459 70.9558 70.2459 71.4665C70.2459 71.8637 70.1892 72.2041 70.0473 72.5446C69.9338 72.885 69.7636 73.1687 69.5366 73.4525C69.3097 73.7362 69.0827 73.9631 68.799 74.1901C68.5153 74.4171 68.2032 74.6157 67.8911 74.7575L69.9054 77.1974C69.9906 76.9988 70.0473 76.7435 70.1324 76.4881C70.2175 76.2328 70.2743 75.864 70.3026 75.4668H72.1184C72.0616 76.0342 71.9481 76.6016 71.7779 77.1407C71.6077 77.6797 71.3807 78.1904 71.097 78.6443L73.5937 81.6516H71.0403L69.8487 80.2047L69.8771 80.148Z" fill="white"/>
<path d="M79.7791 68.6289H89.1131V70.5865H82.0487V73.991H88.6024V75.8351H82.0487V79.6368H89.2549V81.5944H79.7791V68.6289Z" fill="white"/>
<path d="M91.1274 68.6289H93.539L99.4685 78.1899H99.4968V68.6289H101.653V81.5944H99.2699L93.3404 72.0618H93.312V81.5944H91.1274V68.6289Z" fill="white"/>
<path d="M103.099 68.6289H113.596V70.5865H109.482V81.5944H107.213V70.5865H103.099V68.6289Z" fill="white"/>
<path d="M115.101 68.6289H124.463V70.5865H117.37V73.991H123.924V75.8351H117.37V79.6368H124.577V81.5944H115.101V68.6289Z" fill="white"/>
<path d="M128.832 74.53H132.549C133.286 74.53 133.825 74.3598 134.194 74.0194C134.563 73.6789 134.762 73.1682 134.762 72.459C134.762 72.0618 134.705 71.7213 134.591 71.466C134.478 71.2107 134.308 71.0121 134.081 70.8418C133.882 70.7 133.627 70.6149 133.343 70.5581C133.059 70.5014 132.804 70.473 132.492 70.473H128.804V74.53H128.832ZM126.563 68.6289H132.747C134.166 68.6289 135.244 68.941 135.953 69.5651C136.663 70.1893 137.031 71.0404 137.031 72.1469C137.031 72.771 136.946 73.2817 136.748 73.6789C136.577 74.0761 136.35 74.4166 136.124 74.6719C135.868 74.9272 135.641 75.0975 135.414 75.2109C135.187 75.3244 135.017 75.3812 134.904 75.4379C135.102 75.4946 135.301 75.5514 135.528 75.6649C135.755 75.75 135.953 75.9202 136.152 76.1188C136.35 76.3458 136.492 76.6011 136.634 76.9416C136.748 77.282 136.833 77.7076 136.833 78.2182C136.833 78.9843 136.89 79.6652 137.003 80.2893C137.117 80.9135 137.287 81.3674 137.542 81.6227H135.102C134.932 81.339 134.818 81.027 134.79 80.6865C134.762 80.3461 134.733 80.034 134.733 79.6935C134.733 79.0977 134.705 78.5871 134.62 78.1615C134.535 77.7359 134.421 77.3671 134.223 77.0834C134.024 76.7997 133.769 76.6011 133.428 76.4593C133.088 76.3174 132.662 76.2607 132.152 76.2607H128.804V81.5944H126.534V68.6289H126.563Z" fill="white"/>
<path d="M137.797 68.6289H148.295V70.5865H144.152V81.5944H141.883V70.5865H137.797V68.6289Z" fill="white"/>
<path d="M150.791 76.4309H154.763L152.834 70.8702H152.777L150.819 76.4309H150.791ZM151.585 68.6289H153.997L158.99 81.5944H156.55L155.33 78.1615H150.167L148.947 81.5944H146.592L151.557 68.6289H151.585Z" fill="white"/>
<path d="M162.508 68.6289H160.238V81.5944H162.508V68.6289Z" fill="white"/>
<path d="M165.203 68.6289H167.586L173.516 78.1899H173.544V68.6289H175.7V81.5944H173.317L167.416 72.0618H167.359V81.5944H165.203V68.6289Z" fill="white"/>
<path d="M178.368 68.6289H181.574L185.148 78.7857H185.177L188.666 68.6289H191.816V81.5944H189.659V71.6078H189.631L186.028 81.5944H184.155L180.552 71.6078H180.524V81.5944H178.368V68.6289Z" fill="white"/>
<path d="M194.539 68.6289H203.901V70.5865H196.809V73.991H203.362V75.8351H196.809V79.6368H204.015V81.5944H194.539V68.6289Z" fill="white"/>
<path d="M205.916 68.6289H208.299L214.228 78.1899H214.257V68.6289H216.413V81.5944H214.03L208.129 72.0618H208.072V81.5944H205.916V68.6289Z" fill="white"/>
<path d="M217.887 68.6289H228.384V70.5865H224.242V81.5944H221.973V70.5865H217.887V68.6289Z" fill="white"/>
<path d="M161.486 31.9173V36.2013H147.273V13.533H161.316V17.817H151.812V22.64H160.494V26.8389H151.812V31.9173H161.486Z" fill="white"/>
<path d="M179.559 31.9173V36.2013H166.31V13.533H170.821V31.9173H179.559Z" fill="white"/>
<path d="M181.318 24.8532C181.318 18.2145 186.311 13.0793 193.262 13.0793C197.461 13.0793 201.149 15.1788 203.135 18.4131L199.22 20.6544C198.113 18.64 195.872 17.4201 193.262 17.4201C188.779 17.4201 185.829 20.4841 185.829 24.8532C185.829 29.2223 188.779 32.258 193.262 32.258C195.872 32.258 198.142 31.0381 199.22 29.0521L203.135 31.2934C201.206 34.5277 197.489 36.6271 193.262 36.6271C186.311 36.6271 181.318 31.4636 181.318 24.8532Z" fill="white"/>
<path d="M223.987 24.8532C223.987 20.4841 220.753 17.4201 216.583 17.4201C212.412 17.4201 209.178 20.4841 209.178 24.8532C209.178 29.2223 212.412 32.258 216.583 32.258C220.753 32.258 223.987 29.194 223.987 24.8532ZM204.695 24.8532C204.695 18.2145 209.972 13.0793 216.583 13.0793C223.193 13.0793 228.527 18.2145 228.527 24.8532C228.527 31.492 223.221 36.6271 216.583 36.6271C209.944 36.6271 204.695 31.4636 204.695 24.8532Z" fill="white"/>
<path d="M25.4203 21.959H0V27.6616H25.3068C25.6756 30.7256 26.47 33.3641 27.6048 36.2295H0V41.9321H31.3781C36.4565 47.6063 43.2371 50.8689 50.9824 50.8689C56.2594 50.8689 60.7703 49.3936 65.2245 46.6416C69.6788 49.3936 74.1897 50.8689 79.4667 50.8689C87.2119 50.8689 93.9926 47.6063 99.0709 41.9321H129.768V36.2295H102.844C104.007 33.3641 104.773 30.7256 105.142 27.6616H129.768V21.959H105C104.461 18.9233 103.554 16.3132 102.277 13.5045H129.768V7.80198H98.0496C93.028 2.80871 86.6729 0 79.4667 0C74.1897 0 69.6788 1.47528 65.2245 4.22725C60.7703 1.47528 56.2877 0 50.9824 0C43.7762 0 37.4495 2.80871 32.3995 7.80198H0V13.5045H28.1439C26.8672 16.3132 25.9593 18.9233 25.4203 21.959ZM71.0973 7.4899C73.6507 6.3267 76.4594 5.70254 79.4383 5.70254C90.4746 5.70254 99.4398 14.5259 99.4398 25.4486C99.4398 36.3714 90.503 45.1947 79.4383 45.1947C75.7785 45.1947 73.1116 44.3152 69.849 42.84C74.2465 37.6481 76.7431 32.3711 76.7431 25.477C76.7431 18.5829 74.2465 13.3059 69.849 8.11406L71.0973 7.54664V7.4899ZM59.4653 25.4203C59.4653 19.8312 61.5647 15.6323 65.2245 11.5186C68.8844 15.6323 70.9838 19.8312 70.9838 25.4203C70.9838 31.0093 68.8844 35.2082 65.2245 39.322C61.5647 35.2082 59.4653 31.0093 59.4653 25.4203ZM53.6776 25.4203C53.6776 32.3144 56.1742 37.5914 60.5717 42.7832C57.3091 44.2585 54.6422 45.138 50.9824 45.138C39.9461 45.138 30.9809 36.3147 30.9809 25.3919C30.9809 14.4691 39.9178 5.6458 50.9824 5.6458C54.6422 5.6458 57.3091 6.52529 60.5717 8.00057C56.1742 13.1924 53.6776 18.4694 53.6776 25.3635" fill="white"/>
</svg>
