<svg width="136" height="44" viewBox="0 0 136 44" fill="none" xmlns="http://www.w3.org/2000/svg">
<g clip-path="url(#clip0_4007_849)">
<path d="M43.4145 34.8087H39.3367V29.7115H43.4145C44.7763 29.7115 45.8891 30.8555 45.8891 32.2562C45.8891 33.657 44.7763 34.8009 43.4145 34.8009V34.8087ZM43.4145 27.2446H36.8621V43.0264H39.3367V37.2834H43.4145C46.1459 37.2834 48.3638 35.0344 48.3638 32.264C48.3638 29.4936 46.1459 27.2446 43.4145 27.2446Z" fill="#01ED54"/>
<path d="M58.1769 29.4781C55.0019 29.4781 52.4183 32.0617 52.4183 35.2367C52.4183 38.4118 55.0019 40.9954 58.1769 40.9954C61.3519 40.9954 63.9356 38.4118 63.9356 35.2367C63.9356 32.0617 61.3519 29.4781 58.1769 29.4781ZM58.1769 43.47C53.64 43.47 49.9436 39.7736 49.9436 35.2367C49.9436 30.6998 53.64 27.0034 58.1769 27.0034C62.7138 27.0034 66.4102 30.6998 66.4102 35.2367C66.4102 39.7736 62.7138 43.47 58.1769 43.47Z" fill="#01ED54"/>
<path d="M86.3553 27.2446H83.8262L81.297 37.5791L77.7952 27.2446H75.8886L72.5112 37.7425L69.8731 27.2446H67.5308L71.2972 43.0498H73.1882L76.9625 32.0539L80.4877 43.0498H82.3709L86.3553 27.2446Z" fill="#01ED54"/>
<path d="M99.0867 27.2291H89.009V29.7037H99.0867V27.2291Z" fill="#01ED54"/>
<path d="M99.0867 33.976H89.009V36.4507H99.0867V33.976Z" fill="#01ED54"/>
<path d="M99.0867 40.723H89.009V43.1976H99.0867V40.723Z" fill="#01ED54"/>
<path d="M108.83 34.8087H104.752V29.7115H108.83C110.192 29.7115 111.304 30.8555 111.304 32.2562C111.304 33.657 110.192 34.8009 108.83 34.8009V34.8087ZM113.771 32.264C113.771 29.4936 111.553 27.2446 108.822 27.2446H102.27V43.0264H104.744V37.2834H108.059L110.985 43.112H113.756L110.651 36.9332C112.479 36.1939 113.771 34.3807 113.771 32.2718V32.264Z" fill="#01ED54"/>
<path d="M0.100098 13.5017C0.100098 6.04658 6.1389 0 13.6018 0C15.5395 0 17.3916 0.412444 19.0569 1.15173L11.4151 5.01158C11.4151 5.01158 9.93649 5.79756 9.54739 6.70026C9.18942 7.5018 9.16608 8.11658 9.45401 8.94147L27.1268 0.108947C27.1268 0.108947 27.5471 2.34237 26.9245 3.51744C26.4498 4.42793 25.0335 5.3462 25.0335 5.3462L10.9326 12.2332C10.9326 12.2332 10.0454 12.7624 9.71081 13.2916C9.17386 14.1242 9.10382 14.8947 9.45401 15.8129L27.4848 7.30726C27.4848 7.30726 27.9206 9.67297 27.1035 10.7547C26.6599 11.3461 25.5938 11.8908 25.5938 11.8908L11.2127 18.8168C11.2127 18.8168 9.94427 19.5016 9.55517 20.272C9.14273 21.0969 9.1116 21.7817 9.44623 22.6377L27.0801 14.1943C26.7222 21.3303 20.8234 27.0112 13.6018 27.0112C6.38014 27.0112 0.100098 20.9646 0.100098 13.5017Z" fill="white"/>
<path d="M105.499 5.74304H92.4329V8.9959H105.499V5.74304Z" fill="white"/>
<path d="M124.401 5.73535H133.102C135.055 5.73535 135.273 7.28396 135.273 8.98821H122.285C122.285 7.05828 122.222 5.73535 124.401 5.73535Z" fill="white"/>
<path d="M100.69 11.6573H97.0322V21.2292H100.69V11.6573Z" fill="white"/>
<path d="M122.285 11.6573V21.2292H125.413V15.4861H131.88V21.2292H135.063V11.6573H122.285Z" fill="white"/>
<path d="M51.0952 5.73535H54.5737V18.0153H61.1495V21.1825H51.0952V5.73535Z" fill="white"/>
<path d="M71.702 11.7274H63.1963V15.2371H71.702V11.7274Z" fill="white"/>
<path d="M45.2122 11.7274H36.7065V15.2371H45.2122V11.7274Z" fill="white"/>
<path d="M77.2117 8.9959H90.0286V5.74304H80.5968C78.1066 5.74304 77.2117 7.61071 77.2117 8.9959Z" fill="white"/>
<path d="M77.3205 16.1631V11.6573H80.6512V17.9685H89.5148V21.2214H81.0014C77.0014 21.2214 77.3205 17.9607 77.3205 16.1553" fill="white"/>
<path d="M117.795 5.78979H109.141C107.655 5.78979 106.993 6.24115 106.993 8.66134V21.2292H110.705V8.98818H119.849C119.849 8.98818 120.254 5.78979 117.795 5.78979Z" fill="white"/>
<path d="M119.849 11.6573C119.849 11.6573 120.09 13.7273 118.666 14.4044C117.779 14.8246 116.145 14.6301 116.145 14.6301L119.724 21.2292H115.693C115.693 21.2292 113.265 17.2137 112.526 15.6028C111.522 13.4394 112.013 11.6651 114.627 11.6651H119.841L119.849 11.6573Z" fill="white"/>
<path d="M63.1263 18.132H75.3206V21.3848H65.2897C62.7994 21.3848 63.1185 19.5171 63.1185 18.132" fill="white"/>
<path d="M63.1263 9.15154H75.3206V5.89868H65.2897C62.7994 5.89868 63.1185 7.76635 63.1185 9.15154" fill="white"/>
<path d="M36.6441 18.132H48.8384V21.3848H38.8075C36.3173 21.3848 36.6363 19.5171 36.6363 18.132" fill="white"/>
<path d="M36.6441 9.15154H48.8384V5.89868H38.8075C36.3173 5.89868 36.6363 7.76635 36.6363 9.15154" fill="white"/>
</g>
<defs>
<clipPath id="clip0_4007_849">
<rect width="135.173" height="43.47" fill="white" transform="translate(0.100098)"/>
</clipPath>
</defs>
</svg>
