<svg width="271" height="69" viewBox="0 0 271 69" fill="none" xmlns="http://www.w3.org/2000/svg">
<path d="M0.027337 27.0645C0.027337 12.1258 12.1257 0 27.0918 0C30.9971 0 34.684 0.819308 38.0432 2.29406L22.7222 10.0229C22.7222 10.0229 19.7727 11.6069 18.9807 13.4094C18.2706 15.0207 18.216 16.2496 18.7895 17.9156L54.211 0.191172C54.211 0.191172 55.0576 4.67006 53.8013 7.01874C52.8454 8.84853 50.0051 10.6783 50.0051 10.6783L21.7391 24.4973C21.7391 24.4973 19.9638 25.5624 19.2811 26.6275C18.216 28.2935 18.0521 29.8228 18.7622 31.6799L54.8938 14.611C54.8938 14.611 55.7676 19.363 54.129 21.5205C53.2551 22.6949 51.0976 23.7873 51.0976 23.7873L22.258 37.6609C22.258 37.6609 19.718 39.0264 18.9533 40.5831C18.134 42.249 18.0521 43.6145 18.7348 45.3351L54.0743 28.4027C53.3643 42.7133 41.539 54.1017 27.0646 54.1017C12.5901 54.1017 0 41.9759 0 27.0372" fill="white"/>
<path d="M90.4524 23.4872H73.4108V30.5332H90.4524V23.4872Z" fill="white"/>
<path d="M211.3 11.4976H185.109V18.0247H211.3V11.4976Z" fill="white"/>
<path d="M249.206 11.4976H266.63C270.536 11.4976 270.973 14.6109 270.973 18.0247H244.946C244.946 14.1467 244.809 11.4976 249.179 11.4976" fill="white"/>
<path d="M201.659 23.3505H194.34V42.5223H201.659V23.3505Z" fill="white"/>
<path d="M244.946 42.5496V23.3505H270.563V42.5496H264.2V31.0247H251.227V42.5496H244.946Z" fill="white"/>
<path d="M102.25 11.4976H109.241V36.1041H122.405V42.4401H102.25V11.4976Z" fill="white"/>
<path d="M143.543 23.4871H126.501V30.5332H143.543V23.4871Z" fill="white"/>
<path d="M154.604 18.0247H180.303V11.4976H161.404C156.406 11.4976 154.604 15.2391 154.604 18.0247Z" fill="white"/>
<path d="M154.822 32.3902V23.3505H161.486V36.0224H179.265V42.5496H162.196C154.167 42.5496 154.822 36.0224 154.822 32.3902Z" fill="white"/>
<path d="M235.961 11.5796H218.619C215.642 11.5796 214.304 12.4808 214.304 17.3421V42.5222H221.732V17.9975H240.058C240.058 17.9975 240.85 11.5796 235.934 11.5796" fill="white"/>
<path d="M240.058 23.3505C240.058 23.3505 240.55 27.5016 237.682 28.8398C235.907 29.6865 232.629 29.3041 232.629 29.3041L239.812 42.5223H231.728C231.728 42.5223 226.867 34.4657 225.365 31.2431C223.344 26.9008 224.327 23.3505 229.571 23.3505H240.031" fill="white"/>
<path d="M126.393 36.3502H150.835V42.8774H130.735C125.737 42.8774 126.393 39.1359 126.393 36.3502Z" fill="white"/>
<path d="M126.393 18.3528H150.835V11.8256H130.735C125.737 11.8256 126.393 15.5671 126.393 18.3528Z" fill="white"/>
<path d="M73.301 36.3502H97.7438V42.8774H77.6433C72.6455 42.8774 73.301 39.1359 73.301 36.3502Z" fill="white"/>
<path d="M73.301 18.3528H97.7438V11.8256H77.6433C72.6455 11.8256 73.301 15.5671 73.301 18.3528Z" fill="white"/>
<path d="M270.973 65.7905H263.408V62.5952H268.979V60.5196H263.408V57.6248H270.809V55.5219H261.004V67.8934H271V65.7905H270.973ZM254.368 67.8934V57.6794H259.284V55.5219H247.076V57.6794H251.91V67.8934H254.368ZM245.219 67.8934H247.841L242.87 55.5219H240.112L235.196 67.8934H237.654L238.801 64.862H243.99L245.165 67.8934H245.219ZM241.368 58.1983H241.45L243.28 62.9503H239.566L241.368 58.1983ZM231.072 67.8934V57.6794H235.988V55.5219H223.781V57.6794H228.642V67.8934H231.1H231.072ZM212.31 65.6267C213.457 67.1834 215.587 68.1392 218.155 68.1392C221.05 68.1392 223.371 66.801 223.371 64.3977C223.371 62.3221 222.005 61.339 219.684 60.8474L217.117 60.3012C216.134 60.0827 215.424 59.8096 215.424 58.9357C215.424 57.9252 216.407 57.3243 217.772 57.3243C219.52 57.3243 220.667 58.171 221.323 59.2907L222.989 57.6794C221.896 56.3139 220.176 55.3307 217.772 55.3307C214.877 55.3307 212.938 56.8601 212.938 59.0995C212.938 61.1751 214.44 62.131 216.325 62.5133L219.11 63.0868C220.148 63.3326 220.913 63.6057 220.913 64.5343C220.913 65.6267 219.739 66.1729 218.155 66.1729C216.434 66.1729 214.768 65.3809 213.867 63.8788L212.31 65.654V65.6267ZM211.6 65.7905H204.035V62.5952H209.606V60.5196H204.035V57.6248H211.436V55.5219H201.632V67.8934H211.627V65.7905H211.6ZM185.601 55.5219V67.8934H195.378V65.7359H188.086V55.5219H185.628H185.601ZM181.613 67.8934H184.235L179.265 55.5219H176.506L171.591 67.8934H174.076L175.223 64.862H180.412L181.586 67.8934H181.613ZM177.763 58.1983H177.845L179.702 62.9503H175.96L177.763 58.1983ZM170.744 65.7905H163.179V62.5952H168.75V60.5196H163.179V57.6248H170.58V55.5219H160.776V67.8934H170.771V65.7905H170.744ZM159.164 67.8934V67.7569C158.646 67.3472 158.236 66.6918 157.908 64.7254C157.662 63.278 156.816 62.2129 155.45 61.9671C157.171 61.8578 158.618 60.6835 158.618 59.0722C158.618 56.9147 157.116 55.5219 153.975 55.5219H147.967V67.8934H150.398V62.8956H153.429C154.877 62.8956 155.477 63.7696 155.614 65.4628C155.723 66.6372 155.915 67.593 156.27 67.8934H159.164ZM150.398 57.5428H153.62C155.396 57.5428 156.16 58.1436 156.16 59.2634C156.16 60.3831 155.314 60.9839 153.539 60.9839H150.37V57.5155L150.398 57.5428Z" fill="white"/>
</svg>
