<svg width="136" height="35" viewBox="0 0 136 35" fill="none" xmlns="http://www.w3.org/2000/svg">
<path d="M0.217262 13.5125C0.217262 6.05406 6.25765 0 13.7298 0C15.6796 0 17.5204 0.409058 19.1975 1.14536L11.5482 5.00414C11.5482 5.00414 10.0756 5.79499 9.68014 6.69491C9.32562 7.4994 9.29834 8.11298 9.58468 8.94473L27.2697 0.0954468C27.2697 0.0954468 27.6923 2.33163 27.0651 3.50426C26.5879 4.41783 25.1698 5.33139 25.1698 5.33139L11.0573 12.2308C11.0573 12.2308 10.171 12.7626 9.83011 13.2944C9.29833 14.1261 9.21652 14.8897 9.57103 15.8169L27.6105 7.29487C27.6105 7.29487 28.0468 9.6674 27.2287 10.7446C26.7924 11.3309 25.7152 11.8763 25.7152 11.8763L11.3164 18.803C11.3164 18.803 10.0483 19.4848 9.66649 20.262C9.25743 21.0938 9.2165 21.7755 9.55739 22.6345L27.2014 14.1807C26.8469 21.3256 20.9429 27.0115 13.7162 27.0115C6.48952 27.0115 0.203613 20.9574 0.203613 13.4989" fill="#0D84C4"/>
<path d="M45.3639 11.7264H36.8555V15.2443H45.3639V11.7264Z" fill="white"/>
<path d="M105.7 5.74048H92.6235V8.99931H105.7V5.74048Z" fill="white"/>
<path d="M124.625 5.74048H133.325C135.275 5.74048 135.493 7.2949 135.493 8.99931H122.498C122.498 7.0631 122.43 5.74048 124.612 5.74048" fill="white"/>
<path d="M100.886 11.6582H97.2322V21.2302H100.886V11.6582Z" fill="white"/>
<path d="M122.498 21.2438V11.6582H135.288V21.2438H132.111V15.4897H125.634V21.2438H122.498Z" fill="white"/>
<path d="M51.2539 5.74036H54.7445V18.0257H61.3167V21.1891H51.2539V5.74036Z" fill="white"/>
<path d="M71.8705 11.7264H63.3621V15.2443H71.8705V11.7264Z" fill="white"/>
<path d="M77.3928 8.99919H90.2237V5.74036H80.7881C78.2928 5.74036 77.3928 7.60839 77.3928 8.99919Z" fill="white"/>
<path d="M77.5021 16.1715V11.6582H80.8291V17.985H89.7056V21.2438H81.1836C77.1748 21.2438 77.5021 17.985 77.5021 16.1715Z" fill="white"/>
<path d="M118.012 5.78137H109.354C107.868 5.78137 107.2 6.23134 107.2 8.65841V21.2301H110.908V8.98566H120.058C120.058 8.98566 120.453 5.78137 117.999 5.78137" fill="white"/>
<path d="M120.058 11.6582C120.058 11.6582 120.303 13.7308 118.872 14.3989C117.985 14.8216 116.349 14.6307 116.349 14.6307L119.935 21.2302H115.899C115.899 21.2302 113.472 17.2078 112.722 15.5988C111.713 13.4308 112.204 11.6582 114.822 11.6582H120.044" fill="white"/>
<path d="M63.3081 18.1486H75.5116V21.4074H65.476C62.9808 21.4074 63.3081 19.5394 63.3081 18.1486Z" fill="white"/>
<path d="M63.3081 9.163H75.5116V5.90417H65.476C62.9808 5.90417 63.3081 7.77221 63.3081 9.163Z" fill="white"/>
<path d="M36.8008 18.1486H49.0043V21.4074H38.9687C36.4735 21.4074 36.8008 19.5394 36.8008 18.1486Z" fill="white"/>
<path d="M36.8008 9.163H49.0043V5.90417H38.9687C36.4735 5.90417 36.8008 7.77221 36.8008 9.163Z" fill="white"/>
<path d="M135.493 32.8474H131.716V31.252H134.497V30.2158H131.716V28.7704H135.411V27.7205H130.516V33.8973H135.506V32.8474H135.493ZM127.203 33.8973V28.7977H129.657V27.7205H123.562V28.7977H125.975V33.8973H127.203ZM122.635 33.8973H123.944L121.462 27.7205H120.085L117.631 33.8973H118.858L119.43 32.3838H122.021L122.608 33.8973H122.635ZM120.712 29.0568H120.753L121.667 31.4293H119.812L120.712 29.0568ZM115.572 33.8973V28.7977H118.026V27.7205H111.931V28.7977H114.358V33.8973H115.585H115.572ZM106.204 32.7656C106.777 33.5428 107.841 34.02 109.122 34.02C110.568 34.02 111.727 33.3519 111.727 32.152C111.727 31.1157 111.045 30.6248 109.886 30.3794L108.604 30.1067C108.113 29.9976 107.759 29.8612 107.759 29.4249C107.759 28.9204 108.25 28.6204 108.931 28.6204C109.804 28.6204 110.377 29.0431 110.704 29.6022L111.536 28.7977C110.99 28.1159 110.131 27.6251 108.931 27.6251C107.486 27.6251 106.518 28.3886 106.518 29.5067C106.518 30.543 107.268 31.0202 108.209 31.2111L109.599 31.4975C110.118 31.6202 110.499 31.7565 110.499 32.2201C110.499 32.7656 109.913 33.0383 109.122 33.0383C108.263 33.0383 107.431 32.6428 106.981 31.8929L106.204 32.7792V32.7656ZM105.85 32.8474H102.073V31.252H104.854V30.2158H102.073V28.7704H105.768V27.7205H100.873V33.8973H105.863V32.8474H105.85ZM92.869 27.7205V33.8973H97.7505V32.8201H94.1098V27.7205H92.8827H92.869ZM90.8782 33.8973H92.1873L89.7056 27.7205H88.3285L85.8741 33.8973H87.1149L87.6876 32.3838H90.2783L90.8646 33.8973H90.8782ZM88.9557 29.0568H88.9966L89.9238 31.4293H88.0557L88.9557 29.0568ZM85.4514 32.8474H81.6744V31.252H84.4561V30.2158H81.6744V28.7704H85.3696V27.7205H80.4745V33.8973H85.4651V32.8474H85.4514ZM79.6701 33.8973V33.8291C79.411 33.6246 79.2065 33.2973 79.0428 32.3156C78.9201 31.5929 78.4974 31.0611 77.8156 30.9384C78.6747 30.8839 79.3974 30.2976 79.3974 29.4931C79.3974 28.4159 78.6474 27.7205 77.0794 27.7205H74.0796V33.8973H75.2931V31.402H76.8066C77.5293 31.402 77.8293 31.8384 77.8974 32.6837C77.952 33.2701 78.0475 33.7473 78.2248 33.8973H79.6701ZM75.2931 28.7295H76.9021C77.7884 28.7295 78.1702 29.0295 78.1702 29.5885C78.1702 30.1476 77.7475 30.4476 76.8612 30.4476H75.2795V28.7159L75.2931 28.7295Z" fill="white"/>
</svg>
