<svg width="136" height="35" viewBox="0 0 136 35" fill="none" xmlns="http://www.w3.org/2000/svg">
<path d="M0.216774 13.5125C0.216774 6.05406 6.25716 0 13.7293 0C15.6791 0 17.5199 0.409058 19.197 1.14536L11.5477 5.00414C11.5477 5.00414 10.0751 5.79499 9.67965 6.69491C9.32513 7.4994 9.29785 8.11298 9.58419 8.94473L27.2692 0.0954468C27.2692 0.0954468 27.6918 2.33163 27.0646 3.50426C26.5874 4.41783 25.1693 5.33139 25.1693 5.33139L11.0568 12.2308C11.0568 12.2308 10.1705 12.7626 9.82962 13.2944C9.29784 14.1261 9.21603 14.8897 9.57055 15.8169L27.6101 7.29487C27.6101 7.29487 28.0463 9.6674 27.2282 10.7446C26.7919 11.3309 25.7147 11.8763 25.7147 11.8763L11.3159 18.803C11.3159 18.803 10.0478 19.4848 9.666 20.262C9.25694 21.0938 9.21602 21.7755 9.5569 22.6345L27.2009 14.1807C26.8464 21.3256 20.9424 27.0115 13.7157 27.0115C6.48903 27.0115 0.203125 20.9574 0.203125 13.4989" fill="#0D84C4"/>
<path d="M45.3639 11.7265H36.8555V15.2444H45.3639V11.7265Z" fill="#0E1931"/>
<path d="M105.699 5.74042H92.623V8.99925H105.699V5.74042Z" fill="#0E1931"/>
<path d="M124.625 5.74042H133.325C135.275 5.74042 135.493 7.29484 135.493 8.99925H122.498C122.498 7.06304 122.43 5.74042 124.612 5.74042" fill="#0E1931"/>
<path d="M100.887 11.6583H97.2324V21.2302H100.887V11.6583Z" fill="#0E1931"/>
<path d="M122.498 21.2439V11.6583H135.288V21.2439H132.111V15.4898H125.634V21.2439H122.498Z" fill="#0E1931"/>
<path d="M51.2539 5.74042H54.7445V18.0258H61.3167V21.1892H51.2539V5.74042Z" fill="#0E1931"/>
<path d="M71.8697 11.7264H63.3613V15.2443H71.8697V11.7264Z" fill="#0E1931"/>
<path d="M77.3926 8.99925H90.2234V5.74042H80.7878C78.2926 5.74042 77.3926 7.60845 77.3926 8.99925Z" fill="#0E1931"/>
<path d="M77.5006 16.1715V11.6582H80.8276V17.985H89.7042V21.2438H81.1821C77.1734 21.2438 77.5006 17.985 77.5006 16.1715Z" fill="#0E1931"/>
<path d="M118.012 5.78137H109.354C107.867 5.78137 107.199 6.23134 107.199 8.65841V21.2301H110.908V8.98566H120.057C120.057 8.98566 120.453 5.78137 117.998 5.78137" fill="#0E1931"/>
<path d="M120.058 11.6583C120.058 11.6583 120.303 13.7308 118.871 14.399C117.985 14.8216 116.349 14.6308 116.349 14.6308L119.935 21.2302H115.899C115.899 21.2302 113.472 17.2078 112.722 15.5989C111.713 13.4308 112.204 11.6583 114.822 11.6583H120.044" fill="#0E1931"/>
<path d="M63.3071 18.1486H75.5106V21.4074H65.4751C62.9798 21.4074 63.3071 19.5394 63.3071 18.1486Z" fill="#0E1931"/>
<path d="M63.3071 9.163H75.5106V5.90417H65.4751C62.9798 5.90417 63.3071 7.77221 63.3071 9.163Z" fill="#0E1931"/>
<path d="M36.7993 18.1486H49.0029V21.4074H38.9673C36.472 21.4074 36.7993 19.5394 36.7993 18.1486Z" fill="#0E1931"/>
<path d="M36.7993 9.163H49.0029V5.90417H38.9673C36.472 5.90417 36.7993 7.77221 36.7993 9.163Z" fill="#0E1931"/>
<path d="M135.491 32.8474H131.714V31.252H134.496V30.2158H131.714V28.7704H135.41V27.7205H130.515V33.8973H135.505V32.8474H135.491ZM127.201 33.8973V28.7977H129.655V27.7205H123.561V28.7977H125.974V33.8973H127.201ZM122.633 33.8973H123.942L121.461 27.7205H120.083L117.629 33.8973H118.856L119.429 32.3838H122.02L122.606 33.8973H122.633ZM120.711 29.0568H120.752L121.665 31.4293H119.811L120.711 29.0568ZM115.57 33.8973V28.7977H118.025V27.7205H111.93V28.7977H114.357V33.8973H115.584H115.57ZM106.203 32.7656C106.775 33.5428 107.839 34.02 109.121 34.02C110.566 34.02 111.725 33.3519 111.725 32.152C111.725 31.1157 111.043 30.6248 109.884 30.3794L108.603 30.1067C108.112 29.9976 107.757 29.8612 107.757 29.4249C107.757 28.9204 108.248 28.6204 108.93 28.6204C109.803 28.6204 110.375 29.0431 110.703 29.6022L111.534 28.7977C110.989 28.1159 110.13 27.6251 108.93 27.6251C107.485 27.6251 106.516 28.3886 106.516 29.5067C106.516 30.543 107.266 31.0202 108.207 31.2111L109.598 31.4975C110.116 31.6202 110.498 31.7565 110.498 32.2201C110.498 32.7656 109.912 33.0383 109.121 33.0383C108.262 33.0383 107.43 32.6428 106.98 31.8929L106.203 32.7792V32.7656ZM105.848 32.8474H102.071V31.252H104.853V30.2158H102.071V28.7704H105.766V27.7205H100.871V33.8973H105.862V32.8474H105.848ZM92.8676 27.7205V33.8973H97.749V32.8201H94.1083V27.7205H92.8812H92.8676ZM90.8768 33.8973H92.1858L89.7042 27.7205H88.327L85.8727 33.8973H87.1134L87.6862 32.3838H90.2768L90.8631 33.8973H90.8768ZM88.9542 29.0568H88.9951L89.9223 31.4293H88.0543L88.9542 29.0568ZM85.45 32.8474H81.673V31.252H84.4546V30.2158H81.673V28.7704H85.3682V27.7205H80.4731V33.8973H85.4636V32.8474H85.45ZM79.6686 33.8973V33.8291C79.4096 33.6246 79.205 33.2973 79.0414 32.3156C78.9187 31.5929 78.4959 31.0611 77.8142 30.9384C78.6732 30.8839 79.3959 30.2976 79.3959 29.4931C79.3959 28.4159 78.646 27.7205 77.0779 27.7205H74.0781V33.8973H75.2917V31.402H76.8052C77.5278 31.402 77.8278 31.8384 77.896 32.6837C77.9505 33.2701 78.046 33.7473 78.2233 33.8973H79.6686ZM75.2917 28.7295H76.9006C77.7869 28.7295 78.1687 29.0295 78.1687 29.5885C78.1687 30.1476 77.7461 30.4476 76.8598 30.4476H75.278V28.7159L75.2917 28.7295Z" fill="#0E1931"/>
</svg>
