<svg width="136" height="32" viewBox="0 0 136 32" fill="none" xmlns="http://www.w3.org/2000/svg">
<g clip-path="url(#clip0_76_774)">
<path d="M0 13.535C0 6.05644 6.05644 0 13.5266 0C15.4757 0 17.3244 0.409897 18.9975 1.1544L11.3433 5.02751C11.3433 5.02751 9.87099 5.82221 9.46945 6.71729C9.11811 7.52035 9.08465 8.13938 9.37744 8.96754L27.0867 0.108748C27.0867 0.108748 27.5049 2.34227 26.8859 3.52177C26.4091 4.43358 24.987 5.35375 24.987 5.35375L10.8581 12.2634C10.8581 12.2634 9.97137 12.7905 9.62839 13.3258C9.09302 14.1624 9.01773 14.932 9.36907 15.8521L27.438 7.32795C27.438 7.32795 27.873 9.69532 27.0616 10.7828C26.6182 11.3767 25.5474 11.9205 25.5474 11.9205L11.1341 18.8553C11.1341 18.8553 9.86262 19.5412 9.47782 20.3108C9.06792 21.139 9.03446 21.8249 9.36907 22.6865L27.0365 14.2209C26.6768 21.3732 20.7709 27.0616 13.5266 27.0616C6.2823 27.0616 0 21.0051 0 13.535Z" fill="#0085C6"/>
<path d="M45.2058 11.7532H36.6816V15.2749H45.2058V11.7532Z" fill="white"/>
<path d="M105.611 5.75531H92.5195V9.01775H105.611V5.75531Z" fill="white"/>
<path d="M124.559 5.75531H133.275C135.233 5.75531 135.45 7.31125 135.45 9.00939H122.434C122.434 7.07702 122.367 5.75531 124.559 5.75531Z" fill="white"/>
<path d="M100.793 11.6862H97.1289V21.2728H100.793V11.6862Z" fill="white"/>
<path d="M122.434 21.2729V11.6779H135.241V21.2729H132.054V15.5176H125.571V21.2729H122.434Z" fill="white"/>
<path d="M51.1035 5.75531H54.5918V18.0522H61.1753V21.2226H51.1035V5.75531Z" fill="white"/>
<path d="M71.7488 11.7532H63.2246V15.2749H71.7488V11.7532Z" fill="white"/>
<path d="M77.2701 9.00933H90.1107V5.74689H80.658C78.1568 5.74689 77.2617 7.6207 77.2617 9.00933" fill="white"/>
<path d="M77.3784 16.1951V11.6862H80.7162V18.0103H89.6001V21.2728H81.0675C77.0522 21.2728 77.3784 18.0103 77.3784 16.1951Z" fill="white"/>
<path d="M117.934 5.79712H109.259C107.77 5.79712 107.101 6.24884 107.101 8.67476V21.2645H110.815V9.00101H119.983C119.983 9.00101 120.385 5.79712 117.925 5.79712" fill="white"/>
<path d="M119.991 11.6862C119.991 11.6862 120.234 13.7524 118.812 14.4384C117.925 14.865 116.285 14.6642 116.285 14.6642L119.874 21.2728H115.834C115.834 21.2728 113.408 17.2491 112.655 15.6346C111.651 13.468 112.136 11.6862 114.763 11.6862H119.991Z" fill="white"/>
<path d="M63.1575 18.1693H75.3791V21.4318H65.3325C62.8313 21.4318 63.1575 19.5579 63.1575 18.1693Z" fill="white"/>
<path d="M63.1575 9.17669H75.3791V5.91425H65.3325C62.8313 5.91425 63.1575 7.78806 63.1575 9.17669Z" fill="white"/>
<path d="M36.6229 18.1693H48.8445V21.4318H38.7978C36.2966 21.4318 36.6229 19.5579 36.6229 18.1693Z" fill="white"/>
<path d="M36.6229 9.17669H48.8445V5.91425H38.7978C36.2966 5.91425 36.6229 7.78806 36.6229 9.17669Z" fill="white"/>
<path d="M40.7135 28.1992V29.0692L41.7843 28.9019V28.4669C41.7843 27.6053 41.5082 27.3795 40.6466 27.3795H37.9028C37.0412 27.3795 36.7651 27.6053 36.7651 28.4669V30.8929C36.7651 31.7545 37.0412 31.9803 37.9028 31.9803H40.6466C41.5082 31.9803 41.7843 31.7545 41.7843 30.8929V30.3491L40.7135 30.1233V31.1104H37.8275V28.1992H40.7135Z" fill="#0085C6"/>
<path d="M44.955 28.1992H48.4767V31.1104H44.955V28.1992ZM43.8926 28.4669V30.8845C43.8926 31.7461 44.1686 31.972 45.0303 31.972H48.4098C49.2714 31.972 49.5475 31.7461 49.5475 30.8845V28.4669C49.5475 27.6053 49.2714 27.3795 48.4098 27.3795H45.0303C44.1686 27.3795 43.8926 27.597 43.8926 28.4669Z" fill="#0085C6"/>
<path d="M51.7974 31.972H52.7594V29.4875C52.7594 29.3537 52.7594 29.1111 52.7175 28.7597C52.843 28.9019 52.9685 29.019 53.1023 29.1362L56.4735 31.9803H57.2013V27.3878H56.2393V29.797C56.2393 29.9392 56.256 30.2069 56.2811 30.5917C56.1222 30.4077 55.9465 30.2404 55.7541 30.0898L52.5251 27.3795H51.7974V31.972Z" fill="#0085C6"/>
<path d="M63.5171 28.1741V28.7011L64.4624 28.4752V28.3749C64.4624 27.5802 64.1445 27.371 63.3247 27.371H60.7148C59.8532 27.371 59.5771 27.5969 59.5771 28.4585V28.9688C59.5771 29.8304 59.8532 30.0563 60.7148 30.0563H63.5841V31.1103H60.3383V30.5666L59.3931 30.759V30.8844C59.3931 31.7461 59.6775 31.9719 60.5391 31.9719H63.3833C64.2449 31.9719 64.5293 31.7461 64.5293 30.8844V30.2487C64.5293 29.3871 64.2449 29.1612 63.3833 29.1612H60.514V28.1741H63.5255H63.5171Z" fill="#0085C6"/>
<path d="M67.8085 27.3795H66.7378V31.972H67.8085V27.3795Z" fill="#0085C6"/>
<path d="M70.1597 31.972H72.8365C73.6563 31.972 74.2754 31.8967 74.7271 31.6206C75.3712 31.2275 75.7393 30.5164 75.7393 29.6548C75.7393 28.2327 74.8275 27.3878 73.1126 27.3878H70.1597V31.9803V31.972ZM71.2221 31.1103V28.1992H73.121C74.1248 28.1992 74.6351 28.7012 74.6351 29.6297C74.6351 30.7674 73.9575 31.1103 72.6023 31.1103H71.2221Z" fill="#0085C6"/>
<path d="M77.6963 31.972H82.4394V31.1104H78.7587V29.9643H80.8835V29.1863H78.7587V28.1574H82.3976V27.3795H77.6963V31.972Z" fill="#0085C6"/>
<path d="M84.4053 31.972H85.4593V30.232H86.4715L88.3202 31.972H89.851L87.7346 30.232H88.3369C89.0396 30.232 89.3659 29.981 89.3659 29.3453V28.2662C89.3659 27.622 89.0396 27.3795 88.3369 27.3795H84.4053V31.972ZM87.8601 28.1658C88.1864 28.1658 88.3453 28.2327 88.3453 28.5339V29.086C88.3453 29.3871 88.1947 29.454 87.8601 29.454H85.4593V28.1742H87.8601V28.1658Z" fill="#0085C6"/>
<path d="M96.0581 27.3795H94.9873V31.972H96.0581V27.3795Z" fill="#0085C6"/>
<path d="M100.542 28.1992H102.658V27.3795H97.3628V28.1992H99.4708V31.972H100.542V28.1992Z" fill="#0085C6"/>
<path d="M107.401 31.972H110.078C110.898 31.972 111.517 31.8967 111.969 31.6206C112.613 31.2275 112.981 30.5164 112.981 29.6548C112.981 28.2327 112.078 27.3878 110.354 27.3878H107.401V31.9803V31.972ZM108.472 31.1103V28.1992H110.371C111.375 28.1992 111.885 28.7012 111.885 29.6297C111.885 30.7674 111.208 31.1103 109.852 31.1103H108.472Z" fill="#0085C6"/>
<path d="M115.909 28.1992H119.431V31.1104H115.909V28.1992ZM114.847 28.4669V30.8845C114.847 31.7461 115.123 31.972 115.984 31.972H119.364C120.226 31.972 120.502 31.7461 120.502 30.8845V28.4669C120.502 27.6053 120.226 27.3795 119.364 27.3795H115.984C115.123 27.3795 114.847 27.597 114.847 28.4669Z" fill="#0085C6"/>
<path d="M122.751 31.972H123.713V29.4875C123.713 29.3537 123.713 29.1111 123.672 28.7597C123.797 28.9019 123.923 29.019 124.056 29.1362L127.428 31.9803H128.155V27.3878H127.193V29.797C127.193 29.9392 127.21 30.2069 127.235 30.5917C127.076 30.4077 126.901 30.2404 126.708 30.0898L123.479 27.3795H122.751V31.972Z" fill="#0085C6"/>
<path d="M130.498 31.9719H135.241V31.1103H131.56V29.9643H133.677V29.1863H131.56V28.1574H135.191V27.3794H130.498V31.9719Z" fill="#0085C6"/>
</g>
<defs>
<clipPath id="clip0_76_774">
<rect width="135.45" height="31.972" fill="white"/>
</clipPath>
</defs>
</svg>
