<svg width="136" height="44" viewBox="0 0 136 44" fill="none" xmlns="http://www.w3.org/2000/svg">
<g clip-path="url(#clip0_2169_8512)">
<path d="M43.4137 34.8087H39.336V29.7115H43.4137C44.7756 29.7115 45.8884 30.8555 45.8884 32.2562C45.8884 33.657 44.7756 34.8009 43.4137 34.8009V34.8087ZM43.4137 27.2446H36.8613V43.0264H39.336V37.2834H43.4137C46.1452 37.2834 48.3631 35.0344 48.3631 32.264C48.3631 29.4936 46.1452 27.2446 43.4137 27.2446Z" fill="#01ED54"/>
<path d="M58.1767 29.4781C55.0016 29.4781 52.418 32.0617 52.418 35.2367C52.418 38.4118 55.0016 40.9954 58.1767 40.9954C61.3517 40.9954 63.9353 38.4118 63.9353 35.2367C63.9353 32.0617 61.3517 29.4781 58.1767 29.4781ZM58.1767 43.47C53.6398 43.47 49.9434 39.7736 49.9434 35.2367C49.9434 30.6998 53.6398 27.0034 58.1767 27.0034C62.7135 27.0034 66.41 30.6998 66.41 35.2367C66.41 39.7736 62.7135 43.47 58.1767 43.47Z" fill="#01ED54"/>
<path d="M86.3538 27.2446H83.8247L81.2956 37.5791L77.7937 27.2446H75.8871L72.5097 37.7425L69.8717 27.2446H67.5293L71.2958 43.0498H73.1868L76.961 32.0539L80.4863 43.0498H82.3695L86.3538 27.2446Z" fill="#01ED54"/>
<path d="M99.0854 27.2291H89.0078V29.7037H99.0854V27.2291Z" fill="#01ED54"/>
<path d="M99.0854 33.976H89.0078V36.4507H99.0854V33.976Z" fill="#01ED54"/>
<path d="M99.0854 40.723H89.0078V43.1976H99.0854V40.723Z" fill="#01ED54"/>
<path d="M108.83 34.8087H104.752V29.7115H108.83C110.192 29.7115 111.304 30.8555 111.304 32.2562C111.304 33.657 110.192 34.8009 108.83 34.8009V34.8087ZM113.771 32.264C113.771 29.4936 111.553 27.2446 108.822 27.2446H102.27V43.0264H104.744V37.2834H108.059L110.985 43.112H113.756L110.651 36.9332C112.479 36.1939 113.771 34.3807 113.771 32.2718V32.264Z" fill="#01ED54"/>
<path d="M0.0996094 13.5017C0.0996094 6.04658 6.13841 0 13.6013 0C15.539 0 17.3911 0.412444 19.0565 1.15173L11.4146 5.01158C11.4146 5.01158 9.936 5.79756 9.5469 6.70026C9.18893 7.5018 9.16559 8.11658 9.45352 8.94147L27.1263 0.108947C27.1263 0.108947 27.5466 2.34237 26.924 3.51744C26.4493 4.42793 25.033 5.3462 25.033 5.3462L10.9321 12.2332C10.9321 12.2332 10.0449 12.7624 9.71032 13.2916C9.17337 14.1242 9.10333 14.8947 9.45352 15.8129L27.4843 7.30726C27.4843 7.30726 27.9201 9.67297 27.103 10.7547C26.6594 11.3461 25.5933 11.8908 25.5933 11.8908L11.2122 18.8168C11.2122 18.8168 9.94378 19.5016 9.55468 20.272C9.14224 21.0969 9.11111 21.7817 9.44574 22.6377L27.0796 14.1943C26.7217 21.3303 20.823 27.0112 13.6013 27.0112C6.37965 27.0112 0.0996094 20.9646 0.0996094 13.5017Z" fill="#0E1931"/>
<path d="M105.498 5.7431H92.4316V8.99596H105.498V5.7431Z" fill="#0E1931"/>
<path d="M124.4 5.73529H133.1C135.054 5.73529 135.271 7.2839 135.271 8.98815H122.283C122.283 7.05822 122.221 5.73529 124.4 5.73529Z" fill="#0E1931"/>
<path d="M100.689 11.6573H97.0312V21.2292H100.689V11.6573Z" fill="#0E1931"/>
<path d="M122.283 11.6573V21.2292H125.412V15.4861H131.878V21.2292H135.061V11.6573H122.283Z" fill="#0E1931"/>
<path d="M51.0957 5.73529H54.5742V18.0152H61.15V21.1825H51.0957V5.73529Z" fill="#0E1931"/>
<path d="M71.701 11.7274H63.1953V15.2371H71.701V11.7274Z" fill="#0E1931"/>
<path d="M45.2108 11.7274H36.7051V15.2371H45.2108V11.7274Z" fill="#0E1931"/>
<path d="M77.2109 8.99596H90.0278V5.7431H80.5961C78.1059 5.7431 77.2109 7.61077 77.2109 8.99596Z" fill="#0E1931"/>
<path d="M77.3205 16.1631V11.6573H80.6512V17.9685H89.5148V21.2214H81.0014C77.0014 21.2214 77.3205 17.9607 77.3205 16.1553" fill="#0E1931"/>
<path d="M117.794 5.78979H109.14C107.654 5.78979 106.992 6.24115 106.992 8.66134V21.2292H110.704V8.98818H119.848C119.848 8.98818 120.253 5.78979 117.794 5.78979Z" fill="#0E1931"/>
<path d="M119.848 11.6573C119.848 11.6573 120.089 13.7273 118.665 14.4044C117.778 14.8246 116.144 14.6301 116.144 14.6301L119.724 21.2292H115.692C115.692 21.2292 113.264 17.2137 112.525 15.6028C111.521 13.4394 112.012 11.6651 114.626 11.6651H119.84L119.848 11.6573Z" fill="#0E1931"/>
<path d="M63.1265 18.132H75.3208V21.3848H65.2899C62.7997 21.3848 63.1187 19.5171 63.1187 18.132" fill="#0E1931"/>
<path d="M63.1265 9.1516H75.3208V5.89874H65.2899C62.7997 5.89874 63.1187 7.76641 63.1187 9.1516" fill="#0E1931"/>
<path d="M36.6441 18.132H48.8384V21.3848H38.8075C36.3173 21.3848 36.6363 19.5171 36.6363 18.132" fill="#0E1931"/>
<path d="M36.6441 9.1516H48.8384V5.89874H38.8075C36.3173 5.89874 36.6363 7.76641 36.6363 9.1516" fill="#0E1931"/>
</g>
<defs>
<clipPath id="clip0_2169_8512">
<rect width="135.173" height="43.47" fill="white" transform="translate(0.0996094)"/>
</clipPath>
</defs>
</svg>
