<svg width="199" height="48" viewBox="0 0 199 48" fill="none" xmlns="http://www.w3.org/2000/svg">
<path d="M56.2744 22.8459H45.2246V26.0515H54.2222C55.3586 26.0515 56.2744 25.1356 56.2744 23.9993V22.8544V22.8459Z" fill="#0E1931"/>
<path d="M45.2246 18.6991V19.6404H58.2673V16.4348H47.4888C46.2338 16.4348 45.2246 17.4525 45.2246 18.6991Z" fill="#0E1931"/>
<path d="M45.2246 30.1898V29.2485H58.2673V32.4541H47.4888C46.2338 32.4541 45.2246 31.4365 45.2246 30.1898Z" fill="#0E1931"/>
<path d="M64.3149 16.4348H61.1094V30.3934C61.1094 31.5297 62.0252 32.4456 63.1616 32.4456H74.1521V29.2401H64.3064V16.4263L64.3149 16.4348Z" fill="#0E1931"/>
<path d="M103.29 29.2486H95.7173V22.8459H92.5117V30.1899C92.5117 31.445 93.5294 32.4541 94.776 32.4541H105.554V31.5213C105.554 30.2747 104.537 29.2571 103.29 29.2571" fill="#0E1931"/>
<path d="M94.776 16.4348C93.5294 16.4348 92.5117 17.4525 92.5117 18.6991V19.6404H103.29C104.537 19.6404 105.554 18.6227 105.554 17.3761V16.4348H94.776Z" fill="#0E1931"/>
<path d="M121.599 16.4348H108.557V19.6404H121.599V16.4348Z" fill="#0E1931"/>
<path d="M116.68 22.8459H113.475V32.4541H116.68V22.8459Z" fill="#0E1931"/>
<path d="M140.637 22.8459V32.4541H143.842V26.043H150.482V32.4541H153.679V22.8459H140.637Z" fill="#0E1931"/>
<mask id="mask0_2169_8424" style="mask-type:luminance" maskUnits="userSpaceOnUse" x="9" y="8" width="190" height="33">
<path d="M198.32 8.38702H9.95508V40.2984H198.32V8.38702Z" fill="white"/>
</mask>
<g mask="url(#mask0_2169_8424)">
<path d="M151.415 16.4348H142.901C141.654 16.4348 140.637 17.4524 140.637 18.6991V19.6319H153.679V18.6906C153.679 17.444 152.662 16.4263 151.415 16.4263" fill="#0E1931"/>
<path d="M130.648 22.8459C129.927 22.8459 129.427 23.5667 129.673 24.2451L132.7 32.4541H136.27L133.777 26.0514H135.668C136.72 26.0514 137.576 25.2458 137.576 24.1943V22.8459H130.648Z" fill="#0E1931"/>
<path d="M137.576 19.6404V18.6991C137.576 17.4525 136.558 16.4348 135.312 16.4348H126.797C125.551 16.4348 124.533 17.4525 124.533 18.6991V32.4456H127.739V20.4714C127.739 20.0644 128.027 19.7167 128.409 19.6319H137.576V19.6404Z" fill="#0E1931"/>
<path d="M87.5244 22.8459H76.4746V26.0514H85.4722C86.6086 26.0514 87.5244 25.1356 87.5244 23.9992V22.8544V22.8459Z" fill="#0E1931"/>
<path d="M76.4668 18.6992V19.6405H89.5095V16.4349H78.731C77.476 16.4349 76.4668 17.4526 76.4668 18.6992Z" fill="#0E1931"/>
<path d="M76.4668 30.1898V29.2485H89.5095V32.4541H78.731C77.476 32.4541 76.4668 31.4365 76.4668 30.1898Z" fill="#0E1931"/>
</g>
<mask id="mask1_2169_8424" style="mask-type:luminance" maskUnits="userSpaceOnUse" x="10" y="10" width="28" height="28">
<path d="M10.8724 23.2275V24.6183C11.2201 31.5213 16.7323 37.0589 23.6183 37.4575H25.2041C32.1325 37.0589 37.6702 31.445 37.95 24.4826L19.4291 32.9205C19.0644 31.9029 19.2764 30.7241 20.0905 29.91C20.2856 29.7065 20.523 29.5369 20.7605 29.4097L35.5331 22.6085C36.8561 21.9894 37.7635 20.6495 37.7635 19.0976C37.7635 18.716 37.7211 18.3344 37.6193 17.9867L19.4291 26.3483C19.0644 25.3307 19.2849 24.1434 20.099 23.3293C20.3025 23.1258 20.5315 22.9647 20.7605 22.8374L35.5247 16.0447C36.8476 15.4257 37.755 14.0858 37.755 12.5339C37.755 12.1523 37.7041 11.7707 37.6023 11.423L19.4291 19.7845C19.0644 18.7669 19.2849 17.5797 20.099 16.7656C20.3025 16.562 20.523 16.3755 20.7605 16.2483L30.428 11.7961C28.6132 10.8887 26.561 10.3799 24.39 10.3799C17.1394 10.3799 11.2201 16.0702 10.8555 23.236" fill="white"/>
</mask>
<g mask="url(#mask1_2169_8424)">
<path d="M33.1164 0.00024931L0.498047 15.2104L15.7082 47.8288L48.3266 32.6186L33.1164 0.00024931Z" fill="url(#paint0_linear_2169_8424)"/>
</g>
<mask id="mask2_2169_8424" style="mask-type:luminance" maskUnits="userSpaceOnUse" x="9" y="8" width="190" height="33">
<path d="M198.32 8.38702H9.95508V40.2984H198.32V8.38702Z" fill="white"/>
</mask>
<g mask="url(#mask2_2169_8424)">
<path d="M176.278 29.2485H168.706V22.8459H165.5V30.1898C165.5 31.4449 166.518 32.4541 167.764 32.4541H178.543V31.5212C178.543 30.2746 177.525 29.257 176.278 29.257" fill="#0E1931"/>
<path d="M167.764 16.4349C166.518 16.4349 165.5 17.4526 165.5 18.6992V19.6405H176.278C177.525 19.6405 178.543 18.6229 178.543 17.3763V16.4349H167.764Z" fill="#0E1931"/>
<path d="M192.765 16.4348H184.251C183.004 16.4348 181.986 17.4524 181.986 18.699V19.6319H195.029V18.6906C195.029 17.444 194.011 16.4263 192.765 16.4263M195.029 22.8459V23.9908C195.029 25.1271 194.105 26.043 192.977 26.043H185.124V32.4626H181.986V22.8374H195.029V22.8459Z" fill="#0E1931"/>
</g>
<defs>
<linearGradient id="paint0_linear_2169_8424" x1="22.0451" y1="12.0698" x2="33.5029" y2="36.6412" gradientUnits="userSpaceOnUse">
<stop stop-color="#B17F2C"/>
<stop offset="0.22" stop-color="#B58432"/>
<stop offset="0.54" stop-color="#C09546"/>
<stop offset="0.6" stop-color="#C3994B"/>
<stop offset="0.63" stop-color="#C8A155"/>
<stop offset="0.68" stop-color="#D7B770"/>
<stop offset="0.75" stop-color="#EFDA9C"/>
<stop offset="0.78" stop-color="#FFF1B8"/>
<stop offset="0.81" stop-color="#F8E7AC"/>
<stop offset="0.87" stop-color="#E7CE8D"/>
<stop offset="0.94" stop-color="#CBA55B"/>
<stop offset="1" stop-color="#B17F2C"/>
</linearGradient>
</defs>
</svg>
