<svg width="262" height="85" viewBox="0 0 262 85" fill="none" xmlns="http://www.w3.org/2000/svg">
<g clip-path="url(#clip0_118_3419)">
<path d="M83.9547 68.0639H76.0509V58.097H83.9547C86.5943 58.097 88.7512 60.3339 88.7512 63.0729C88.7512 65.8119 86.5943 68.0487 83.9547 68.0487V68.0639ZM83.9547 53.2734H71.2544V84.1327H76.0509V72.9028H83.9547C89.249 72.9028 93.5478 68.5052 93.5478 63.0881C93.5478 57.671 89.249 53.2734 83.9547 53.2734Z" fill="#01ED54"/>
<path d="M112.568 57.6406C106.414 57.6406 101.406 62.6925 101.406 68.9009C101.406 75.1092 106.414 80.1612 112.568 80.1612C118.722 80.1612 123.73 75.1092 123.73 68.9009C123.73 62.6925 118.722 57.6406 112.568 57.6406ZM112.568 85C103.774 85 96.6097 77.7722 96.6097 68.9009C96.6097 60.0296 103.774 52.8017 112.568 52.8017C121.362 52.8017 128.526 60.0296 128.526 68.9009C128.526 77.7722 121.362 85 112.568 85Z" fill="#01ED54"/>
<path d="M167.185 53.2734H162.283L157.381 73.481L150.593 53.2734H146.898L140.352 73.8006L135.238 53.2734H130.698L137.999 84.1783H141.664L148.979 62.6772L155.812 84.1783H159.462L167.185 53.2734Z" fill="#01ED54"/>
<path d="M191.862 53.2429H172.329V58.0818H191.862V53.2429Z" fill="#01ED54"/>
<path d="M191.862 66.4357H172.329V71.2746H191.862V66.4357Z" fill="#01ED54"/>
<path d="M191.862 79.6286H172.329V84.4674H191.862V79.6286Z" fill="#01ED54"/>
<path d="M210.746 68.0639H202.843V58.097H210.746C213.386 58.097 215.543 60.3339 215.543 63.0729C215.543 65.8119 213.386 68.0487 210.746 68.0487V68.0639ZM220.324 63.0881C220.324 57.671 216.026 53.2734 210.731 53.2734H198.031V84.1327H202.828V72.9028H209.253L214.925 84.3001H220.294L214.276 72.2181C217.821 70.7725 220.324 67.227 220.324 63.1033V63.0881Z" fill="#01ED54"/>
<path d="M0 26.4008C0 11.8233 11.7048 0 26.1698 0C29.9256 0 33.5155 0.806481 36.7434 2.25206L21.9314 9.7995C21.9314 9.7995 19.0655 11.3364 18.3113 13.1015C17.6175 14.6688 17.5723 15.8709 18.1303 17.4839L52.3849 0.213033C52.3849 0.213033 53.1994 4.5802 51.9928 6.87791C51.0727 8.65825 48.3275 10.4538 48.3275 10.4538L20.9962 23.9205C20.9962 23.9205 19.2767 24.9552 18.6281 25.99C17.5873 27.6182 17.4516 29.1246 18.1303 30.9202L53.0788 14.2884C53.0788 14.2884 53.9234 18.9143 52.3397 21.0294C51.4799 22.1858 49.4135 23.251 49.4135 23.251L21.5392 36.7938C21.5392 36.7938 19.0806 38.1328 18.3264 39.6393C17.527 41.2522 17.4667 42.5913 18.1153 44.2651L52.2944 27.7551C51.6006 41.7087 40.1673 52.8169 26.1698 52.8169C12.1724 52.8169 0 40.9936 0 26.4008Z" fill="white"/>
<path d="M204.29 11.2299H178.965V17.5904H204.29V11.2299Z" fill="white"/>
<path d="M240.928 11.2147H257.792C261.578 11.2147 262 14.2428 262 17.5752H236.826C236.826 13.8015 236.705 11.2147 240.928 11.2147Z" fill="white"/>
<path d="M194.969 22.7945H187.88V41.5109H194.969V22.7945Z" fill="white"/>
<path d="M236.826 22.7945V41.5109H242.889V30.2811H255.424V41.5109H261.593V22.7945H236.826Z" fill="white"/>
<path d="M98.842 11.2147H105.584V35.2265H118.33V41.4196H98.842V11.2147Z" fill="white"/>
<path d="M138.783 22.9314H122.297V29.7941H138.783V22.9314Z" fill="white"/>
<path d="M87.439 22.9314H70.9528V29.7941H87.439V22.9314Z" fill="white"/>
<path d="M149.462 17.5904H174.305V11.2299H156.024C151.197 11.2299 149.462 14.8819 149.462 17.5904Z" fill="white"/>
<path d="M149.673 31.6049V22.7945H156.129V35.1352H173.309V41.4957H156.808C149.055 41.4957 149.673 35.1199 149.673 31.5897" fill="white"/>
<path d="M228.123 11.3212H211.35C208.469 11.3212 207.187 12.2037 207.187 16.9361V41.5109H214.382V17.5752H232.105C232.105 17.5752 232.889 11.3212 228.123 11.3212Z" fill="white"/>
<path d="M232.105 22.7945C232.105 22.7945 232.572 26.8421 229.812 28.166C228.092 28.9876 224.925 28.6072 224.925 28.6072L231.863 41.5109H224.05C224.05 41.5109 219.344 33.6591 217.911 30.5093C215.965 26.2791 216.916 22.8097 221.984 22.8097H232.09L232.105 22.7945Z" fill="white"/>
<path d="M122.161 35.4547H145.797V41.8152H126.354C121.528 41.8152 122.146 38.1632 122.146 35.4547" fill="white"/>
<path d="M122.161 17.8948H145.797V11.5342H126.354C121.528 11.5342 122.146 15.1862 122.146 17.8948" fill="white"/>
<path d="M70.8319 35.4547H94.4678V41.8152H75.0252C70.1984 41.8152 70.8169 38.1632 70.8169 35.4547" fill="white"/>
<path d="M70.8319 17.8948H94.4678V11.5342H75.0252C70.1984 11.5342 70.8169 15.1862 70.8169 17.8948" fill="white"/>
</g>
<defs>
<clipPath id="clip0_118_3419">
<rect width="262" height="85" fill="white"/>
</clipPath>
</defs>
</svg>
