<svg width="136" height="32" viewBox="0 0 136 32" fill="none" xmlns="http://www.w3.org/2000/svg">
<g clip-path="url(#clip0_2169_8392)">
<path d="M0 13.535C0 6.05644 6.05644 0 13.5266 0C15.4757 0 17.3244 0.409897 18.9975 1.1544L11.3433 5.02751C11.3433 5.02751 9.87099 5.82221 9.46945 6.71729C9.11811 7.52035 9.08465 8.13938 9.37744 8.96754L27.0867 0.108748C27.0867 0.108748 27.5049 2.34227 26.8859 3.52177C26.4091 4.43358 24.987 5.35375 24.987 5.35375L10.8581 12.2634C10.8581 12.2634 9.97137 12.7905 9.62839 13.3258C9.09302 14.1624 9.01773 14.932 9.36907 15.8521L27.438 7.32795C27.438 7.32795 27.873 9.69532 27.0616 10.7828C26.6182 11.3767 25.5474 11.9205 25.5474 11.9205L11.1341 18.8553C11.1341 18.8553 9.86262 19.5412 9.47782 20.3108C9.06792 21.139 9.03446 21.8249 9.36907 22.6865L27.0365 14.2209C26.6768 21.3732 20.7709 27.0616 13.5266 27.0616C6.2823 27.0616 0 21.0051 0 13.535Z" fill="#0085C6"/>
<path d="M45.2058 11.7532H36.6816V15.2749H45.2058V11.7532Z" fill="#0E1931"/>
<path d="M105.611 5.75531H92.5195V9.01775H105.611V5.75531Z" fill="#0E1931"/>
<path d="M124.559 5.75531H133.275C135.233 5.75531 135.45 7.31125 135.45 9.00939H122.434C122.434 7.07702 122.367 5.75531 124.559 5.75531Z" fill="#0E1931"/>
<path d="M100.793 11.6862H97.1289V21.2728H100.793V11.6862Z" fill="#0E1931"/>
<path d="M122.434 21.2729V11.6779H135.241V21.2729H132.054V15.5176H125.571V21.2729H122.434Z" fill="#0E1931"/>
<path d="M51.1035 5.75531H54.5918V18.0522H61.1753V21.2226H51.1035V5.75531Z" fill="#0E1931"/>
<path d="M71.7488 11.7532H63.2246V15.2749H71.7488V11.7532Z" fill="#0E1931"/>
<path d="M77.2701 9.00933H90.1107V5.74689H80.658C78.1568 5.74689 77.2617 7.6207 77.2617 9.00933" fill="#0E1931"/>
<path d="M77.3794 16.1951V11.6862H80.7172V18.0103H89.601V21.2728H81.0685C77.0532 21.2728 77.3794 18.0103 77.3794 16.1951Z" fill="#0E1931"/>
<path d="M117.933 5.79712H109.258C107.769 5.79712 107.1 6.24884 107.1 8.67476V21.2645H110.814V9.00101H119.982C119.982 9.00101 120.384 5.79712 117.924 5.79712" fill="#0E1931"/>
<path d="M119.991 11.6862C119.991 11.6862 120.234 13.7524 118.812 14.4384C117.925 14.865 116.285 14.6642 116.285 14.6642L119.874 21.2728H115.834C115.834 21.2728 113.408 17.2491 112.655 15.6346C111.651 13.468 112.136 11.6862 114.763 11.6862H119.991Z" fill="#0E1931"/>
<path d="M63.1585 18.1693H75.3801V21.4318H65.3335C62.8323 21.4318 63.1585 19.5579 63.1585 18.1693Z" fill="#0E1931"/>
<path d="M63.1585 9.17669H75.3801V5.91425H65.3335C62.8323 5.91425 63.1585 7.78806 63.1585 9.17669Z" fill="#0E1931"/>
<path d="M36.6233 18.1693H48.845V21.4318H38.7983C36.2971 21.4318 36.6233 19.5579 36.6233 18.1693Z" fill="#0E1931"/>
<path d="M36.6233 9.17669H48.845V5.91425H38.7983C36.2971 5.91425 36.6233 7.78806 36.6233 9.17669Z" fill="#0E1931"/>
<path d="M40.714 28.1992V29.0692L41.7848 28.9019V28.4669C41.7848 27.6053 41.5087 27.3795 40.6471 27.3795H37.9033C37.0417 27.3795 36.7656 27.6053 36.7656 28.4669V30.8929C36.7656 31.7545 37.0417 31.9803 37.9033 31.9803H40.6471C41.5087 31.9803 41.7848 31.7545 41.7848 30.8929V30.3491L40.714 30.1233V31.1104H37.828V28.1992H40.714Z" fill="#0085C6"/>
<path d="M44.955 28.1992H48.4767V31.1104H44.955V28.1992ZM43.8926 28.4669V30.8845C43.8926 31.7461 44.1686 31.972 45.0303 31.972H48.4098C49.2714 31.972 49.5475 31.7461 49.5475 30.8845V28.4669C49.5475 27.6053 49.2714 27.3795 48.4098 27.3795H45.0303C44.1686 27.3795 43.8926 27.597 43.8926 28.4669Z" fill="#0085C6"/>
<path d="M51.7969 31.972H52.7589V29.4875C52.7589 29.3537 52.7589 29.1111 52.7171 28.7597C52.8425 28.9019 52.968 29.019 53.1019 29.1362L56.473 31.9803H57.2008V27.3878H56.2388V29.797C56.2388 29.9392 56.2555 30.2069 56.2806 30.5917C56.1217 30.4077 55.946 30.2404 55.7536 30.0898L52.5247 27.3795H51.7969V31.972Z" fill="#0085C6"/>
<path d="M63.5166 28.1741V28.7011L64.4619 28.4752V28.3749C64.4619 27.5802 64.144 27.371 63.3242 27.371H60.7143C59.8527 27.371 59.5766 27.5969 59.5766 28.4585V28.9688C59.5766 29.8304 59.8527 30.0563 60.7143 30.0563H63.5836V31.1103H60.3378V30.5666L59.3926 30.759V30.8844C59.3926 31.7461 59.677 31.9719 60.5386 31.9719H63.3828C64.2444 31.9719 64.5288 31.7461 64.5288 30.8844V30.2487C64.5288 29.3871 64.2444 29.1612 63.3828 29.1612H60.5135V28.1741H63.525H63.5166Z" fill="#0085C6"/>
<path d="M67.809 27.3795H66.7383V31.972H67.809V27.3795Z" fill="#0085C6"/>
<path d="M70.1602 31.972H72.837C73.6568 31.972 74.2759 31.8967 74.7276 31.6206C75.3717 31.2275 75.7398 30.5164 75.7398 29.6548C75.7398 28.2327 74.828 27.3878 73.1131 27.3878H70.1602V31.9803V31.972ZM71.2225 31.1103V28.1992H73.1215C74.1253 28.1992 74.6356 28.7012 74.6356 29.6297C74.6356 30.7674 73.958 31.1103 72.6028 31.1103H71.2225Z" fill="#0085C6"/>
<path d="M77.6953 31.972H82.4384V31.1104H78.7577V29.9643H80.8825V29.1863H78.7577V28.1574H82.3966V27.3795H77.6953V31.972Z" fill="#0085C6"/>
<path d="M84.4043 31.972H85.4583V30.232H86.4705L88.3192 31.972H89.8501L87.7337 30.232H88.336C89.0386 30.232 89.3649 29.981 89.3649 29.3453V28.2662C89.3649 27.622 89.0386 27.3795 88.336 27.3795H84.4043V31.972ZM87.8591 28.1658C88.1854 28.1658 88.3443 28.2327 88.3443 28.5339V29.086C88.3443 29.3871 88.1937 29.454 87.8591 29.454H85.4583V28.1742H87.8591V28.1658Z" fill="#0085C6"/>
<path d="M96.059 27.3795H94.9883V31.972H96.059V27.3795Z" fill="#0085C6"/>
<path d="M100.542 28.1992H102.658V27.3795H97.3633V28.1992H99.4713V31.972H100.542V28.1992Z" fill="#0085C6"/>
<path d="M107.4 31.972H110.077C110.897 31.972 111.516 31.8967 111.968 31.6206C112.612 31.2275 112.98 30.5164 112.98 29.6548C112.98 28.2327 112.077 27.3878 110.353 27.3878H107.4V31.9803V31.972ZM108.471 31.1103V28.1992H110.37C111.374 28.1992 111.884 28.7012 111.884 29.6297C111.884 30.7674 111.207 31.1103 109.851 31.1103H108.471Z" fill="#0085C6"/>
<path d="M115.908 28.1992H119.43V31.1104H115.908V28.1992ZM114.846 28.4669V30.8845C114.846 31.7461 115.122 31.972 115.983 31.972H119.363C120.225 31.972 120.501 31.7461 120.501 30.8845V28.4669C120.501 27.6053 120.225 27.3795 119.363 27.3795H115.983C115.122 27.3795 114.846 27.597 114.846 28.4669Z" fill="#0085C6"/>
<path d="M122.752 31.972H123.714V29.4875C123.714 29.3537 123.714 29.1111 123.672 28.7597C123.798 28.9019 123.923 29.019 124.057 29.1362L127.428 31.9803H128.156V27.3878H127.194V29.797C127.194 29.9392 127.211 30.2069 127.236 30.5917C127.077 30.4077 126.901 30.2404 126.709 30.0898L123.48 27.3795H122.752V31.972Z" fill="#0085C6"/>
<path d="M130.498 31.9719H135.241V31.1103H131.56V29.9643H133.677V29.1863H131.56V28.1574H135.191V27.3794H130.498V31.9719Z" fill="#0085C6"/>
</g>
<defs>
<clipPath id="clip0_2169_8392">
<rect width="135.45" height="31.972" fill="white"/>
</clipPath>
</defs>
</svg>
