<svg width="199" height="48" viewBox="0 0 199 48" fill="none" xmlns="http://www.w3.org/2000/svg">
<path d="M56.2749 22.8459H45.2251V26.0515H54.2227C55.3591 26.0515 56.2749 25.1356 56.2749 23.9993V22.8544V22.8459Z" fill="white"/>
<path d="M45.2251 18.6991V19.6404H58.2678V16.4348H47.4893C46.2343 16.4348 45.2251 17.4525 45.2251 18.6991Z" fill="white"/>
<path d="M45.2251 30.1898V29.2485H58.2678V32.4541H47.4893C46.2343 32.4541 45.2251 31.4365 45.2251 30.1898Z" fill="white"/>
<path d="M64.3142 16.4349H61.1086V30.3934C61.1086 31.5298 62.0245 32.4457 63.1609 32.4457H74.1513V29.2401H64.3057V16.4264L64.3142 16.4349Z" fill="white"/>
<path d="M103.29 29.2486H95.7168V22.8459H92.5112V30.1899C92.5112 31.445 93.5289 32.4541 94.7755 32.4541H105.554V31.5213C105.554 30.2747 104.536 29.2571 103.29 29.2571" fill="white"/>
<path d="M94.7755 16.4348C93.5289 16.4348 92.5112 17.4525 92.5112 18.6991V19.6404H103.29C104.536 19.6404 105.554 18.6227 105.554 17.3761V16.4348H94.7755Z" fill="white"/>
<path d="M121.599 16.4348H108.556V19.6404H121.599V16.4348Z" fill="white"/>
<path d="M116.68 22.8459H113.475V32.4541H116.68V22.8459Z" fill="white"/>
<path d="M140.637 22.8459V32.4541H143.843V26.043H150.483V32.4541H153.68V22.8459H140.637Z" fill="white"/>
<mask id="mask0_4007_761" style="mask-type:luminance" maskUnits="userSpaceOnUse" x="9" y="8" width="190" height="33">
<path d="M198.32 8.38696H9.95557V40.2983H198.32V8.38696Z" fill="white"/>
</mask>
<g mask="url(#mask0_4007_761)">
<path d="M151.415 16.4347H142.901C141.655 16.4347 140.637 17.4524 140.637 18.699V19.6318H153.68V18.6905C153.68 17.4439 152.662 16.4263 151.415 16.4263" fill="white"/>
<path d="M130.647 22.8458C129.926 22.8458 129.426 23.5667 129.672 24.2451L132.699 32.454H136.27L133.776 26.0514H135.668C136.719 26.0514 137.576 25.2458 137.576 24.1942V22.8458H130.647Z" fill="white"/>
<path d="M137.575 19.6404V18.6991C137.575 17.4525 136.558 16.4348 135.311 16.4348H126.797C125.55 16.4348 124.533 17.4525 124.533 18.6991V32.4456H127.738V20.4714C127.738 20.0644 128.027 19.7167 128.408 19.6319H137.575V19.6404Z" fill="white"/>
<path d="M87.5249 22.8458H76.4751V26.0514H85.4727C86.6091 26.0514 87.5249 25.1355 87.5249 23.9991V22.8543V22.8458Z" fill="white"/>
<path d="M76.4666 18.6991V19.6404H89.5093V16.4348H78.7308C77.4757 16.4348 76.4666 17.4525 76.4666 18.6991Z" fill="white"/>
<path d="M76.4666 30.1898V29.2485H89.5093V32.454H78.7308C77.4757 32.454 76.4666 31.4364 76.4666 30.1898Z" fill="white"/>
</g>
<mask id="mask1_4007_761" style="mask-type:luminance" maskUnits="userSpaceOnUse" x="10" y="10" width="28" height="28">
<path d="M10.8715 23.2275V24.6183C11.2191 31.5213 16.7313 37.0589 23.6173 37.4575H25.2032C32.1316 37.0589 37.6692 31.445 37.9491 24.4826L19.4281 32.9205C19.0634 31.9029 19.2754 30.7241 20.0895 29.91C20.2846 29.7065 20.522 29.5369 20.7595 29.4097L35.5322 22.6085C36.8551 21.9894 37.7625 20.6495 37.7625 19.0976C37.7625 18.716 37.7201 18.3344 37.6183 17.9867L19.4281 26.3483C19.0634 25.3307 19.2839 24.1434 20.098 23.3293C20.3015 23.1258 20.5305 22.9647 20.7595 22.8374L35.5237 16.0447C36.8466 15.4257 37.754 14.0858 37.754 12.5339C37.754 12.1523 37.7031 11.7707 37.6014 11.423L19.4281 19.7845C19.0634 18.7669 19.2839 17.5797 20.098 16.7656C20.3015 16.562 20.522 16.3755 20.7595 16.2483L30.427 11.7961C28.6122 10.8887 26.56 10.3799 24.3891 10.3799C17.1384 10.3799 11.2191 16.0702 10.8545 23.236" fill="white"/>
</mask>
<g mask="url(#mask1_4007_761)">
<path d="M33.115 0.00024931L0.496582 15.2104L15.7068 47.8288L48.3252 32.6186L33.115 0.00024931Z" fill="url(#paint0_linear_4007_761)"/>
</g>
<mask id="mask2_4007_761" style="mask-type:luminance" maskUnits="userSpaceOnUse" x="9" y="8" width="190" height="33">
<path d="M198.32 8.38696H9.95557V40.2983H198.32V8.38696Z" fill="white"/>
</mask>
<g mask="url(#mask2_4007_761)">
<path d="M176.279 29.2485H168.707V22.8458H165.501V30.1898C165.501 31.4448 166.519 32.454 167.765 32.454H178.544V31.5212C178.544 30.2746 177.526 29.2569 176.279 29.2569" fill="white"/>
<path d="M167.765 16.4348C166.519 16.4348 165.501 17.4525 165.501 18.6991V19.6404H176.279C177.526 19.6404 178.544 18.6227 178.544 17.3761V16.4348H167.765Z" fill="white"/>
<path d="M192.765 16.4347H184.251C183.004 16.4347 181.986 17.4524 181.986 18.699V19.6318H195.029V18.6905C195.029 17.4439 194.011 16.4263 192.765 16.4263M195.029 22.8459V23.9907C195.029 25.1271 194.105 26.0429 192.977 26.0429H185.124V32.4625H181.986V22.8374H195.029V22.8459Z" fill="white"/>
</g>
<defs>
<linearGradient id="paint0_linear_4007_761" x1="22.0436" y1="12.0698" x2="33.5014" y2="36.6412" gradientUnits="userSpaceOnUse">
<stop stop-color="#B17F2C"/>
<stop offset="0.22" stop-color="#B58432"/>
<stop offset="0.54" stop-color="#C09546"/>
<stop offset="0.6" stop-color="#C3994B"/>
<stop offset="0.63" stop-color="#C8A155"/>
<stop offset="0.68" stop-color="#D7B770"/>
<stop offset="0.75" stop-color="#EFDA9C"/>
<stop offset="0.78" stop-color="#FFF1B8"/>
<stop offset="0.81" stop-color="#F8E7AC"/>
<stop offset="0.87" stop-color="#E7CE8D"/>
<stop offset="0.94" stop-color="#CBA55B"/>
<stop offset="1" stop-color="#B17F2C"/>
</linearGradient>
</defs>
</svg>
