<svg width="340" height="82" viewBox="0 0 340 82" fill="none" xmlns="http://www.w3.org/2000/svg">
<path d="M81.2219 39.1681H62.2776V44.6638H77.7035C79.6517 44.6638 81.2219 43.0936 81.2219 41.1454V39.1826V39.1681Z" fill="white"/>
<path d="M62.2776 32.0584V33.6723H84.6386V28.1765H66.1595C64.0077 28.1765 62.2776 29.9212 62.2776 32.0584Z" fill="white"/>
<path d="M62.2776 51.7588V50.145H84.6386V55.6408H66.1595C64.0077 55.6408 62.2776 53.8961 62.2776 51.7588Z" fill="white"/>
<path d="M95.0047 28.1765H89.5089V52.1077C89.5089 54.056 91.0791 55.6262 93.0273 55.6262H111.87V50.1304H94.9901V28.162L95.0047 28.1765Z" fill="white"/>
<path d="M161.826 50.145H148.843V39.1681H143.347V51.7589C143.347 53.9106 145.092 55.6408 147.229 55.6408H165.708V54.0415C165.708 51.9043 163.963 50.1596 161.826 50.1596" fill="white"/>
<path d="M147.229 28.1765C145.092 28.1765 143.347 29.9212 143.347 32.0584V33.6723H161.826C163.963 33.6723 165.708 31.9276 165.708 29.7903V28.1765H147.229Z" fill="white"/>
<path d="M193.216 28.1765H170.855V33.6723H193.216V28.1765Z" fill="white"/>
<path d="M184.783 39.1681H179.287V55.6408H184.783V39.1681Z" fill="white"/>
<path d="M225.856 39.1681V55.6408H231.352V44.6493H242.736V55.6408H248.217V39.1681H225.856Z" fill="white"/>
<mask id="mask0_118_3169" style="mask-type:luminance" maskUnits="userSpaceOnUse" x="1" y="14" width="324" height="56">
<path d="M324.75 14.379H1.80969V69.0893H324.75V14.379Z" fill="white"/>
</mask>
<g mask="url(#mask0_118_3169)">
<path d="M244.335 28.1765H229.737C227.6 28.1765 225.855 29.9212 225.855 32.0584V33.6577H248.216V32.0439C248.216 29.9067 246.472 28.162 244.335 28.162" fill="white"/>
<path d="M208.729 39.168C207.493 39.168 206.635 40.4038 207.057 41.5669L212.247 55.6407H218.368L214.094 44.6637H217.336C219.139 44.6637 220.607 43.2825 220.607 41.4797V39.168H208.729Z" fill="white"/>
<path d="M220.607 33.6723V32.0584C220.607 29.9212 218.862 28.1765 216.725 28.1765H202.128C199.991 28.1765 198.246 29.9212 198.246 32.0584V55.6262H203.742V35.0971C203.742 34.3992 204.236 33.8031 204.89 33.6577H220.607V33.6723Z" fill="white"/>
<path d="M134.798 39.168H115.854V44.6637H131.279C133.228 44.6637 134.798 43.0935 134.798 41.1453V39.1825V39.168Z" fill="white"/>
<path d="M115.839 32.0588V33.6726H138.2V28.1769H119.721C117.569 28.1769 115.839 29.9216 115.839 32.0588Z" fill="white"/>
<path d="M115.839 51.7588V50.145H138.2V55.6408H119.721C117.569 55.6408 115.839 53.8961 115.839 51.7588Z" fill="white"/>
</g>
<mask id="mask1_118_3169" style="mask-type:luminance" maskUnits="userSpaceOnUse" x="3" y="17" width="47" height="48">
<path d="M3.38003 39.8222V42.2066C3.97613 54.0414 13.4265 63.5354 25.2322 64.2187H27.9509C39.8293 63.5354 49.3233 53.9105 49.8031 41.974L18.0499 56.4403C17.4247 54.6957 17.7882 52.6747 19.1839 51.279C19.5183 50.9301 19.9254 50.6393 20.3325 50.4212L45.6595 38.7609C47.9276 37.6996 49.4832 35.4024 49.4832 32.7418C49.4832 32.0875 49.4105 31.4332 49.2361 30.8371L18.0499 45.1726C17.4247 43.4279 17.8027 41.3925 19.1985 39.9967C19.5474 39.6478 19.94 39.3715 20.3325 39.1535L45.6449 27.5077C47.913 26.4464 49.4687 24.1492 49.4687 21.4886C49.4687 20.8343 49.3815 20.1801 49.207 19.584L18.0499 33.9194C17.4247 32.1747 17.8027 30.1393 19.1985 28.7435C19.5474 28.3946 19.9254 28.0747 20.3325 27.8566L36.907 20.2237C33.7956 18.668 30.2772 17.7957 26.5552 17.7957C14.1244 17.7957 3.97613 27.5513 3.35095 39.8368" fill="white"/>
</mask>
<g mask="url(#mask1_118_3169)">
<path d="M41.5152 0.000347304L-14.4072 26.0774L11.6698 81.9998L67.5922 55.9228L41.5152 0.000347304Z" fill="url(#paint0_linear_118_3169)"/>
</g>
<mask id="mask2_118_3169" style="mask-type:luminance" maskUnits="userSpaceOnUse" x="1" y="14" width="324" height="56">
<path d="M324.75 14.379H1.80969V69.0893H324.75V14.379Z" fill="white"/>
</mask>
<g mask="url(#mask2_118_3169)">
<path d="M286.963 50.1449H273.98V39.168H268.484V51.7587C268.484 53.9105 270.229 55.6407 272.366 55.6407H290.845V54.0414C290.845 51.9041 289.1 50.1595 286.963 50.1595" fill="white"/>
<path d="M272.366 28.1769C270.229 28.1769 268.484 29.9216 268.484 32.0588V33.6726H286.963C289.1 33.6726 290.845 31.9279 290.845 29.7907V28.1769H272.366Z" fill="white"/>
<path d="M315.227 28.1765H300.63C298.492 28.1765 296.748 29.9212 296.748 32.0584V33.6577H319.109V32.0439C319.109 29.9067 317.364 28.162 315.227 28.162M319.109 39.168V41.1308C319.109 43.079 317.524 44.6492 315.59 44.6492H302.127V55.6552H296.748V39.1535H319.109V39.168Z" fill="white"/>
</g>
<defs>
<linearGradient id="paint0_linear_118_3169" x1="-5.48301" y1="24.905" x2="42.1778" y2="62.8193" gradientUnits="userSpaceOnUse">
<stop stop-color="#B17F2C"/>
<stop offset="0.22" stop-color="#B58432"/>
<stop offset="0.54" stop-color="#C09546"/>
<stop offset="0.6" stop-color="#C3994B"/>
<stop offset="0.63" stop-color="#C8A155"/>
<stop offset="0.68" stop-color="#D7B770"/>
<stop offset="0.75" stop-color="#EFDA9C"/>
<stop offset="0.78" stop-color="#FFF1B8"/>
<stop offset="0.81" stop-color="#F8E7AC"/>
<stop offset="0.87" stop-color="#E7CE8D"/>
<stop offset="0.94" stop-color="#CBA55B"/>
<stop offset="1" stop-color="#B17F2C"/>
</linearGradient>
</defs>
</svg>
