<svg width="272" height="64" viewBox="0 0 272 64" fill="none" xmlns="http://www.w3.org/2000/svg">
<g clip-path="url(#clip0_118_3443)">
<path d="M0 27.0937C0 12.1235 12.1235 0 27.0769 0C30.9785 0 34.6792 0.820513 38.0283 2.31083L22.7064 10.0638C22.7064 10.0638 19.7593 11.6546 18.9555 13.4464C18.2522 15.0539 18.1852 16.293 18.7713 17.9508L54.2208 0.217687C54.2208 0.217687 55.0581 4.68864 53.8189 7.04971C52.8645 8.87493 50.0178 10.7169 50.0178 10.7169L21.7352 24.5484C21.7352 24.5484 19.9602 25.6033 19.2737 26.675C18.202 28.3496 18.0513 29.8901 18.7546 31.7321L54.9241 14.6688C54.9241 14.6688 55.7949 19.4076 54.1706 21.5845C53.2831 22.7734 51.1397 23.8619 51.1397 23.8619L22.2878 37.7436C22.2878 37.7436 19.7425 39.1167 18.9723 40.6572C18.1518 42.315 18.0848 43.6881 18.7546 45.4129L54.1204 28.4668C53.4003 42.7839 41.5782 54.1706 27.0769 54.1706C12.5756 54.1706 0 42.0471 0 27.0937Z" fill="white"/>
<path d="M90.4912 23.527H73.4279V30.5767H90.4912V23.527Z" fill="white"/>
<path d="M211.408 11.5207H185.202V18.0513H211.408V11.5207Z" fill="white"/>
<path d="M249.336 11.5207H266.784C270.702 11.5207 271.138 14.6353 271.138 18.0346H245.082C245.082 14.1664 244.948 11.5207 249.336 11.5207Z" fill="white"/>
<path d="M201.763 23.3929H194.429V42.5828H201.763V23.3929Z" fill="white"/>
<path d="M245.083 42.583V23.3763H270.719V42.583H264.34V31.0623H251.362V42.583H245.083Z" fill="white"/>
<path d="M102.297 11.5207H109.279V36.1361H122.458V42.4825H102.297V11.5207Z" fill="white"/>
<path d="M143.623 23.527H126.56V30.5767H143.623V23.527Z" fill="white"/>
<path d="M154.675 18.0345H180.379V11.5039H161.457C156.45 11.5039 154.659 15.2548 154.659 18.0345" fill="white"/>
<path d="M154.893 32.4186V23.3929H161.574V36.0523H179.358V42.5829H162.278C154.24 42.5829 154.893 36.0523 154.893 32.4186Z" fill="white"/>
<path d="M236.074 11.6044H218.709C215.728 11.6044 214.389 12.5087 214.389 17.3648V42.5662H221.823V18.0178H240.176C240.176 18.0178 240.98 11.6044 236.057 11.6044" fill="white"/>
<path d="M240.193 23.3929C240.193 23.3929 240.678 27.529 237.832 28.9021C236.057 29.7561 232.775 29.3542 232.775 29.3542L239.958 42.5829H231.87C231.87 42.5829 227.014 34.5285 225.507 31.2967C223.498 26.9597 224.469 23.3929 229.727 23.3929H240.193Z" fill="white"/>
<path d="M126.426 36.3704H150.891V42.901H130.78C125.773 42.901 126.426 39.1501 126.426 36.3704Z" fill="white"/>
<path d="M126.426 18.3695H150.891V11.8389H130.78C125.773 11.8389 126.426 15.5898 126.426 18.3695Z" fill="white"/>
<path d="M73.3102 36.3704H97.7749V42.901H77.6639C72.6571 42.901 73.3102 39.1501 73.3102 36.3704Z" fill="white"/>
<path d="M73.3102 18.3695H97.7749V11.8389H77.6639C72.6571 11.8389 73.3102 15.5898 73.3102 18.3695Z" fill="white"/>
<path d="M81.4987 56.4479V58.1894L83.6421 57.8545V56.9838C83.6421 55.259 83.0895 54.8069 81.3647 54.8069H75.8723C74.1476 54.8069 73.595 55.259 73.595 56.9838V61.8399C73.595 63.5646 74.1476 64.0167 75.8723 64.0167H81.3647C83.0895 64.0167 83.6421 63.5646 83.6421 61.8399V60.7514L81.4987 60.2993V62.2752H75.7216V56.4479H81.4987Z" fill="white"/>
<path d="M89.9885 56.4479H97.0382V62.2752H89.9885V56.4479ZM87.8618 56.9838V61.8231C87.8618 63.5479 88.4144 64 90.1392 64H96.9042C98.629 64 99.1815 63.5479 99.1815 61.8231V56.9838C99.1815 55.259 98.629 54.8069 96.9042 54.8069H90.1392C88.4144 54.8069 87.8618 55.2423 87.8618 56.9838Z" fill="white"/>
<path d="M103.686 64H105.612V59.0267C105.612 58.7587 105.612 58.2731 105.528 57.5698C105.779 57.8545 106.03 58.0889 106.298 58.3234L113.046 64.0167H114.503V54.8236H112.578V59.6462C112.578 59.9309 112.611 60.4667 112.661 61.237C112.343 60.8686 111.992 60.5337 111.606 60.2323L105.143 54.8069H103.686V64Z" fill="white"/>
<path d="M127.146 56.3976V57.4526L129.038 57.0005V56.7995C129.038 55.2087 128.402 54.7901 126.761 54.7901H121.536C119.812 54.7901 119.259 55.2422 119.259 56.967V57.9884C119.259 59.7132 119.812 60.1653 121.536 60.1653H127.28V62.2752H120.783V61.1867L118.891 61.5719V61.8231C118.891 63.5478 119.46 63.9999 121.185 63.9999H126.878C128.603 63.9999 129.172 63.5478 129.172 61.8231V60.5504C129.172 58.8257 128.603 58.3736 126.878 58.3736H121.134V56.3976H127.163H127.146Z" fill="white"/>
<path d="M135.737 54.8069H133.593V64H135.737V54.8069Z" fill="white"/>
<path d="M140.442 64H145.801C147.442 64 148.681 63.8492 149.585 63.2967C150.874 62.5096 151.611 61.0863 151.611 59.3615C151.611 56.5149 149.786 54.8236 146.353 54.8236H140.442V64.0167V64ZM142.569 62.2752V56.4479H146.37C148.379 56.4479 149.401 57.4526 149.401 59.3113C149.401 61.5886 148.044 62.2752 145.332 62.2752H142.569Z" fill="white"/>
<path d="M155.529 64H165.023V62.2752H157.655V59.9811H161.909V58.4238H157.655V56.3642H164.94V54.8069H155.529V64Z" fill="white"/>
<path d="M168.958 64H171.068V60.517H173.095L176.795 64H179.86L175.623 60.517H176.829C178.235 60.517 178.888 60.0146 178.888 58.742V56.5819C178.888 55.2925 178.235 54.8069 176.829 54.8069H168.958V64ZM175.874 56.3809C176.527 56.3809 176.845 56.5149 176.845 57.1177V58.2229C176.845 58.8257 176.544 58.9597 175.874 58.9597H171.068V56.3977H175.874V56.3809Z" fill="white"/>
<path d="M192.285 54.8069H190.141V64H192.285V54.8069Z" fill="white"/>
<path d="M201.26 56.4479H205.497V54.8069H194.897V56.4479H199.117V64H201.26V56.4479Z" fill="white"/>
<path d="M214.991 64H220.349C221.99 64 223.23 63.8492 224.134 63.2967C225.423 62.5096 226.16 61.0863 226.16 59.3615C226.16 56.5149 224.352 54.8236 220.902 54.8236H214.991V64.0167V64ZM217.134 62.2752V56.4479H220.936C222.945 56.4479 223.966 57.4526 223.966 59.3113C223.966 61.5886 222.61 62.2752 219.897 62.2752H217.134Z" fill="white"/>
<path d="M232.021 56.4479H239.071V62.2752H232.021V56.4479ZM229.894 56.9838V61.8231C229.894 63.5479 230.447 64 232.172 64H238.937C240.662 64 241.214 63.5479 241.214 61.8231V56.9838C241.214 55.259 240.662 54.8069 238.937 54.8069H232.172C230.447 54.8069 229.894 55.2423 229.894 56.9838Z" fill="white"/>
<path d="M245.719 64H247.644V59.0267C247.644 58.7587 247.644 58.2731 247.56 57.5698C247.812 57.8545 248.063 58.0889 248.331 58.3234L255.079 64.0167H256.536V54.8236H254.61V59.6462C254.61 59.9309 254.644 60.4667 254.694 61.237C254.376 60.8686 254.024 60.5337 253.639 60.2323L247.175 54.8069H245.719V64Z" fill="white"/>
<path d="M261.225 64H270.72V62.2752H263.352V59.9811H267.588V58.4238H263.352V56.3642H270.619V54.8069H261.225V64Z" fill="white"/>
</g>
<defs>
<clipPath id="clip0_118_3443">
<rect width="271.138" height="64" fill="white"/>
</clipPath>
</defs>
</svg>
