<svg width="195" height="46" viewBox="0 0 195 46" fill="none" xmlns="http://www.w3.org/2000/svg">
<g clip-path="url(#clip0_2308_3948)">
<path d="M0 19.4736C0 8.71376 8.71376 0 19.4615 0C22.2658 0 24.9257 0.589744 27.3328 1.66091L16.3202 7.23339C16.3202 7.23339 14.202 8.37676 13.6243 9.66457C13.1188 10.82 13.0706 11.7106 13.4919 12.9021L38.9712 0.156463C38.9712 0.156463 39.573 3.36996 38.6824 5.06698C37.9963 6.37886 35.9503 7.70277 35.9503 7.70277L15.6222 17.6442C15.6222 17.6442 14.3464 18.4024 13.853 19.1727C13.0827 20.3762 12.9744 21.4835 13.4799 22.8074L39.4767 10.5432C39.4767 10.5432 40.1026 13.9492 38.9351 15.5139C38.2972 16.3684 36.7567 17.1507 36.7567 17.1507L16.0194 27.1282C16.0194 27.1282 14.19 28.1151 13.6363 29.2224C13.0466 30.4139 12.9984 31.4008 13.4799 32.6405L38.899 20.4605C38.3815 30.7509 29.8843 38.9351 19.4615 38.9351C9.03872 38.9351 0 30.2213 0 19.4736Z" fill="#0085C6"/>
<path d="M65.0406 16.9099H52.7764V21.9769H65.0406V16.9099Z" fill="white"/>
<path d="M151.949 8.28076H133.113V12.9746H151.949V8.28076Z" fill="white"/>
<path d="M179.211 8.28076H191.752C194.568 8.28076 194.881 10.5194 194.881 12.9626H176.154C176.154 10.1824 176.057 8.28076 179.211 8.28076Z" fill="white"/>
<path d="M145.017 16.8137H139.745V30.6065H145.017V16.8137Z" fill="white"/>
<path d="M176.153 30.6066V16.8018H194.58V30.6066H189.994V22.3261H180.667V30.6066H176.153Z" fill="white"/>
<path d="M73.5254 8.28076H78.5442V25.9731H88.0162V30.5346H73.5254V8.28076Z" fill="white"/>
<path d="M103.229 16.9099H90.9648V21.9769H103.229V16.9099Z" fill="white"/>
<path d="M111.173 12.9624H129.648V8.26855H116.048C112.449 8.26855 111.161 10.9645 111.161 12.9624" fill="white"/>
<path d="M111.329 23.3009V16.8137H116.131V25.9126H128.912V30.6065H116.636C110.859 30.6065 111.329 25.9126 111.329 23.3009Z" fill="white"/>
<path d="M169.678 8.34058H157.197C155.055 8.34058 154.092 8.9905 154.092 12.4808V30.5944H159.436V12.9502H172.627C172.627 12.9502 173.204 8.34058 169.666 8.34058" fill="white"/>
<path d="M172.639 16.8137C172.639 16.8137 172.988 19.7865 170.942 20.7734C169.666 21.3872 167.307 21.0984 167.307 21.0984L172.47 30.6065H166.657C166.657 30.6065 163.167 24.8174 162.084 22.4945C160.639 19.3773 161.337 16.8137 165.116 16.8137H172.639Z" fill="white"/>
<path d="M90.8687 26.1411H108.453V30.835H93.998C90.3993 30.835 90.8687 28.139 90.8687 26.1411Z" fill="white"/>
<path d="M90.8687 13.2032H108.453V8.50928H93.998C90.3993 8.50928 90.8687 11.2052 90.8687 13.2032Z" fill="white"/>
<path d="M52.692 26.1411H70.276V30.835H55.8212C52.2226 30.835 52.692 28.139 52.692 26.1411Z" fill="white"/>
<path d="M52.692 13.2032H70.276V8.50928H55.8212C52.2226 8.50928 52.692 11.2052 52.692 13.2032Z" fill="white"/>
<path d="M58.5773 40.5718V41.8235L60.1178 41.5828V40.957C60.1178 39.7173 59.7207 39.3923 58.481 39.3923H54.5333C53.2937 39.3923 52.8965 39.7173 52.8965 40.957V44.4473C52.8965 45.6869 53.2937 46.0119 54.5333 46.0119H58.481C59.7207 46.0119 60.1178 45.6869 60.1178 44.4473V43.665L58.5773 43.34V44.7602H54.425V40.5718H58.5773Z" fill="#0085C6"/>
<path d="M64.6799 40.5718H69.7469V44.7602H64.6799V40.5718ZM63.1514 40.957V44.4352C63.1514 45.6749 63.5485 45.9999 64.7882 45.9999H69.6506C70.8902 45.9999 71.2874 45.6749 71.2874 44.4352V40.957C71.2874 39.7173 70.8902 39.3923 69.6506 39.3923H64.7882C63.5485 39.3923 63.1514 39.7053 63.1514 40.957Z" fill="#0085C6"/>
<path d="M74.5244 45.9999H75.9085V42.4253C75.9085 42.2327 75.9085 41.8837 75.8483 41.3782C76.0289 41.5828 76.2094 41.7513 76.402 41.9198L81.2523 46.0119H82.2994V39.4044H80.9153V42.8706C80.9153 43.0752 80.9394 43.4604 80.9755 44.014C80.7468 43.7492 80.4941 43.5085 80.2172 43.2919L75.5715 39.3923H74.5244V45.9999Z" fill="#0085C6"/>
<path d="M91.3867 40.5358V41.294L92.7467 40.9691V40.8246C92.7467 39.6813 92.2893 39.3804 91.1098 39.3804H87.3547C86.1151 39.3804 85.7179 39.7053 85.7179 40.945V41.6792C85.7179 42.9188 86.1151 43.2438 87.3547 43.2438H91.483V44.7603H86.8131V43.978L85.4531 44.2548V44.4353C85.4531 45.675 85.8623 45.9999 87.102 45.9999H91.1941C92.4338 45.9999 92.843 45.675 92.843 44.4353V43.5206C92.843 42.2809 92.4338 41.956 91.1941 41.956H87.0659V40.5358H91.3987H91.3867Z" fill="#0085C6"/>
<path d="M97.5611 39.3923H96.0205V45.9999H97.5611V39.3923Z" fill="#0085C6"/>
<path d="M100.942 45.9998H104.794C105.973 45.9998 106.864 45.8915 107.514 45.4943C108.441 44.9286 108.97 43.9056 108.97 42.6659C108.97 40.6199 107.658 39.4043 105.191 39.4043H100.942V46.0118V45.9998ZM102.471 44.7601V40.5717H105.203C106.647 40.5717 107.381 41.2939 107.381 42.6298C107.381 44.2667 106.407 44.7601 104.457 44.7601H102.471Z" fill="#0085C6"/>
<path d="M111.786 45.9999H118.61V44.7602H113.315V43.1113H116.372V41.992H113.315V40.5116H118.55V39.3923H111.786V45.9999Z" fill="#0085C6"/>
<path d="M121.439 45.9999H122.956V43.4965H124.412L127.072 45.9999H129.275L126.23 43.4965H127.096C128.107 43.4965 128.577 43.1354 128.577 42.2207V40.6681C128.577 39.7414 128.107 39.3923 127.096 39.3923H121.439V45.9999ZM126.41 40.5237C126.88 40.5237 127.108 40.62 127.108 41.0532V41.8476C127.108 42.2809 126.892 42.3772 126.41 42.3772H122.956V40.5357H126.41V40.5237Z" fill="#0085C6"/>
<path d="M138.205 39.3923H136.664V45.9999H138.205V39.3923Z" fill="#0085C6"/>
<path d="M144.657 40.5718H147.702V39.3923H140.083V40.5718H143.116V45.9999H144.657V40.5718Z" fill="#0085C6"/>
<path d="M154.525 45.9998H158.377C159.556 45.9998 160.447 45.8915 161.097 45.4943C162.024 44.9286 162.553 43.9056 162.553 42.6659C162.553 40.6199 161.253 39.4043 158.774 39.4043H154.525V46.0118V45.9998ZM156.066 44.7601V40.5717H158.798C160.242 40.5717 160.976 41.2939 160.976 42.6298C160.976 44.2667 160.002 44.7601 158.052 44.7601H156.066Z" fill="#0085C6"/>
<path d="M166.766 40.5718H171.833V44.7602H166.766V40.5718ZM165.237 40.957V44.4352C165.237 45.6749 165.634 45.9999 166.874 45.9999H171.737C172.976 45.9999 173.373 45.6749 173.373 44.4352V40.957C173.373 39.7173 172.976 39.3923 171.737 39.3923H166.874C165.634 39.3923 165.237 39.7053 165.237 40.957Z" fill="#0085C6"/>
<path d="M176.61 45.9999H177.994V42.4253C177.994 42.2327 177.994 41.8837 177.934 41.3782C178.115 41.5828 178.295 41.7513 178.488 41.9198L183.338 46.0119H184.385V39.4044H183.001V42.8706C183.001 43.0752 183.025 43.4604 183.061 44.014C182.833 43.7492 182.58 43.5085 182.303 43.2919L177.657 39.3923H176.61V45.9999Z" fill="#0085C6"/>
<path d="M187.755 45.9999H194.579V44.7602H189.283V43.1113H192.328V41.992H189.283V40.5116H194.507V39.3923H187.755V45.9999Z" fill="#0085C6"/>
</g>
<defs>
<clipPath id="clip0_2308_3948">
<rect width="194.88" height="46" fill="white"/>
</clipPath>
</defs>
</svg>
