<svg width="120" height="76" viewBox="0 0 120 76" fill="none" xmlns="http://www.w3.org/2000/svg">
<g clip-path="url(#clip0_2005_2960)">
<path d="M23.5175 20.7067H0.000488281V26.0559H23.3912C23.7422 28.9341 24.4582 31.4052 25.5112 34.0868H0.000488281V39.4361H29.0212C33.7246 44.7432 39.9864 47.7899 47.1609 47.7899C52.0468 47.7899 56.2167 46.4139 60.3304 43.8306C64.4442 46.4139 68.614 47.7899 73.5 47.7899C80.6744 47.7899 86.9222 44.7432 91.6396 39.4361H120.029V34.0868H95.1356C96.2027 31.4052 96.9047 28.9341 97.2697 26.0559H120.029V20.7067H97.1293C96.6379 17.8566 95.7955 15.4136 94.6161 12.7881H120.029V7.43887H90.6849C86.0236 2.76355 80.169 0.124023 73.5 0.124023C68.614 0.124023 64.4442 1.49994 60.3304 4.08331C56.2167 1.49994 52.0468 0.124023 47.1609 0.124023C40.5059 0.124023 34.6372 2.74951 29.9759 7.43887H0.000488281V12.7881H26.0307C24.8373 15.4136 24.0089 17.8566 23.5175 20.7067ZM65.7639 7.15807C68.1086 6.07699 70.7341 5.47327 73.4859 5.47327C83.693 5.47327 91.9766 13.7428 91.9766 23.964C91.9766 34.1851 83.693 42.4547 73.4859 42.4547C70.1023 42.4547 67.6312 41.6263 64.6126 40.2363C68.6842 35.3785 70.9868 30.4364 70.9868 23.964C70.9868 17.4915 68.6842 12.5494 64.6126 7.69159L65.7639 7.15807ZM54.9952 23.9499C54.9952 18.699 56.9327 14.7818 60.3164 10.9208C63.7 14.7678 65.6376 18.699 65.6376 23.9499C65.6376 29.2009 63.7 33.1181 60.3164 36.965C56.9327 33.1181 54.9952 29.1869 54.9952 23.9499ZM49.646 23.9499C49.646 30.4224 51.9485 35.3645 56.0201 40.2223C53.0015 41.6123 50.5305 42.4406 47.1469 42.4406C36.9398 42.4406 28.6562 34.1711 28.6562 23.9499C28.6562 13.7288 36.9398 5.45923 47.1469 5.45923C50.5305 5.45923 53.0015 6.28759 56.0201 7.67755C51.9485 12.5354 49.646 17.4775 49.646 23.9499Z" fill="#2059CE"/>
<path d="M37.8385 71.5597V75.3224H25.4973V55.3716H37.6981V59.1343H29.4285V63.3884H36.982V67.081H29.4285V71.5597H37.8385Z" fill="#2059CE"/>
<path d="M53.5634 71.5597V75.3224H42.0225V55.3716H45.9537V71.5597H53.5634Z" fill="#2059CE"/>
<path d="M55.0796 65.3536C55.0796 59.513 59.4039 54.978 65.4552 54.978C69.1056 54.978 72.3207 56.8313 74.0336 59.6814L70.65 61.647C69.6812 59.878 67.7437 58.7969 65.4692 58.7969C61.5661 58.7969 58.9968 61.5066 58.9968 65.3536C58.9968 69.2006 61.5661 71.8822 65.4692 71.8822C67.7437 71.8822 69.7093 70.8011 70.65 69.0602L74.0336 71.0258C72.3488 73.8759 69.1336 75.7292 65.4552 75.7292C59.418 75.7292 55.0796 71.1662 55.0796 65.3536Z" fill="#2059CE"/>
<path d="M92.1733 65.3536C92.1733 61.5066 89.3513 58.7969 85.729 58.7969C82.1066 58.7969 79.2846 61.5066 79.2846 65.3536C79.2846 69.2006 82.1066 71.8822 85.729 71.8822C89.3513 71.8822 92.1733 69.1725 92.1733 65.3536ZM75.3955 65.3536C75.3955 59.513 79.9866 54.978 85.743 54.978C91.4994 54.978 96.1186 59.513 96.1186 65.3536C96.1186 71.1942 91.4994 75.7292 85.743 75.7292C79.9866 75.7292 75.3955 71.1662 75.3955 65.3536Z" fill="#2059CE"/>
</g>
<defs>
<clipPath id="clip0_2005_2960">
<rect width="120" height="75.5914" fill="white" transform="translate(0 0.124023)"/>
</clipPath>
</defs>
</svg>
