<svg width="155" height="21" viewBox="0 0 155 21" fill="none" xmlns="http://www.w3.org/2000/svg">
<g clip-path="url(#clip0_104_945)">
<path d="M53.1613 12.5661V16.8636H54.5794C54.9416 16.8486 55.294 16.7422 55.6039 16.5543C55.9139 16.3665 56.1713 16.1033 56.3522 15.7892C56.5033 15.4512 56.5814 15.0851 56.5814 14.7149C56.5814 14.3446 56.5033 13.9785 56.3522 13.6405C56.1932 13.3175 55.9419 13.0491 55.6301 12.8693C55.3183 12.6894 54.9601 12.6063 54.6009 12.6306L53.1613 12.5661ZM140.111 4.15369V9.0851H141.346C141.789 9.13463 142.236 9.03465 142.616 8.80104C142.995 8.56743 143.286 8.21361 143.441 7.79584C143.753 7.00538 143.753 6.12598 143.441 5.33551C143.264 4.94101 142.965 4.6136 142.588 4.40101C142.211 4.18842 141.776 4.10177 141.346 4.15369H140.111ZM117.055 4.15369V9.0851H118.29C118.742 9.14746 119.201 9.05361 119.592 8.81911C119.983 8.58462 120.282 8.22357 120.439 7.79584C120.756 7.00643 120.756 6.12493 120.439 5.33551C120.26 4.93008 119.953 4.59475 119.564 4.38118C119.176 4.16762 118.728 4.08768 118.29 4.15369H117.055ZM15.1604 21V15.2413H10.6588V0.199972H0.237305V21H15.1604ZM16.1596 0.199972H26.2588V21H16.1596V0.199972ZM42.3637 21V16.219H37.8406V12.4372H42.2885V8.3008H37.8406V4.29336H42.3423V0.199972H27.5803V21H42.3637ZM80.1927 21H90.4852V0.199972H80.1927V8.07518H76.8621V0.199972H66.3547V21H76.8621V12.2545H80.1927V21ZM106.558 21V16.219H102.067V12.4372H106.515V8.3008H102.067V4.29336H106.601V0.199972H91.7745V21H106.558ZM43.2877 0.199972H59.8332C60.58 0.136445 61.3318 0.233138 62.0383 0.483585C62.7448 0.734031 63.3897 1.13246 63.9298 1.65221C64.4699 2.17196 64.8927 2.80105 65.1701 3.4974C65.4475 4.19375 65.5729 4.94131 65.5381 5.69006C65.5381 9.34295 62.9918 10.2454 62.9918 10.2454C62.9918 10.2454 65.753 11.3198 65.753 15.1768C65.753 21.2471 60.1877 21 59.3067 21H43.2877V0.199972ZM53.1613 4.16444V8.09667H54.5687C54.8909 8.0952 55.2062 8.00262 55.478 7.82962C55.7499 7.65662 55.9673 7.41026 56.1051 7.11898C56.25 6.80203 56.3251 6.45759 56.3251 6.10906C56.3251 5.76054 56.25 5.4161 56.1051 5.09915C55.9676 4.81231 55.7509 4.57085 55.4805 4.4033C55.2102 4.23575 54.8975 4.14913 54.5794 4.15369L53.1613 4.16444ZM130.581 0.199972H146.084C150.941 0.199972 152.799 3.48758 152.799 6.3132C152.849 7.61218 152.448 8.88841 151.665 9.926C150.882 10.9636 149.765 11.6988 148.502 12.0074L154.132 21H142.722L140.293 15.0264V21H119.676L117.237 15.0264V21H107.568V0.199972H123.071C127.927 0.199972 129.765 3.48758 129.765 6.3132C129.814 7.61218 129.413 8.88841 128.63 9.926C127.847 10.9636 126.73 11.6988 125.467 12.0074L130.678 20.3016L130.581 0.199972Z" fill="#0E1931"/>
</g>
<defs>
<clipPath id="clip0_104_945">
<rect width="153.819" height="20.8" fill="white" transform="translate(0.237305 0.200012)"/>
</clipPath>
</defs>
</svg>
