<svg width="114" height="41" viewBox="0 0 114 41" fill="none" xmlns="http://www.w3.org/2000/svg">
<path d="M0.437988 33.8659H2.01999L3.78399 38.8779H3.79799L5.51999 33.8659H7.07399V40.2639H6.00999V35.3359H5.99599L4.21799 40.2639H3.29399L1.52999 35.3359H1.50199V40.2639H0.437988V33.8659Z" fill="white"/>
<path d="M8.43213 33.8659H13.0381V34.8319H9.55213V36.5119H12.7721V37.4219H9.55213V39.2979H13.0941V40.2639H8.43213V33.8659Z" fill="white"/>
<path d="M15.1942 39.3539H16.3002C16.7342 39.3539 17.0982 39.2979 17.3642 39.1859C17.6442 39.0739 17.8542 38.9059 18.0222 38.6959C18.1762 38.4859 18.2882 38.2479 18.3442 37.9679C18.4002 37.6879 18.4282 37.3939 18.4282 37.0719C18.4282 36.7499 18.4002 36.4559 18.3442 36.1759C18.2882 35.8959 18.1762 35.6579 18.0222 35.4479C17.8682 35.2379 17.6442 35.0839 17.3642 34.9579C17.0842 34.8459 16.7342 34.7899 16.3002 34.7899H15.1942V39.3679V39.3539ZM14.0742 33.8659H16.7202C17.2102 33.8659 17.6302 33.9499 17.9942 34.1179C18.3442 34.2859 18.6382 34.5099 18.8762 34.8039C19.1142 35.0979 19.2682 35.4339 19.3802 35.8259C19.4922 36.2179 19.5482 36.6239 19.5482 37.0719C19.5482 37.5199 19.4922 37.9259 19.3802 38.3179C19.2682 38.7099 19.1002 39.0459 18.8762 39.3399C18.6522 39.6339 18.3582 39.8579 17.9942 40.0259C17.6302 40.1939 17.2102 40.2779 16.7202 40.2779H14.0742V33.8799V33.8659Z" fill="white"/>
<path d="M21.662 33.8659H20.542V40.2639H21.662V33.8659Z" fill="white"/>
<path d="M24.3503 37.7159H26.3103L25.3583 34.9719H25.3303L24.3643 37.7159H24.3503ZM24.7423 33.8659H25.9323L28.3963 40.2639H27.1923L26.5903 38.5699H24.0423L23.4403 40.2639H22.2783L24.7283 33.8659H24.7423Z" fill="white"/>
<path d="M33.5337 34.4821C33.3377 34.4821 33.1837 34.5521 33.0437 34.6781C32.9177 34.8041 32.8477 34.9721 32.8477 35.1961C32.8477 35.3081 32.8617 35.4061 32.9037 35.4901C32.9457 35.5881 32.9877 35.6721 33.0437 35.7561C33.0997 35.8401 33.1557 35.9241 33.2257 36.0081C33.2957 36.0921 33.3657 36.1761 33.4217 36.2461C33.5197 36.1761 33.6177 36.1201 33.7017 36.0501C33.7857 35.9801 33.8697 35.9101 33.9397 35.8261C34.0097 35.7421 34.0657 35.6581 34.1077 35.5461C34.1497 35.4481 34.1637 35.3361 34.1637 35.2101C34.1637 35.0001 34.1077 34.8321 33.9817 34.6781C33.8697 34.5381 33.7017 34.4681 33.5057 34.4681M33.1137 37.3101C33.0157 37.3661 32.9177 37.4361 32.8057 37.4921C32.6937 37.5481 32.5817 37.6321 32.4837 37.7161C32.3857 37.8001 32.3017 37.9121 32.2317 38.0381C32.1617 38.1641 32.1337 38.3181 32.1337 38.5141C32.1337 38.8641 32.2317 39.1301 32.4277 39.3121C32.6237 39.4941 32.8617 39.5921 33.1697 39.5921C33.3517 39.5921 33.5197 39.5641 33.6457 39.5081C33.7717 39.4521 33.8837 39.3961 33.9817 39.3261C34.0797 39.2561 34.1497 39.1721 34.2197 39.0881C34.2897 39.0041 34.3317 38.9341 34.3877 38.8641L33.1277 37.3101H33.1137ZM34.9197 39.5501C34.6817 39.8441 34.4157 40.0541 34.1217 40.1941C33.8277 40.3341 33.5057 40.3901 33.1277 40.3901C32.8337 40.3901 32.5677 40.3481 32.3157 40.2641C32.0637 40.1801 31.8537 40.0541 31.6717 39.8861C31.4897 39.7181 31.3497 39.5221 31.2517 39.2981C31.1537 39.0601 31.0977 38.7941 31.0977 38.5001C31.0977 38.2761 31.1397 38.0661 31.2237 37.8841C31.3077 37.7021 31.4197 37.5341 31.5597 37.3801C31.6997 37.2261 31.8537 37.0861 32.0357 36.9741C32.2177 36.8481 32.3997 36.7501 32.5817 36.6521C32.4977 36.5401 32.4137 36.4421 32.3437 36.3301C32.2597 36.2181 32.2037 36.1201 32.1337 36.0081C32.0777 35.8961 32.0217 35.7701 31.9937 35.6441C31.9517 35.5181 31.9377 35.3921 31.9377 35.2521C31.9377 35.0141 31.9797 34.8041 32.0637 34.6221C32.1477 34.4401 32.2597 34.2721 32.3997 34.1461C32.5397 34.0061 32.7077 33.9081 32.9037 33.8381C33.0997 33.7681 33.2957 33.7261 33.5057 33.7261C33.7157 33.7261 33.9117 33.7541 34.1077 33.8241C34.3037 33.8941 34.4717 33.9781 34.6117 34.1181C34.7657 34.2441 34.8777 34.4121 34.9617 34.5941C35.0457 34.7901 35.1017 35.0141 35.1017 35.2661C35.1017 35.4621 35.0737 35.6301 35.0037 35.7981C34.9477 35.9661 34.8637 36.1061 34.7517 36.2461C34.6397 36.3861 34.5277 36.4981 34.3877 36.6101C34.2477 36.7221 34.0937 36.8201 33.9397 36.8901L34.9337 38.0941C34.9757 37.9961 35.0037 37.8701 35.0457 37.7441C35.0877 37.6181 35.1157 37.4361 35.1297 37.2401H36.0257C35.9977 37.5201 35.9417 37.8001 35.8577 38.0661C35.7737 38.3321 35.6617 38.5841 35.5217 38.8081L36.7537 40.2921H35.4937L34.9057 39.5781L34.9197 39.5501Z" fill="white"/>
<path d="M39.8062 33.8659H44.4122V34.8319H40.9262V36.5119H44.1602V37.4219H40.9262V39.2979H44.4822V40.2639H39.8062V33.8659Z" fill="white"/>
<path d="M45.4062 33.8659H46.5963L49.5223 38.5839H49.5363V33.8659H50.6003V40.2639H49.4243L46.4983 35.5599H46.4843V40.2639H45.4062V33.8659Z" fill="white"/>
<path d="M51.3135 33.8659H56.4935V34.8319H54.4635V40.2639H53.3435V34.8319H51.3135V33.8659Z" fill="white"/>
<path d="M57.2363 33.8659H61.8563V34.8319H58.3563V36.5119H61.5903V37.4219H58.3563V39.2979H61.9123V40.2639H57.2363V33.8659Z" fill="white"/>
<path d="M64.0119 36.7779H65.8459C66.2099 36.7779 66.4759 36.6939 66.6579 36.5259C66.8399 36.3579 66.9379 36.1059 66.9379 35.7559C66.9379 35.5599 66.9099 35.3919 66.8539 35.2659C66.7979 35.1399 66.7139 35.0419 66.6019 34.9579C66.5039 34.8879 66.3779 34.8459 66.2379 34.8179C66.0979 34.7899 65.9719 34.7759 65.8179 34.7759H63.9979V36.7779H64.0119ZM62.8919 33.8659H65.9439C66.6439 33.8659 67.1759 34.0199 67.5259 34.3279C67.8759 34.6359 68.0579 35.0559 68.0579 35.6019C68.0579 35.9099 68.0159 36.1619 67.9179 36.3579C67.8339 36.5539 67.7219 36.7219 67.6099 36.8479C67.4839 36.9739 67.3719 37.0579 67.2599 37.1139C67.1479 37.1699 67.0639 37.1979 67.0079 37.2259C67.1059 37.2539 67.2039 37.2819 67.3159 37.3379C67.4279 37.3799 67.5259 37.4639 67.6239 37.5619C67.7219 37.6739 67.7919 37.7999 67.8619 37.9679C67.9179 38.1359 67.9599 38.3459 67.9599 38.5979C67.9599 38.9759 67.9879 39.3119 68.0439 39.6199C68.0999 39.9279 68.1839 40.1519 68.3099 40.2779H67.1059C67.0219 40.1379 66.9659 39.9839 66.9519 39.8159C66.9379 39.6479 66.9239 39.4939 66.9239 39.3259C66.9239 39.0319 66.9099 38.7799 66.8679 38.5699C66.8259 38.3599 66.7699 38.1779 66.6719 38.0379C66.5739 37.8979 66.4479 37.7999 66.2799 37.7299C66.1119 37.6599 65.9019 37.6319 65.6499 37.6319H63.9979V40.2639H62.8779V33.8659H62.8919Z" fill="white"/>
<path d="M68.436 33.8659H73.616V34.8319H71.572V40.2639H70.452V34.8319H68.436V33.8659Z" fill="white"/>
<path d="M74.8479 37.7159H76.8079L75.8559 34.9719H75.8279L74.8619 37.7159H74.8479ZM75.2399 33.8659H76.4299L78.8939 40.2639H77.6899L77.0879 38.5699H74.5399L73.9379 40.2639H72.7759L75.2259 33.8659H75.2399Z" fill="white"/>
<path d="M80.6298 33.8659H79.5098V40.2639H80.6298V33.8659Z" fill="white"/>
<path d="M81.96 33.8659H83.136L86.062 38.5839H86.076V33.8659H87.14V40.2639H85.964L83.052 35.5599H83.024V40.2639H81.96V33.8659Z" fill="white"/>
<path d="M88.4561 33.8659H90.0381L91.8021 38.8779H91.8161L93.5381 33.8659H95.0921V40.2639H94.0281V35.3359H94.0141L92.2361 40.2639H91.3121L89.5341 35.3359H89.5201V40.2639H88.4561V33.8659Z" fill="white"/>
<path d="M96.436 33.8659H101.056V34.8319H97.556V36.5119H100.79V37.4219H97.556V39.2979H101.112V40.2639H96.436V33.8659Z" fill="white"/>
<path d="M102.05 33.8659H103.226L106.152 38.5839H106.166V33.8659H107.23V40.2639H106.054L103.142 35.5599H103.114V40.2639H102.05V33.8659Z" fill="white"/>
<path d="M107.958 33.8659H113.138V34.8319H111.094V40.2639H109.974V34.8319H107.958V33.8659Z" fill="white"/>
<path d="M80.1258 15.75V17.864H73.1118V6.67802H80.0418V8.79202H75.3518V11.172H79.6358V13.244H75.3518V15.75H80.1258Z" fill="white"/>
<path d="M89.0444 15.75V17.864H82.5063V6.67802H84.7323V15.75H89.0444Z" fill="white"/>
<path d="M89.9121 12.2641C89.9121 8.98815 92.3761 6.45415 95.8061 6.45415C97.8781 6.45415 99.6981 7.49015 100.678 9.08615L98.7461 10.1921C98.2001 9.19815 97.0941 8.59615 95.8061 8.59615C93.5941 8.59615 92.1381 10.1081 92.1381 12.2641C92.1381 14.4201 93.5941 15.9181 95.8061 15.9181C97.0941 15.9181 98.2141 15.3161 98.7461 14.3361L100.678 15.4421C99.7261 17.0381 97.8921 18.0741 95.8061 18.0741C92.3761 18.0741 89.9121 15.5261 89.9121 12.2641Z" fill="white"/>
<path d="M110.968 12.2641C110.968 10.1081 109.372 8.59615 107.314 8.59615C105.256 8.59615 103.66 10.1081 103.66 12.2641C103.66 14.4201 105.256 15.9181 107.314 15.9181C109.372 15.9181 110.968 14.4061 110.968 12.2641ZM101.448 12.2641C101.448 8.98815 104.052 6.45415 107.314 6.45415C110.576 6.45415 113.208 8.98815 113.208 12.2641C113.208 15.5401 110.59 18.0741 107.314 18.0741C104.038 18.0741 101.448 15.5261 101.448 12.2641Z" fill="white"/>
<path d="M12.982 10.836H0.437988V13.65H12.926C13.108 15.162 13.5 16.464 14.06 17.878H0.437988V20.692H15.922C18.428 23.492 21.774 25.102 25.596 25.102C28.2 25.102 30.426 24.374 32.624 23.016C34.822 24.374 37.048 25.102 39.652 25.102C43.474 25.102 46.82 23.492 49.326 20.692H64.474V17.878H51.188C51.762 16.464 52.14 15.162 52.322 13.65H64.474V10.836H52.252C51.986 9.338 51.538 8.05 50.908 6.664H64.474V3.85H48.822C46.344 1.386 43.208 0 39.652 0C37.048 0 34.822 0.728 32.624 2.086C30.426 0.728 28.214 0 25.596 0C22.04 0 18.918 1.386 16.426 3.85H0.437988V6.664H14.326C13.696 8.05 13.248 9.338 12.982 10.836ZM35.522 3.696C36.782 3.122 38.168 2.814 39.638 2.814C45.084 2.814 49.508 7.168 49.508 12.558C49.508 17.948 45.098 22.302 39.638 22.302C37.832 22.302 36.516 21.868 34.906 21.14C37.076 18.578 38.308 15.974 38.308 12.572C38.308 9.17 37.076 6.566 34.906 4.004L35.522 3.724V3.696ZM29.782 12.544C29.782 9.786 30.818 7.714 32.624 5.684C34.43 7.714 35.466 9.786 35.466 12.544C35.466 15.302 34.43 17.374 32.624 19.404C30.818 17.374 29.782 15.302 29.782 12.544ZM26.926 12.544C26.926 15.946 28.158 18.55 30.328 21.112C28.718 21.84 27.402 22.274 25.596 22.274C20.15 22.274 15.726 17.92 15.726 12.53C15.726 7.14 20.136 2.786 25.596 2.786C27.402 2.786 28.718 3.22 30.328 3.948C28.158 6.51 26.926 9.114 26.926 12.516" fill="white"/>
</svg>
