<svg width="114" height="41" viewBox="0 0 114 41" fill="none" xmlns="http://www.w3.org/2000/svg">
<path d="M0.4375 33.8659H2.0195L3.7835 38.8779H3.7975L5.5195 33.8659H7.0735V40.2639H6.0095V35.3359H5.9955L4.2175 40.2639H3.2935L1.5295 35.3359H1.5015V40.2639H0.4375V33.8659Z" fill="#0E1931"/>
<path d="M8.43164 33.8659H13.0376V34.8319H9.55164V36.5119H12.7716V37.4219H9.55164V39.2979H13.0936V40.2639H8.43164V33.8659Z" fill="#0E1931"/>
<path d="M15.1942 39.3539H16.3002C16.7342 39.3539 17.0982 39.2979 17.3642 39.1859C17.6442 39.0739 17.8542 38.9059 18.0222 38.6959C18.1762 38.4859 18.2882 38.2479 18.3442 37.9679C18.4002 37.6879 18.4282 37.3939 18.4282 37.0719C18.4282 36.7499 18.4002 36.4559 18.3442 36.1759C18.2882 35.8959 18.1762 35.6579 18.0222 35.4479C17.8682 35.2379 17.6442 35.0839 17.3642 34.9579C17.0842 34.8459 16.7342 34.7899 16.3002 34.7899H15.1942V39.3679V39.3539ZM14.0742 33.8659H16.7202C17.2102 33.8659 17.6302 33.9499 17.9942 34.1179C18.3442 34.2859 18.6382 34.5099 18.8762 34.8039C19.1142 35.0979 19.2682 35.4339 19.3802 35.8259C19.4922 36.2179 19.5482 36.6239 19.5482 37.0719C19.5482 37.5199 19.4922 37.9259 19.3802 38.3179C19.2682 38.7099 19.1002 39.0459 18.8762 39.3399C18.6522 39.6339 18.3582 39.8579 17.9942 40.0259C17.6302 40.1939 17.2102 40.2779 16.7202 40.2779H14.0742V33.8799V33.8659Z" fill="#0E1931"/>
<path d="M21.661 33.8659H20.541V40.2639H21.661V33.8659Z" fill="#0E1931"/>
<path d="M24.3493 37.7159H26.3093L25.3573 34.9719H25.3293L24.3633 37.7159H24.3493ZM24.7413 33.8659H25.9313L28.3953 40.2639H27.1913L26.5893 38.5699H24.0413L23.4393 40.2639H22.2773L24.7273 33.8659H24.7413Z" fill="#0E1931"/>
<path d="M33.5337 34.4821C33.3377 34.4821 33.1837 34.5521 33.0437 34.6781C32.9177 34.8041 32.8477 34.9721 32.8477 35.1961C32.8477 35.3081 32.8617 35.4061 32.9037 35.4901C32.9457 35.5881 32.9877 35.6721 33.0437 35.7561C33.0997 35.8401 33.1557 35.9241 33.2257 36.0081C33.2957 36.0921 33.3657 36.1761 33.4217 36.2461C33.5197 36.1761 33.6177 36.1201 33.7017 36.0501C33.7857 35.9801 33.8697 35.9101 33.9397 35.8261C34.0097 35.7421 34.0657 35.6581 34.1077 35.5461C34.1497 35.4481 34.1637 35.3361 34.1637 35.2101C34.1637 35.0001 34.1077 34.8321 33.9817 34.6781C33.8697 34.5381 33.7017 34.4681 33.5057 34.4681M33.1137 37.3101C33.0157 37.3661 32.9177 37.4361 32.8057 37.4921C32.6937 37.5481 32.5817 37.6321 32.4837 37.7161C32.3857 37.8001 32.3017 37.9121 32.2317 38.0381C32.1617 38.1641 32.1337 38.3181 32.1337 38.5141C32.1337 38.8641 32.2317 39.1301 32.4277 39.3121C32.6237 39.4941 32.8617 39.5921 33.1697 39.5921C33.3517 39.5921 33.5197 39.5641 33.6457 39.5081C33.7717 39.4521 33.8837 39.3961 33.9817 39.3261C34.0797 39.2561 34.1497 39.1721 34.2197 39.0881C34.2897 39.0041 34.3317 38.9341 34.3877 38.8641L33.1277 37.3101H33.1137ZM34.9197 39.5501C34.6817 39.8441 34.4157 40.0541 34.1217 40.1941C33.8277 40.3341 33.5057 40.3901 33.1277 40.3901C32.8337 40.3901 32.5677 40.3481 32.3157 40.2641C32.0637 40.1801 31.8537 40.0541 31.6717 39.8861C31.4897 39.7181 31.3497 39.5221 31.2517 39.2981C31.1537 39.0601 31.0977 38.7941 31.0977 38.5001C31.0977 38.2761 31.1397 38.0661 31.2237 37.8841C31.3077 37.7021 31.4197 37.5341 31.5597 37.3801C31.6997 37.2261 31.8537 37.0861 32.0357 36.9741C32.2177 36.8481 32.3997 36.7501 32.5817 36.6521C32.4977 36.5401 32.4137 36.4421 32.3437 36.3301C32.2597 36.2181 32.2037 36.1201 32.1337 36.0081C32.0777 35.8961 32.0217 35.7701 31.9937 35.6441C31.9517 35.5181 31.9377 35.3921 31.9377 35.2521C31.9377 35.0141 31.9797 34.8041 32.0637 34.6221C32.1477 34.4401 32.2597 34.2721 32.3997 34.1461C32.5397 34.0061 32.7077 33.9081 32.9037 33.8381C33.0997 33.7681 33.2957 33.7261 33.5057 33.7261C33.7157 33.7261 33.9117 33.7541 34.1077 33.8241C34.3037 33.8941 34.4717 33.9781 34.6117 34.1181C34.7657 34.2441 34.8777 34.4121 34.9617 34.5941C35.0457 34.7901 35.1017 35.0141 35.1017 35.2661C35.1017 35.4621 35.0737 35.6301 35.0037 35.7981C34.9477 35.9661 34.8637 36.1061 34.7517 36.2461C34.6397 36.3861 34.5277 36.4981 34.3877 36.6101C34.2477 36.7221 34.0937 36.8201 33.9397 36.8901L34.9337 38.0941C34.9757 37.9961 35.0037 37.8701 35.0457 37.7441C35.0877 37.6181 35.1157 37.4361 35.1297 37.2401H36.0257C35.9977 37.5201 35.9417 37.8001 35.8577 38.0661C35.7737 38.3321 35.6617 38.5841 35.5217 38.8081L36.7537 40.2921H35.4937L34.9057 39.5781L34.9197 39.5501Z" fill="#0E1931"/>
<path d="M39.8047 33.8659H44.4107V34.8319H40.9247V36.5119H44.1587V37.4219H40.9247V39.2979H44.4807V40.2639H39.8047V33.8659Z" fill="#0E1931"/>
<path d="M45.4062 33.8659H46.5963L49.5223 38.5839H49.5363V33.8659H50.6003V40.2639H49.4243L46.4983 35.5599H46.4843V40.2639H45.4062V33.8659Z" fill="#0E1931"/>
<path d="M51.3125 33.866H56.4925V34.832H54.4625V40.264H53.3425V34.832H51.3125V33.866Z" fill="#0E1931"/>
<path d="M57.2363 33.8659H61.8563V34.8319H58.3563V36.5119H61.5903V37.4219H58.3563V39.2979H61.9123V40.2639H57.2363V33.8659Z" fill="#0E1931"/>
<path d="M64.011 36.7779H65.845C66.209 36.7779 66.475 36.6939 66.657 36.5259C66.839 36.3579 66.937 36.1059 66.937 35.7559C66.937 35.5599 66.909 35.3919 66.853 35.2659C66.797 35.1399 66.713 35.0419 66.601 34.9579C66.503 34.8879 66.377 34.8459 66.237 34.8179C66.097 34.7899 65.971 34.7759 65.817 34.7759H63.997V36.7779H64.011ZM62.891 33.8659H65.943C66.643 33.8659 67.175 34.0199 67.525 34.3279C67.875 34.6359 68.057 35.0559 68.057 35.6019C68.057 35.9099 68.015 36.1619 67.917 36.3579C67.833 36.5539 67.721 36.7219 67.609 36.8479C67.483 36.9739 67.371 37.0579 67.259 37.1139C67.147 37.1699 67.063 37.1979 67.007 37.2259C67.105 37.2539 67.203 37.2819 67.315 37.3379C67.427 37.3799 67.525 37.4639 67.623 37.5619C67.721 37.6739 67.791 37.7999 67.861 37.9679C67.917 38.1359 67.959 38.3459 67.959 38.5979C67.959 38.9759 67.987 39.3119 68.043 39.6199C68.099 39.9279 68.183 40.1519 68.309 40.2779H67.105C67.021 40.1379 66.965 39.9839 66.951 39.8159C66.937 39.6479 66.923 39.4939 66.923 39.3259C66.923 39.0319 66.909 38.7799 66.867 38.5699C66.825 38.3599 66.769 38.1779 66.671 38.0379C66.573 37.8979 66.447 37.7999 66.279 37.7299C66.111 37.6599 65.901 37.6319 65.649 37.6319H63.997V40.2639H62.877V33.8659H62.891Z" fill="#0E1931"/>
<path d="M68.4355 33.8659H73.6155V34.8319H71.5715V40.2639H70.4515V34.8319H68.4355V33.8659Z" fill="#0E1931"/>
<path d="M74.8474 37.7159H76.8074L75.8554 34.9719H75.8274L74.8614 37.7159H74.8474ZM75.2394 33.8659H76.4294L78.8934 40.2639H77.6894L77.0874 38.5699H74.5394L73.9374 40.2639H72.7754L75.2254 33.8659H75.2394Z" fill="#0E1931"/>
<path d="M80.6298 33.8659H79.5098V40.2639H80.6298V33.8659Z" fill="#0E1931"/>
<path d="M81.959 33.8659H83.135L86.061 38.5839H86.075V33.8659H87.139V40.2639H85.963L83.051 35.5599H83.023V40.2639H81.959V33.8659Z" fill="#0E1931"/>
<path d="M88.4551 33.8659H90.0371L91.8011 38.8779H91.8151L93.5371 33.8659H95.0911V40.2639H94.0271V35.3359H94.0131L92.2351 40.2639H91.3111L89.5331 35.3359H89.5191V40.2639H88.4551V33.8659Z" fill="#0E1931"/>
<path d="M96.4355 33.8659H101.056V34.8319H97.5556V36.5119H100.79V37.4219H97.5556V39.2979H101.112V40.2639H96.4355V33.8659Z" fill="#0E1931"/>
<path d="M102.049 33.8659H103.225L106.151 38.5839H106.165V33.8659H107.229V40.2639H106.053L103.141 35.5599H103.113V40.2639H102.049V33.8659Z" fill="#0E1931"/>
<path d="M107.957 33.866H113.137V34.832H111.093V40.264H109.973V34.832H107.957V33.866Z" fill="#0E1931"/>
<path d="M80.1253 15.75V17.864H73.1113V6.67804H80.0413V8.79204H75.3513V11.172H79.6353V13.244H75.3513V15.75H80.1253Z" fill="#0E1931"/>
<path d="M89.0439 15.75V17.864H82.5059V6.67804H84.7319V15.75H89.0439Z" fill="#0E1931"/>
<path d="M89.9121 12.2642C89.9121 8.98816 92.3761 6.45416 95.8061 6.45416C97.8781 6.45416 99.6981 7.49016 100.678 9.08616L98.7461 10.1922C98.2001 9.19816 97.0941 8.59616 95.8061 8.59616C93.5941 8.59616 92.1381 10.1082 92.1381 12.2642C92.1381 14.4202 93.5941 15.9182 95.8061 15.9182C97.0941 15.9182 98.2141 15.3162 98.7461 14.3362L100.678 15.4422C99.7261 17.0382 97.8921 18.0742 95.8061 18.0742C92.3761 18.0742 89.9121 15.5262 89.9121 12.2642Z" fill="#0E1931"/>
<path d="M110.967 12.2642C110.967 10.1082 109.371 8.59616 107.313 8.59616C105.255 8.59616 103.659 10.1082 103.659 12.2642C103.659 14.4202 105.255 15.9182 107.313 15.9182C109.371 15.9182 110.967 14.4062 110.967 12.2642ZM101.447 12.2642C101.447 8.98816 104.051 6.45416 107.313 6.45416C110.575 6.45416 113.207 8.98816 113.207 12.2642C113.207 15.5402 110.589 18.0742 107.313 18.0742C104.037 18.0742 101.447 15.5262 101.447 12.2642Z" fill="#0E1931"/>
<path d="M12.9815 10.836H0.4375V13.65H12.9255C13.1075 15.162 13.4995 16.464 14.0595 17.878H0.4375V20.692H15.9215C18.4275 23.492 21.7735 25.102 25.5955 25.102C28.1995 25.102 30.4255 24.374 32.6235 23.016C34.8215 24.374 37.0475 25.102 39.6515 25.102C43.4735 25.102 46.8195 23.492 49.3255 20.692H64.4735V17.878H51.1875C51.7615 16.464 52.1395 15.162 52.3215 13.65H64.4735V10.836H52.2515C51.9855 9.338 51.5375 8.05 50.9075 6.664H64.4735V3.85H48.8215C46.3435 1.386 43.2075 0 39.6515 0C37.0475 0 34.8215 0.728 32.6235 2.086C30.4255 0.728 28.2135 0 25.5955 0C22.0395 0 18.9175 1.386 16.4255 3.85H0.4375V6.664H14.3255C13.6955 8.05 13.2475 9.338 12.9815 10.836ZM35.5215 3.696C36.7815 3.122 38.1675 2.814 39.6375 2.814C45.0835 2.814 49.5075 7.168 49.5075 12.558C49.5075 17.948 45.0975 22.302 39.6375 22.302C37.8315 22.302 36.5155 21.868 34.9055 21.14C37.0755 18.578 38.3075 15.974 38.3075 12.572C38.3075 9.17 37.0755 6.566 34.9055 4.004L35.5215 3.724V3.696ZM29.7815 12.544C29.7815 9.786 30.8175 7.714 32.6235 5.684C34.4295 7.714 35.4655 9.786 35.4655 12.544C35.4655 15.302 34.4295 17.374 32.6235 19.404C30.8175 17.374 29.7815 15.302 29.7815 12.544ZM26.9255 12.544C26.9255 15.946 28.1575 18.55 30.3275 21.112C28.7175 21.84 27.4015 22.274 25.5955 22.274C20.1495 22.274 15.7255 17.92 15.7255 12.53C15.7255 7.14 20.1355 2.786 25.5955 2.786C27.4015 2.786 28.7175 3.22 30.3275 3.948C28.1575 6.51 26.9255 9.114 26.9255 12.516" fill="#0E1931"/>
</svg>
