<svg width="116" height="45" viewBox="0 0 116 45" fill="none" xmlns="http://www.w3.org/2000/svg">
<g clip-path="url(#clip0_104_949)">
<path d="M43.3275 15.7139C42.5683 12.896 41.2275 10.2682 39.3913 7.99989C37.5551 5.73154 35.2642 3.87287 32.6662 2.54354C30.0681 1.21421 27.2205 0.443691 24.3066 0.281595C21.3927 0.119499 18.4771 0.569419 15.7477 1.60238C13.0182 2.63535 10.5353 4.22847 8.45881 6.27916C6.38235 8.32985 4.75834 10.7927 3.69137 13.509C2.62439 16.2254 2.13809 19.1351 2.26378 22.0508C2.38947 24.9664 3.12436 27.8235 4.42113 30.438C3.09964 25.4374 3.67826 20.1245 6.04521 15.5256C8.41216 10.9267 12.3995 7.36822 17.2369 5.5375C22.0743 3.70679 27.4186 3.73378 32.2372 5.61327C37.0559 7.49275 41.0071 11.0914 43.3275 15.7139Z" fill="#0E1931"/>
<path d="M60.6742 19.5823C60.2313 19.5486 59.8174 19.3489 59.5154 19.0231C59.2134 18.6974 59.0457 18.2695 59.0457 17.8253C59.0457 17.3811 59.2134 16.9533 59.5154 16.6275C59.8174 16.3017 60.2313 16.102 60.6742 16.0684C60.9017 16.0681 61.127 16.1127 61.3372 16.1996C61.5475 16.2865 61.7385 16.4139 61.8995 16.5747C62.0739 16.7332 62.2121 16.9274 62.3047 17.144C62.3973 17.3607 62.4422 17.5948 62.4362 17.8304C62.4335 18.2959 62.2467 18.7415 61.9166 19.0698C61.5864 19.398 61.1398 19.5823 60.6742 19.5823ZM62.0514 38.5291H59.297V22.0734H62.0514V38.5291Z" fill="#0E1931"/>
<path d="M77.9601 33.7595V26.438C77.8384 26.1088 77.6894 25.7903 77.5145 25.4861C77.1816 24.808 76.6612 24.2396 76.0151 23.8483C75.3689 23.457 74.6241 23.2593 73.8689 23.2785C72.9969 23.2247 72.1291 23.4358 71.3791 23.884C70.6292 24.3321 70.0322 24.9965 69.6664 25.7899C68.9762 27.4206 68.6612 29.1856 68.7449 30.9544C68.7032 32.4849 69.0517 34.0008 69.7575 35.3595C70.1053 36.0408 70.639 36.6098 71.2967 37.0005C71.9544 37.3911 72.7093 37.5876 73.474 37.5671C74.3377 37.5836 75.1863 37.3393 75.909 36.866C76.6316 36.3926 77.1947 35.7123 77.5246 34.9139C77.7118 34.5415 77.8709 34.1556 78.0006 33.7595M79.7423 38.5291H77.9601V36.0683C77.3618 36.9328 76.5581 37.6351 75.6214 38.1124C74.6846 38.5896 73.644 38.8267 72.593 38.8025C71.6809 38.8414 70.7714 38.6802 69.9282 38.3303C69.085 37.9805 68.3286 37.4503 67.712 36.7772C66.2654 35.0088 65.5419 32.7585 65.6866 30.4785C65.6216 28.2773 66.3393 26.1244 67.712 24.4025C68.3511 23.5991 69.1693 22.9562 70.1013 22.5254C71.0332 22.0947 72.0529 21.8878 73.0791 21.9215C74.176 21.9053 75.2535 22.2117 76.1778 22.8025C76.8549 23.2322 77.4485 23.7812 77.9297 24.4228V16.4937H80.5828V38.5291H79.7423Z" fill="#0E1931"/>
<path d="M97.3424 28.9291C97.4207 27.5004 97.124 26.076 96.4816 24.7975C96.1425 24.1932 95.639 23.6975 95.0297 23.3677C94.4203 23.0379 93.7299 22.8876 93.0386 22.9342C92.3203 22.9153 91.609 23.0792 90.9714 23.4104C90.3337 23.7416 89.7906 24.2293 89.393 24.8278C88.5518 26.027 88.1186 27.4649 88.1576 28.9291H97.3424ZM99.2057 36.7772C98.3334 37.3981 97.3836 37.9019 96.3804 38.2759C95.3857 38.6296 94.3372 38.8078 93.2816 38.8025C92.1975 38.8506 91.1152 38.6739 90.1027 38.2835C89.0902 37.8931 88.1693 37.2975 87.3981 36.5342C86.621 35.7075 86.0188 34.7325 85.6273 33.6676C85.2358 32.6028 85.0631 31.4699 85.1196 30.3367C85.0056 28.1286 85.7288 25.9588 87.1449 24.2608C87.8817 23.4411 88.7924 22.7966 89.8104 22.3743C90.8283 21.9521 91.9279 21.7627 93.0285 21.8203C93.9464 21.7823 94.8617 21.9437 95.7113 22.2933C96.5609 22.643 97.3246 23.1725 97.95 23.8456C99.4172 25.6461 100.142 27.939 99.9753 30.2557L92.988 30.1544H88.1576C88.067 31.95 88.5609 33.7265 89.5652 35.2177C90.0888 35.9204 90.7777 36.4831 91.5709 36.8558C92.364 37.2285 93.2368 37.3998 94.112 37.3544C95.1791 37.3425 96.2252 37.0565 97.15 36.524C97.8915 36.1008 98.5727 35.5796 99.1753 34.9747L99.2057 36.7772Z" fill="#0E1931"/>
<path d="M112.998 30.5797L111.793 30.4582C110.351 30.3059 108.894 30.4824 107.53 30.9747C107.035 31.2189 106.621 31.6014 106.339 32.0759C106.057 32.5504 105.918 33.0965 105.94 33.6481C105.884 34.6778 106.205 35.6926 106.841 36.5038C107.529 37.0835 108.414 37.3771 109.312 37.324C109.819 37.3072 110.315 37.1719 110.76 36.9291C111.242 36.6975 111.683 36.3897 112.067 36.0177C112.259 35.8557 112.451 35.6734 112.674 35.4506C112.826 35.3267 112.939 35.1613 112.998 34.9747V30.5797ZM115.763 38.4987H112.998V36.4734L112.826 36.6455C112.173 37.331 111.387 37.8765 110.517 38.249C109.647 38.6215 108.71 38.8133 107.763 38.8126C106.575 38.8435 105.419 38.428 104.522 37.6481C104.078 37.1878 103.73 36.6435 103.499 36.047C103.268 35.4506 103.158 34.8141 103.175 34.1747C103.175 30.2759 105.798 28.5443 109.444 28.3417C110.634 28.2692 111.828 28.2692 113.018 28.3417V25.881C112.843 25.2939 112.526 24.7586 112.097 24.3215C111.693 23.9628 111.222 23.6884 110.711 23.5145C110.199 23.3405 109.658 23.2706 109.12 23.3088C108.087 23.2854 107.074 23.5981 106.234 24.2C105.678 24.5444 105.254 25.0649 105.029 25.6785H104.644V23.7544C105.481 23.1685 106.39 22.692 107.348 22.3367C108.263 22.0198 109.225 21.8589 110.193 21.8607C113.906 21.8607 115.763 23.7882 115.763 27.643V33.2835V38.4987Z" fill="#0E1931"/>
<path d="M53.8894 38.5291L50.3249 16.1291H44.0667L46.5983 38.5291H53.8894Z" fill="#0E1931"/>
<path d="M40.2488 34.3873L37.3424 16.1595H31.0741L31.1247 16.5949V17.0506C31.1242 21.6754 29.7558 26.1967 27.1917 30.0456C24.6276 33.8945 20.9823 36.899 16.7146 38.681C20.0555 38.2644 23.2384 37.0161 25.9718 35.0505C28.7052 33.0849 30.9018 30.4649 32.3602 27.4304L33.6057 38.5696H36.9374L40.2488 34.3873Z" fill="#0E1931"/>
<path d="M22.5577 45C25.5143 45 28.4419 44.4173 31.1732 43.2852C33.9045 42.1532 36.3859 40.4939 38.4756 38.4024C40.5653 36.3108 42.2223 33.8279 43.3519 31.0956C44.4815 28.3632 45.0616 25.4351 45.0589 22.4785C45.0555 21.3087 44.9641 20.1409 44.7855 18.9848C44.7846 24.6486 42.6479 30.1038 38.8018 34.2614C34.9556 38.419 29.683 40.9733 24.0364 41.4143C18.3898 41.8554 12.7846 40.1507 8.33955 36.6407C3.89451 33.1307 0.936662 28.0735 0.0564056 22.4785C0.0537444 25.4351 0.633793 28.3632 1.7634 31.0956C2.893 33.8279 4.55001 36.3108 6.63971 38.4024C8.72941 40.4939 11.2108 42.1532 13.9421 43.2852C16.6734 44.4173 19.6011 45 22.5577 45Z" fill="#0E1931"/>
<mask id="mask0_104_949" style="mask-type:luminance" maskUnits="userSpaceOnUse" x="0" y="18" width="46" height="27">
<path d="M22.3349 41.4658C16.9676 41.4765 11.7731 39.5691 7.68819 36.0876C3.60323 32.6061 0.896608 27.7796 0.0563965 22.4785C0.0563966 28.4462 2.42706 34.1695 6.64686 38.3893C10.8667 42.6091 16.59 44.9797 22.5577 44.9797C28.5254 44.9797 34.2487 42.6091 38.4685 38.3893C42.6883 34.1695 45.0589 28.4462 45.0589 22.4785C45.0555 21.3087 44.9641 20.1409 44.7855 18.9848C44.7775 24.9394 42.4106 30.6483 38.2029 34.8617C33.9952 39.0751 28.2895 41.4497 22.3349 41.4658Z" fill="white"/>
</mask>
<g mask="url(#mask0_104_949)">
<path d="M45.0589 19.0051H0.0563965V45H45.0589V19.0051Z" fill="#0E1931"/>
</g>
</g>
<defs>
<clipPath id="clip0_104_949">
<rect width="115.706" height="44.8" fill="white" transform="translate(0.0561523 0.200012)"/>
</clipPath>
</defs>
</svg>
