<svg width="79" height="20" viewBox="0 0 79 20" fill="none" xmlns="http://www.w3.org/2000/svg">
<g clip-path="url(#clip0_104_965)">
<path d="M44.2486 7.71859C43.9794 7.72033 43.7217 7.82806 43.5313 8.01844C43.3409 8.20882 43.2332 8.46653 43.2314 8.73576V10.0322H45.2658V8.73576C45.2667 8.60194 45.241 8.46927 45.1902 8.34547C45.1394 8.22166 45.0645 8.10917 44.9698 8.01454C44.8752 7.91991 44.7627 7.84502 44.6389 7.79422C44.5151 7.74341 44.3824 7.71771 44.2486 7.71859Z" fill="#0E1931"/>
<path d="M69.186 7.71859C68.9139 7.71681 68.6521 7.82277 68.4578 8.01335C68.2635 8.20392 68.1524 8.46362 68.1489 8.73576V10.0322H70.2032V8.73576C70.2015 8.46653 70.0938 8.20882 69.9034 8.01844C69.713 7.82806 69.4553 7.72033 69.186 7.71859Z" fill="#0E1931"/>
<path d="M76.1533 11.6211H68.1754V12.5518C68.169 12.8312 68.2451 13.1063 68.394 13.3428C68.543 13.5792 68.7583 13.7666 69.0131 13.8814C69.1213 13.932 69.2323 13.9764 69.3455 14.0144C69.9741 14.2083 70.6539 14.1459 71.2367 13.8408C71.8195 13.5357 72.258 13.0127 72.4569 12.3856H76.0868C75.8808 12.9778 75.5531 13.5203 75.1249 13.9783C74.6967 14.4363 74.1774 14.7996 73.6004 15.0449C72.2911 15.6629 70.8682 16.0037 69.4211 16.0461C67.9739 16.0884 66.5336 15.8313 65.1904 15.2909C64.5917 15.0816 64.0447 14.7468 63.586 14.3087C63.1274 13.8707 62.7677 13.3397 62.5311 12.7512C62.293 12.187 62.1686 11.5812 62.1651 10.9687C62.1616 10.3563 62.279 9.74914 62.5106 9.18214C62.7422 8.61515 63.0835 8.09945 63.5148 7.66462C63.9462 7.22979 64.4591 6.88438 65.0242 6.6482C66.3835 6.04365 67.8615 5.75303 69.3485 5.79792C70.8355 5.8428 72.2933 6.22204 73.6137 6.90748C74.4777 7.32947 75.1876 8.01198 75.6432 8.85881C76.0989 9.70565 76.2773 10.6741 76.1533 11.6277M61.5937 15.6166H51.8408V13.549H53.2835V5.23878H51.8408V3.19778H60.1311V13.549H61.5937V15.6166ZM51.2092 11.6277H43.2314V12.5584C43.2235 12.8373 43.2982 13.1122 43.4461 13.3488C43.5939 13.5853 43.8083 13.773 44.0624 13.8881C44.1696 13.941 44.2807 13.9854 44.3948 14.0211C44.7047 14.1186 45.0309 14.1538 45.3544 14.1246C45.678 14.0954 45.9926 14.0024 46.28 13.851C46.5674 13.6995 46.822 13.4926 47.029 13.2423C47.2361 12.9919 47.3915 12.703 47.4862 12.3922H51.1162C50.9124 12.9815 50.5885 13.5221 50.1651 13.9799C49.7417 14.4376 49.228 14.8025 48.6563 15.0515C47.349 15.6645 45.9295 16.002 44.4862 16.0432C43.0429 16.0844 41.6065 15.8283 40.2663 15.2909C39.6684 15.0801 39.1222 14.7447 38.6637 14.3069C38.2052 13.869 37.8451 13.3388 37.607 12.7512C37.3683 12.1882 37.2429 11.5836 37.2381 10.972C37.2332 10.3604 37.3489 9.75392 37.5786 9.18711C37.8083 8.6203 38.1474 8.10432 38.5767 7.66868C39.0059 7.23303 39.5168 6.88626 40.0801 6.6482C41.4394 6.04365 42.9175 5.75303 44.4045 5.79792C45.8915 5.8428 47.3493 6.22204 48.6696 6.90748C49.5344 7.32868 50.2448 8.01104 50.7006 8.85808C51.1563 9.70513 51.3342 10.674 51.2092 11.6277ZM36.663 15.5834H27.1959V13.549H28.6851V8.31025H27.2225V6.26925H35.2137V13.5823H36.663V15.5834ZM25.8796 5.23878H24.417V13.549H25.8796V15.5834H16.3993V13.549H17.8619V8.16399L12.4702 15.5834L7.06519 8.16399V13.549H8.52779V15.5834H3.28901V13.549H4.75161V5.23878H3.28901V3.19778H11.566L15.0829 8.03103L18.5865 3.19778H25.8995L25.8796 5.23878ZM33.0796 2.65928L34.0037 4.47424L31.0452 6.02992L30.1012 4.21496L33.0796 2.65928ZM0.762695 19.2H78.8657V0H0.762695V19.2Z" fill="#0E1931"/>
</g>
<defs>
<clipPath id="clip0_104_965">
<rect width="78.103" height="19.2" fill="white" transform="translate(0.762695)"/>
</clipPath>
</defs>
</svg>
