<svg width="111" height="26" viewBox="0 0 111 26" fill="none" xmlns="http://www.w3.org/2000/svg">
<g clip-path="url(#clip0_2820_12371)">
<path d="M73.2117 13.8364H77.3898V11.7801H73.2117V9.42884H77.783V7.34796H71.0325V18.3914H77.865V16.3105H73.2117V13.8364Z" fill="white"/>
<path d="M82.3543 7.34796H80.1833V18.3914H86.5735V16.3105H82.3543V7.34796Z" fill="white"/>
<path d="M93.1521 9.24037C94.4137 9.24037 95.4869 9.83842 96.0195 10.8133L97.8955 9.72373C96.9452 8.14259 95.1674 7.11853 93.1439 7.11853C89.8014 7.11853 87.401 9.62542 87.401 12.8614C87.401 16.0975 89.8014 18.6043 93.1439 18.6043C95.1756 18.6043 96.9616 17.5803 97.8955 15.9991L96.0195 14.9095C95.4951 15.8681 94.4137 16.4743 93.1521 16.4743C90.9893 16.4743 89.572 14.9751 89.572 12.8614C89.572 10.7478 90.9893 9.23218 93.1521 9.23218V9.24037Z" fill="white"/>
<path d="M104.392 7.12671C101.205 7.12671 98.6656 9.6336 98.6656 12.8696C98.6656 16.1056 101.205 18.6125 104.392 18.6125C107.579 18.6125 110.135 16.0892 110.135 12.8696C110.135 9.64998 107.579 7.12671 104.392 7.12671ZM104.392 16.4825C102.385 16.4825 100.828 14.9833 100.828 12.8696C100.828 10.756 102.393 9.24036 104.392 9.24036C106.391 9.24036 107.956 10.7396 107.956 12.8696C107.956 14.9997 106.391 16.4825 104.392 16.4825Z" fill="white"/>
<path d="M38.3774 0.736633C35.8377 0.736633 33.6667 1.44938 31.5203 2.79294C29.382 1.44938 27.2111 0.736633 24.6714 0.736633C21.206 0.736633 18.1502 2.10477 15.7252 4.54612H0.13501V7.33155H13.6853C13.0627 8.69969 12.6285 9.96952 12.3745 11.4605H0.13501V14.2378H12.309C12.4892 15.737 12.8661 17.0232 13.415 18.4159H0.13501V21.2014H15.2337C17.6832 23.9622 20.9438 25.5516 24.6714 25.5516C27.2111 25.5516 29.382 24.8388 31.5203 23.4953C33.6585 24.8388 35.8295 25.5516 38.3774 25.5516C42.1049 25.5516 45.3655 23.9622 47.8151 21.2014H62.5942V18.4159H49.6338C50.1909 17.0232 50.5595 15.7288 50.7398 14.2378H62.586V11.4605H50.666C50.4121 9.96952 49.9697 8.69969 49.3552 7.33155H62.5779V4.54612H47.3071C44.8822 2.10477 41.8346 0.736633 38.361 0.736633L38.3774 0.736633ZM24.6796 22.7661C19.3627 22.7661 15.0535 18.4569 15.0535 13.1482C15.0535 7.83948 19.3627 3.52207 24.6796 3.52207C26.441 3.52207 27.7272 3.95627 29.3001 4.6772C27.1783 7.20867 25.9822 9.78109 25.9822 13.1482C25.9822 16.5153 27.1783 19.0877 29.3001 21.6192C27.7354 22.3401 26.441 22.7743 24.6796 22.7743V22.7661ZM28.7594 13.14C28.7594 10.4119 29.7671 8.3638 31.5285 6.35665C33.2898 8.3638 34.2975 10.4037 34.2975 13.14C34.2975 15.8763 33.2898 17.9162 31.5285 19.9152C29.7671 17.908 28.7594 15.8681 28.7594 13.14ZM38.3774 22.7661C36.616 22.7661 35.3298 22.3319 33.7568 21.611C35.8787 19.0795 37.0748 16.5071 37.0748 13.14C37.0748 9.7729 35.8787 7.20047 33.7568 4.66901L34.3549 4.39046C35.5755 3.82519 36.9437 3.51387 38.3692 3.51387C43.6861 3.51387 47.9953 7.8231 47.9953 13.1318C47.9953 18.4405 43.6861 22.7497 38.3692 22.7497L38.3774 22.7661Z" fill="white"/>
</g>
<defs>
<clipPath id="clip0_2820_12371">
<rect width="110" height="24.8067" fill="white" transform="translate(0.13501 0.736633)"/>
</clipPath>
</defs>
</svg>
