<svg width="60" height="20" viewBox="0 0 60 20" fill="none" xmlns="http://www.w3.org/2000/svg">
<g clip-path="url(#clip0_104_971)">
<path d="M10.3128 4.45848C12.9294 4.38372 13.9353 7.02074 13.9353 9.50145C13.9353 12.5123 12.9294 14.7415 10.3604 14.7415C7.51266 14.7415 6.81262 11.8326 6.81262 9.50145C6.81262 7.17027 7.61461 4.45848 10.3128 4.45848ZM10.3808 0C4.71932 0 0.865723 3.72446 0.865723 9.45388C0.865723 15.6319 4.67174 19.2 10.3808 19.2C15.75 19.2 19.8958 15.7066 19.8958 9.50145C19.8958 4.68956 16.8374 0 10.3808 0Z" fill="#0E1931"/>
<path d="M19.821 0.482544H35.4665V5.26725H30.6342V18.7242H24.6533V5.26725H19.821V0.482544Z" fill="#0E1931"/>
<path d="M42.4804 0.482544H36.4995V18.7242H42.4804V0.482544Z" fill="#0E1931"/>
<path d="M53.4095 5.77699C53.3836 5.51593 53.2929 5.26547 53.1458 5.04829C52.9986 4.83111 52.7996 4.65408 52.5667 4.53324C52.0981 4.30252 51.58 4.19049 51.0579 4.20701C49.7734 4.20701 49.2025 4.58761 49.2025 5.24007C49.2025 7.95865 59.4515 6.27993 59.4515 12.9201C59.4515 17.1543 56.0125 19.2 51.1055 19.2C46.4023 19.2 43.3303 16.3931 43.208 13.0832H48.8015C48.8512 13.384 48.9665 13.6703 49.1391 13.9216C49.3118 14.173 49.5376 14.3833 49.8006 14.5376C50.2992 14.8438 50.8738 15.004 51.4589 14.9998C52.9202 14.9998 53.8853 14.5172 53.8853 13.6405C53.8785 10.8743 43.6022 12.7909 43.6022 5.82457C43.6022 1.95058 46.8713 0 51.3298 0C56.2844 0 58.5408 2.58265 58.9622 5.77699H53.4095Z" fill="#0E1931"/>
</g>
<defs>
<clipPath id="clip0_104_971">
<rect width="58.5855" height="19.2" fill="white" transform="translate(0.865723)"/>
</clipPath>
</defs>
</svg>
