<svg width="82" height="52" viewBox="0 0 82 52" fill="none" xmlns="http://www.w3.org/2000/svg">
<g clip-path="url(#clip0_22_43)">
<path d="M15.9876 14.241H0.0273438V17.8713H15.9018C16.14 19.8247 16.626 21.5017 17.3406 23.3216H0.0273438V26.952H19.7227C22.9148 30.5538 27.1645 32.6214 32.0335 32.6214C35.3494 32.6214 38.1794 31.6877 40.9713 29.9344C43.7631 31.6877 46.5931 32.6214 49.909 32.6214C54.778 32.6214 59.0182 30.5538 62.2198 26.952H81.4864V23.3216H64.5924C65.3166 21.5017 65.793 19.8247 66.0407 17.8713H81.4864V14.241H65.9454C65.6119 12.3067 65.0402 10.6487 64.2398 8.86692H81.4864V5.23656H61.5718C58.4084 2.06357 54.435 0.272217 49.909 0.272217C46.5931 0.272217 43.7631 1.20601 40.9713 2.95925C38.1794 1.20601 35.3494 0.272217 32.0335 0.272217C27.517 0.272217 23.5341 2.05404 20.3707 5.23656H0.0273438V8.86692H17.6932C16.8832 10.6487 16.3211 12.3067 15.9876 14.241ZM44.6588 5.04599C46.25 4.3123 48.0319 3.90257 49.8995 3.90257C56.8267 3.90257 62.4485 9.51485 62.4485 16.4516C62.4485 23.3883 56.8267 29.0006 49.8995 29.0006C47.6031 29.0006 45.9261 28.4384 43.8774 27.4951C46.6407 24.1983 48.2034 20.8442 48.2034 16.4516C48.2034 12.059 46.6407 8.70493 43.8774 5.40807L44.6588 5.04599ZM37.3504 16.4421C37.3504 12.8784 38.6654 10.22 40.9617 7.59963C43.2581 10.2104 44.573 12.8784 44.573 16.4421C44.573 20.0057 43.2581 22.6642 40.9617 25.275C38.6654 22.6642 37.3504 19.9962 37.3504 16.4421ZM33.7201 16.4421C33.7201 20.8347 35.2828 24.1887 38.046 27.4856C35.9974 28.4289 34.3204 28.9911 32.024 28.9911C25.0968 28.9911 19.475 23.3788 19.475 16.4421C19.475 9.50532 25.0968 3.89304 32.024 3.89304C34.3204 3.89304 35.9974 4.45522 38.046 5.39854C35.2828 8.6954 33.7201 12.0494 33.7201 16.4421Z" fill="white"/>
<path d="M25.7073 48.7532V51.3068H17.3318V37.7668H25.612V40.3205H19.9998V43.2076H25.1261V45.7136H19.9998V48.7532H25.7073Z" fill="white"/>
<path d="M36.3793 48.7532V51.3068H28.5469V37.7668H31.2149V48.7532H36.3793Z" fill="white"/>
<path d="M37.4087 44.5416C37.4087 40.5777 40.3435 37.5 44.4502 37.5C46.9277 37.5 49.1097 38.7578 50.2722 40.692L47.9758 42.026C47.3183 40.8254 46.0034 40.0918 44.4598 40.0918C41.8109 40.0918 40.0671 41.9307 40.0671 44.5416C40.0671 47.1524 41.8109 48.9723 44.4598 48.9723C46.0034 48.9723 47.3374 48.2386 47.9758 47.0571L50.2722 48.3911C49.1287 50.3253 46.9467 51.5831 44.4502 51.5831C40.353 51.5831 37.4087 48.4863 37.4087 44.5416Z" fill="white"/>
<path d="M62.5992 44.5389C62.5992 41.9281 60.684 40.0891 58.2256 40.0891C55.7673 40.0891 53.852 41.9281 53.852 44.5389C53.852 47.1497 55.7673 48.9696 58.2256 48.9696C60.684 48.9696 62.5992 47.1306 62.5992 44.5389ZM51.2126 44.5389C51.2126 40.575 54.3285 37.4973 58.2351 37.4973C62.1418 37.4973 65.2767 40.575 65.2767 44.5389C65.2767 48.5027 62.1418 51.5804 58.2351 51.5804C54.3285 51.5804 51.2126 48.4837 51.2126 44.5389Z" fill="white"/>
</g>
<defs>
<clipPath id="clip0_22_43">
<rect width="81.44" height="51.3014" fill="white" transform="translate(0.0148926 0.269287)"/>
</clipPath>
</defs>
</svg>
